<svg version="1.1" xmlns="http://www.w3.org/2000/svg" xmlns:xlink="http://www.w3.org/1999/xlink"  x="0" y="0" width="332" height="66" viewBox="0 0 332 66" xml:space="preserve" >
	<path fill="black" d="M143,44V26h3.6c2.3,0,6.3,0.2,6.3,5.1c0,2-0.8,3.7-2.5,4.6l3.1,8.2h-3.7l-3.1-8.3h0V44H143z M146.5,33.7
		l0.6,0c1.6,0,2.3-1.1,2.3-2.6c0-1.3-0.6-2.3-2.4-2.2h-0.5V33.7z"/>
	<path fill="black" d="M163.2,38c0,3.1-1,6.2-4.6,6.2c-3.6,0-4.6-3.2-4.6-6.2c0-3.1,1-6.3,4.6-6.3C162.2,31.7,163.2,34.9,163.2,38z
		 M157.4,38c0,0.7,0,3.2,1.2,3.2c1.2,0,1.2-2.6,1.2-3.2c0-0.7,0-3.2-1.2-3.2C157.4,34.7,157.4,37.3,157.4,38z"/>
	<path fill="black" d="M7.8,30.1c-0.7-0.6-1.6-1.1-2.6-1.1c-1.1,0-1.8,0.7-1.8,1.8c0,3,5.4,3.1,5.4,8c0,3.2-1.8,5.6-5.2,5.6
		c-1,0-2.2-0.3-3-0.9V40c0.8,0.6,1.6,1,2.7,1c1.1,0,2-0.8,2-2c0-1.4-1.1-1.9-2.1-2.6C1.3,35,0,33.6,0,31c0-2.8,1.6-5.3,4.7-5.3
		c1.1,0,2.2,0.3,3.1,0.9V30.1z"/>
	<path fill="black" d="M16.5,43.8c-0.6,0.3-1.2,0.4-1.9,0.4c-3.3,0-4.4-3.4-4.4-6.2c0-3,1.2-6.3,4.7-6.3c0.6,0,1.1,0.1,1.7,0.4v3
		c-0.3-0.3-0.6-0.4-1-0.4c-1.6,0-2,2-2,3.2c0,1.3,0.3,3.2,2,3.2c0.4,0,0.7-0.1,1-0.4V43.8z"/>
	<path fill="black" d="M21.9,24.8v9.1h0c0.5-1.1,1.5-2.1,2.8-2.1c2.5,0,2.3,2.8,2.3,4.5V44h-3.4v-6.6c0-0.6,0.2-2.3-0.8-2.3
		c-0.8,0-0.9,0.8-0.9,1.4V44h-3.4V24.8H21.9z"/>
	<path fill="black" d="M31.3,32l1.6,7.1h0l1.6-7.1h2.9l1.5,7.1h0l0.2-1.3l1.4-5.8h3.2l-3.3,12h-2.8l-1.1-4.1l-0.7-3.5h0l-0.7,3.8
		l-1,3.7h-2.8L28,32H31.3z"/>
	<path fill="black" d="M52.9,38.9h-5.3c0,0.9,0,2.8,1.3,2.8c0.9,0,1.1-0.7,1.1-1.4h2.9c-0.3,2.2-1.4,4-3.8,4c-3.4,0-4.6-3-4.6-6
		c0-2.9,1-6.5,4.5-6.5c2.2,0,4.3,2,4.1,5.8L52.9,38.9z M50,36.5c0-0.8-0.2-2.2-1.2-2.2c-1,0-1.2,1.4-1.2,2.1v0.4H50V36.5z"/>
	<path fill="black" d="M53.9,28.4c0-1.2,1-2.1,2.2-2.1c1.2,0,2.1,1,2.1,2.2c0,1.1-1,2.1-2.1,2.1C54.9,30.5,53.9,29.5,53.9,28.4z
		 M57.7,32v12h-3.4V32H57.7z"/>
	<path fill="black" d="M67.7,32L64,41.2h3.3V44h-8l3.8-9.2h-3.4V32H67.7z"/>
	<path fill="black" d="M77.1,38.9h-5.3c0,0.9,0,2.8,1.3,2.8c0.9,0,1.1-0.7,1.1-1.4h2.9c-0.3,2.2-1.4,4-3.8,4c-3.4,0-4.6-3-4.6-6
		c0-2.9,1-6.5,4.5-6.5c2.2,0,4.3,2,4.1,5.8L77.1,38.9z M74.2,36.5c0-0.8-0.2-2.2-1.2-2.2c-1,0-1.2,1.4-1.2,2.1v0.4h2.4V36.5z"/>
	<path fill="black" d="M81.9,32v1.5h0c0.6-1.1,1.4-1.8,2.7-1.9v3.3c-0.2,0-0.3,0-0.5,0c-2.2,0-2.3,1.5-2.3,3.3v6h-3.4V32H81.9z"/>
	<path fill="black" d="M85.6,28.4c0-1.2,1-2.1,2.2-2.1c1.2,0,2.1,1,2.1,2.2c0,1.1-1,2.1-2.1,2.1C86.5,30.5,85.6,29.5,85.6,28.4z
		 M89.4,32v12H86V32H89.4z"/>
	<path fill="black" d="M97.1,35.2c-0.5-0.4-0.9-0.8-1.6-0.8c-0.6,0-0.9,0.4-0.9,0.9c0,1.4,3.8,1.1,3.8,4.7c0,2.4-1.4,4.2-3.9,4.2
		c-1.3,0-2.6-0.5-3.6-1.4l1.5-2.4c0.5,0.4,1,0.8,1.7,0.8c0.5,0,1-0.4,1-1c0-1.6-3.8-1.2-3.8-5c0-2.3,1.9-3.5,4-3.5
		c1.2,0,2.2,0.3,3.2,1L97.1,35.2z"/>
	<path fill="black" d="M105.9,43.8c-0.6,0.3-1.2,0.4-1.9,0.4c-3.3,0-4.4-3.4-4.4-6.2c0-3,1.2-6.3,4.7-6.3c0.6,0,1.1,0.1,1.7,0.4v3
		c-0.3-0.3-0.6-0.4-1-0.4c-1.6,0-2,2-2,3.2c0,1.3,0.3,3.2,1.9,3.2c0.4,0,0.7-0.1,1-0.4V43.8z"/>
	<path fill="black" d="M110.6,24.8v9.1h0c0.5-1.1,1.5-2.1,2.8-2.1c2.5,0,2.3,2.8,2.3,4.5V44h-3.4v-6.6c0-0.6,0.2-2.3-0.8-2.3
		c-0.8,0-0.9,0.8-0.9,1.4V44h-3.4V24.8H110.6z"/>
	<path fill="black" d="M126.2,38.9h-5.3c0,0.9,0,2.8,1.3,2.8c0.9,0,1.1-0.7,1.1-1.4h2.9c-0.3,2.2-1.4,4-3.8,4c-3.4,0-4.6-3-4.6-6
		c0-2.9,1-6.5,4.5-6.5c2.2,0,4.3,2,4.1,5.8L126.2,38.9z M123.3,36.5c0-0.8-0.2-2.2-1.2-2.2c-1,0-1.2,1.4-1.2,2.1v0.4h2.4V36.5z"/>
	<path fill="black" d="M133.6,35.2c-0.5-0.4-0.9-0.8-1.6-0.8c-0.6,0-0.9,0.4-0.9,0.9c0,1.4,3.8,1.1,3.8,4.7c0,2.4-1.4,4.2-3.9,4.2
		c-1.3,0-2.6-0.5-3.6-1.4l1.5-2.4c0.5,0.4,1,0.8,1.7,0.8c0.5,0,1-0.4,1-1c0-1.6-3.8-1.2-3.8-5c0-2.3,1.9-3.5,4-3.5
		c1.2,0,2.2,0.3,3.2,1L133.6,35.2z"/>
	<path fill="black" d="M168.9,28.6V32h1.4v2.8h-1.4V44h-3.4v-9.3h-1.2V32h1.2v-3.3H168.9z"/>
	<path fill="black" d="M180,38.9h-5.3c0,0.9,0,2.8,1.3,2.8c0.9,0,1.1-0.7,1.1-1.4h2.9c-0.3,2.2-1.4,4-3.8,4c-3.4,0-4.6-3-4.6-6
		c0-2.9,1-6.5,4.5-6.5c2.2,0,4.3,2,4.1,5.8L180,38.9z M177.2,36.5c0-0.8-0.2-2.2-1.2-2.2c-1,0-1.2,1.4-1.2,2.1v0.4h2.4V36.5z"/>
	<path fill="black" d="M187.6,35.2c-0.5-0.4-0.9-0.8-1.6-0.8c-0.6,0-0.9,0.4-0.9,0.9c0,1.4,3.8,1.1,3.8,4.7c0,2.4-1.4,4.2-3.9,4.2
		c-1.3,0-2.6-0.5-3.6-1.4l1.5-2.4c0.5,0.4,1,0.8,1.7,0.8c0.5,0,1-0.4,1-1c0-1.6-3.8-1.2-3.8-5c0-2.3,1.9-3.5,4-3.5
		c1.2,0,2.2,0.3,3.2,1L187.6,35.2z"/>
	<path fill="black" d="M200.6,26v8h0l2.9-8h3.6l-3.3,8.3l3.7,9.7h-3.7l-3.3-9.2h0V44H197V26H200.6z"/>
	<path fill="black" d="M212.3,32v1.5h0c0.6-1.1,1.4-1.8,2.7-1.9v3.3c-0.2,0-0.3,0-0.5,0c-2.2,0-2.3,1.5-2.3,3.3v6H209V32H212.3z"/>
	<path fill="black" d="M224.4,38.9h-5.3c0,0.9,0,2.8,1.3,2.8c0.9,0,1.1-0.7,1.1-1.4h2.9c-0.3,2.2-1.4,4-3.8,4c-3.4,0-4.6-3-4.6-6
		c0-2.9,1-6.5,4.5-6.5c2.2,0,4.3,2,4.1,5.8L224.4,38.9z M221.5,36.5c0-0.8-0.2-2.2-1.2-2.2c-1,0-1.2,1.4-1.2,2.1v0.4h2.4V36.5z"/>
	<path fill="black" d="M229.3,32v6.6c0,0.7-0.3,2.5,0.9,2.5c0.9,0,0.8-1.2,0.8-1.8l0-7.3h3.3v7.7c0,2.8-1.3,4.6-4.3,4.6
		c-3.8,0-4.1-2.9-4.1-5.1V32H229.3z"/>
	<path fill="black" d="M244.2,32l-3.7,9.3h3.3V44h-8l3.8-9.2h-3.4V32H244.2z"/>
	<polygon fill="rgb(226,0,26)" points="332,22 310,22 310,0 288,0 288,22 266,22 266,44 288,44 288,66 310,66 310,44 332,44 "/>
</svg>
