<svg width="1440" height="1024" viewBox="0 0 1440 1024" fill="none" xmlns="http://www.w3.org/2000/svg">
<rect width="1440" height="1024"/>
<path d="M402.272 448.12H381.702V463.491H405.746V470.422H373V420.465H405.505V427.465H381.702V441.258H402.272V448.12Z" fill="#003057"/>
<path d="M431.51 440.915C430.409 440.732 429.274 440.64 428.104 440.64C424.275 440.64 421.695 442.104 420.365 445.032V470.422H412.006V433.298H419.986L420.193 437.449C422.211 434.224 425.008 432.612 428.586 432.612C429.778 432.612 430.764 432.772 431.544 433.092L431.51 440.915Z" fill="#003057"/>
<path d="M440.418 470.422V439.474H434.743V433.298H440.418V429.901C440.418 425.784 441.565 422.604 443.858 420.362C446.151 418.121 449.362 417 453.489 417C454.957 417 456.516 417.206 458.167 417.618L457.961 424.137C457.044 423.954 455.977 423.862 454.762 423.862C450.772 423.862 448.777 425.909 448.777 430.004V433.298H456.344V439.474H448.777V470.422H440.418Z" fill="#003057"/>
<path d="M484.688 470.422C484.321 469.713 484 468.558 483.724 466.957C481.064 469.725 477.808 471.109 473.956 471.109C470.218 471.109 467.168 470.045 464.806 467.918C462.444 465.79 461.263 463.16 461.263 460.026C461.263 456.069 462.731 453.038 465.666 450.934C468.624 448.806 472.843 447.743 478.324 447.743H483.449V445.307C483.449 443.385 482.91 441.853 481.833 440.709C480.755 439.542 479.115 438.959 476.914 438.959C475.01 438.959 473.451 439.439 472.236 440.4C471.02 441.338 470.413 442.539 470.413 444.003H462.054C462.054 441.967 462.731 440.068 464.084 438.307C465.437 436.523 467.271 435.128 469.587 434.121C471.926 433.115 474.529 432.612 477.395 432.612C481.752 432.612 485.226 433.709 487.818 435.905C490.409 438.078 491.739 441.144 491.808 445.101V461.845C491.808 465.184 492.278 467.849 493.218 469.839V470.422H484.688ZM475.503 464.418C477.155 464.418 478.702 464.018 480.147 463.217C481.615 462.416 482.715 461.341 483.449 459.992V452.992H478.943C475.847 452.992 473.52 453.53 471.961 454.605C470.401 455.68 469.622 457.201 469.622 459.168C469.622 460.769 470.149 462.05 471.204 463.011C472.282 463.949 473.715 464.418 475.503 464.418Z" fill="#003057"/>
<path d="M508.8 437.346C511.529 434.19 514.98 432.612 519.153 432.612C527.088 432.612 531.112 437.129 531.227 446.164V470.422H522.868V446.473C522.868 443.911 522.307 442.104 521.183 441.052C520.082 439.977 518.454 439.439 516.298 439.439C512.95 439.439 510.451 440.926 508.8 443.9V470.422H500.441V417.721H508.8V437.346Z" fill="#003057"/>
<path d="M559.192 440.915C558.091 440.732 556.956 440.64 555.786 440.64C551.957 440.64 549.377 442.104 548.047 445.032V470.422H539.689V433.298H547.669L547.875 437.449C549.893 434.224 552.691 432.612 556.268 432.612C557.46 432.612 558.446 432.772 559.226 433.092L559.192 440.915Z" fill="#003057"/>
<path d="M587.019 466.785C584.565 469.667 581.08 471.109 576.562 471.109C572.526 471.109 569.465 469.931 567.378 467.575C565.314 465.218 564.282 461.81 564.282 457.35V433.298H572.641V457.247C572.641 461.959 574.602 464.315 578.523 464.315C582.582 464.315 585.322 462.862 586.744 459.957V433.298H595.102V470.422H587.225L587.019 466.785Z" fill="#003057"/>
<path d="M611.372 433.298L611.613 437.587C614.365 434.27 617.976 432.612 622.448 432.612C630.199 432.612 634.143 437.038 634.281 445.89V470.422H625.922V446.37C625.922 444.014 625.406 442.276 624.374 441.155C623.365 440.011 621.703 439.439 619.387 439.439C616.016 439.439 613.505 440.961 611.854 444.003V470.422H603.495V433.298H611.372Z" fill="#003057"/>
<path d="M641.366 451.586C641.366 445.821 642.719 441.224 645.425 437.793C648.154 434.339 651.766 432.612 656.26 432.612C660.503 432.612 663.839 434.087 666.27 437.038L666.648 433.298H674.181V469.29C674.181 474.162 672.656 478.005 669.607 480.819C666.58 483.632 662.486 485.039 657.327 485.039C654.598 485.039 651.926 484.467 649.312 483.323C646.721 482.202 644.749 480.727 643.396 478.897L647.352 473.888C649.92 476.93 653.084 478.451 656.845 478.451C659.62 478.451 661.81 477.696 663.415 476.187C665.02 474.7 665.823 472.504 665.823 469.599V467.094C663.415 469.77 660.205 471.109 656.192 471.109C651.835 471.109 648.269 469.382 645.494 465.928C642.742 462.474 641.366 457.693 641.366 451.586ZM649.691 452.306C649.691 456.035 650.447 458.974 651.961 461.124C653.497 463.251 655.618 464.315 658.324 464.315C661.695 464.315 664.195 462.874 665.823 459.992V443.66C664.241 440.846 661.764 439.439 658.393 439.439C655.641 439.439 653.497 440.526 651.961 442.699C650.447 444.872 649.691 448.074 649.691 452.306Z" fill="#003057"/>
<path d="M703.66 460.335C703.66 458.848 703.041 457.716 701.802 456.938C700.587 456.16 698.557 455.474 695.714 454.879C692.87 454.285 690.497 453.53 688.594 452.615C684.42 450.602 682.333 447.686 682.333 443.866C682.333 440.663 683.686 437.987 686.392 435.837C689.098 433.687 692.538 432.612 696.711 432.612C701.16 432.612 704.749 433.709 707.478 435.905C710.23 438.101 711.605 440.949 711.605 444.449H703.247C703.247 442.848 702.651 441.521 701.458 440.469C700.266 439.394 698.684 438.856 696.711 438.856C694.877 438.856 693.375 439.279 692.205 440.126C691.059 440.972 690.486 442.104 690.486 443.522C690.486 444.803 691.024 445.798 692.102 446.508C693.18 447.217 695.359 447.937 698.638 448.669C701.917 449.378 704.485 450.236 706.343 451.242C708.223 452.226 709.61 453.415 710.505 454.811C711.422 456.206 711.881 457.899 711.881 459.889C711.881 463.228 710.493 465.939 707.719 468.021C704.944 470.079 701.309 471.109 696.815 471.109C693.765 471.109 691.047 470.56 688.663 469.462C686.278 468.364 684.42 466.854 683.09 464.933C681.76 463.011 681.095 460.941 681.095 458.722H689.213C689.328 460.689 690.073 462.211 691.449 463.286C692.825 464.338 694.648 464.864 696.918 464.864C699.119 464.864 700.793 464.452 701.94 463.629C703.086 462.782 703.66 461.684 703.66 460.335Z" fill="#003057"/>
<path d="M731.281 420.465L745.727 458.757L760.14 420.465H771.388V470.422H762.72V453.953L763.58 431.925L748.789 470.422H742.563L727.807 431.96L728.666 453.953V470.422H719.998V420.465H731.281Z" fill="#003057"/>
<path d="M797.289 471.109C791.992 471.109 787.692 469.45 784.39 466.133C781.111 462.794 779.471 458.356 779.471 452.821V451.791C779.471 448.086 780.182 444.781 781.604 441.876C783.048 438.948 785.066 436.672 787.658 435.048C790.249 433.424 793.138 432.612 796.326 432.612C801.393 432.612 805.303 434.224 808.055 437.449C810.83 440.675 812.217 445.238 812.217 451.14V454.502H787.898C788.151 457.567 789.171 459.992 790.96 461.776C792.771 463.56 795.041 464.452 797.77 464.452C801.6 464.452 804.719 462.908 807.126 459.82L811.632 464.109C810.142 466.328 808.147 468.055 805.647 469.29C803.171 470.502 800.384 471.109 797.289 471.109ZM796.291 439.302C793.998 439.302 792.141 440.103 790.719 441.704C789.32 443.305 788.426 445.535 788.036 448.395H803.962V447.777C803.778 444.986 803.033 442.882 801.726 441.464C800.419 440.023 798.607 439.302 796.291 439.302Z" fill="#003057"/>
<path d="M817.17 451.586C817.17 445.867 818.5 441.281 821.16 437.827C823.82 434.35 827.386 432.612 831.858 432.612C835.802 432.612 838.99 433.984 841.42 436.729V417.721H849.779V470.422H842.211L841.799 466.579C839.299 469.599 835.963 471.109 831.789 471.109C827.432 471.109 823.901 469.359 821.195 465.859C818.512 462.359 817.17 457.601 817.17 451.586ZM825.529 452.306C825.529 456.08 826.251 459.031 827.696 461.158C829.163 463.263 831.239 464.315 833.922 464.315C837.338 464.315 839.838 462.794 841.42 459.752V443.9C839.884 440.926 837.407 439.439 833.99 439.439C831.285 439.439 829.198 440.515 827.73 442.665C826.263 444.792 825.529 448.006 825.529 452.306Z" fill="#003057"/>
<path d="M867.39 470.422H859.032V433.298H867.39V470.422ZM858.516 423.656C858.516 422.375 858.917 421.312 859.72 420.465C860.545 419.619 861.715 419.196 863.228 419.196C864.742 419.196 865.911 419.619 866.737 420.465C867.562 421.312 867.975 422.375 867.975 423.656C867.975 424.914 867.562 425.967 866.737 426.813C865.911 427.636 864.742 428.048 863.228 428.048C861.715 428.048 860.545 427.636 859.72 426.813C858.917 425.967 858.516 424.914 858.516 423.656Z" fill="#003057"/>
<path d="M885.449 463.766H905.261V470.422H875.061V464.967L893.945 440.023H875.405V433.298H904.539V438.582L885.449 463.766Z" fill="#003057"/>
<path d="M920.843 470.422H912.485V433.298H920.843V470.422ZM911.969 423.656C911.969 422.375 912.37 421.312 913.173 420.465C913.998 419.619 915.168 419.196 916.681 419.196C918.195 419.196 919.364 419.619 920.19 420.465C921.015 421.312 921.428 422.375 921.428 423.656C921.428 424.914 921.015 425.967 920.19 426.813C919.364 427.636 918.195 428.048 916.681 428.048C915.168 428.048 913.998 427.636 913.173 426.813C912.37 425.967 911.969 424.914 911.969 423.656Z" fill="#003057"/>
<path d="M937.732 433.298L937.973 437.587C940.725 434.27 944.336 432.612 948.808 432.612C956.559 432.612 960.503 437.038 960.641 445.89V470.422H952.282V446.37C952.282 444.014 951.766 442.276 950.734 441.155C949.725 440.011 948.063 439.439 945.747 439.439C942.376 439.439 939.865 440.961 938.214 444.003V470.422H929.855V433.298H937.732Z" fill="#003057"/>
<path d="M978.08 470.422H969.722V433.298H978.08V470.422ZM969.206 423.656C969.206 422.375 969.607 421.312 970.41 420.465C971.235 419.619 972.405 419.196 973.918 419.196C975.432 419.196 976.601 419.619 977.427 420.465C978.252 421.312 978.665 422.375 978.665 423.656C978.665 424.914 978.252 425.967 977.427 426.813C976.601 427.636 975.432 428.048 973.918 428.048C972.405 428.048 971.235 427.636 970.41 426.813C969.607 425.967 969.206 424.914 969.206 423.656Z" fill="#003057"/>
<path d="M1008.07 460.335C1008.07 458.848 1007.46 457.716 1006.22 456.938C1005 456.16 1002.97 455.474 1000.13 454.879C997.285 454.285 994.912 453.53 993.008 452.615C988.835 450.602 986.748 447.686 986.748 443.866C986.748 440.663 988.101 437.987 990.807 435.837C993.513 433.687 996.953 432.612 1001.13 432.612C1005.57 432.612 1009.16 433.709 1011.89 435.905C1014.64 438.101 1016.02 440.949 1016.02 444.449H1007.66C1007.66 442.848 1007.07 441.521 1005.87 440.469C1004.68 439.394 1003.1 438.856 1001.13 438.856C999.292 438.856 997.79 439.279 996.62 440.126C995.474 440.972 994.9 442.104 994.9 443.522C994.9 444.803 995.439 445.798 996.517 446.508C997.595 447.217 999.773 447.937 1003.05 448.669C1006.33 449.378 1008.9 450.236 1010.76 451.242C1012.64 452.226 1014.03 453.415 1014.92 454.811C1015.84 456.206 1016.3 457.899 1016.3 459.889C1016.3 463.228 1014.91 465.939 1012.13 468.021C1009.36 470.079 1005.72 471.109 1001.23 471.109C998.179 471.109 995.462 470.56 993.077 469.462C990.692 468.364 988.835 466.854 987.505 464.933C986.175 463.011 985.51 460.941 985.51 458.722H993.628C993.742 460.689 994.488 462.211 995.863 463.286C997.239 464.338 999.062 464.864 1001.33 464.864C1003.53 464.864 1005.21 464.452 1006.35 463.629C1007.5 462.782 1008.07 461.684 1008.07 460.335Z" fill="#003057"/>
<path d="M1038.89 464.452C1040.98 464.452 1042.71 463.846 1044.09 462.634C1045.46 461.421 1046.2 459.923 1046.29 458.139H1054.17C1054.07 460.449 1053.35 462.611 1052 464.624C1050.65 466.614 1048.81 468.192 1046.5 469.359C1044.18 470.525 1041.68 471.109 1039 471.109C1033.79 471.109 1029.66 469.427 1026.61 466.065C1023.56 462.702 1022.04 458.059 1022.04 452.135V451.277C1022.04 445.627 1023.55 441.109 1026.58 437.724C1029.61 434.316 1033.73 432.612 1038.96 432.612C1043.39 432.612 1046.99 433.904 1049.76 436.489C1052.56 439.051 1054.03 442.425 1054.17 446.61H1046.29C1046.2 444.483 1045.46 442.733 1044.09 441.361C1042.74 439.988 1041 439.302 1038.89 439.302C1036.19 439.302 1034.1 440.286 1032.63 442.253C1031.17 444.197 1030.42 447.159 1030.4 451.14V452.478C1030.4 456.503 1031.12 459.511 1032.57 461.501C1034.03 463.469 1036.14 464.452 1038.89 464.452Z" fill="#003057"/>
<path d="M1068.72 437.346C1071.45 434.19 1074.9 432.612 1079.07 432.612C1087 432.612 1091.03 437.129 1091.14 446.164V470.422H1082.78V446.473C1082.78 443.911 1082.22 442.104 1081.1 441.052C1080 439.977 1078.37 439.439 1076.22 439.439C1072.87 439.439 1070.37 440.926 1068.72 443.9V470.422H1060.36V417.721H1068.72V437.346Z" fill="#003057"/>
<path d="M1116.01 471.109C1110.72 471.109 1106.42 469.45 1103.11 466.133C1099.83 462.794 1098.19 458.356 1098.19 452.821V451.791C1098.19 448.086 1098.91 444.781 1100.33 441.876C1101.77 438.948 1103.79 436.672 1106.38 435.048C1108.97 433.424 1111.86 432.612 1115.05 432.612C1120.12 432.612 1124.03 434.224 1126.78 437.449C1129.55 440.675 1130.94 445.238 1130.94 451.14V454.502H1106.62C1106.87 457.567 1107.89 459.992 1109.68 461.776C1111.5 463.56 1113.77 464.452 1116.49 464.452C1120.32 464.452 1123.44 462.908 1125.85 459.82L1130.36 464.109C1128.87 466.328 1126.87 468.055 1124.37 469.29C1121.89 470.502 1119.11 471.109 1116.01 471.109ZM1115.02 439.302C1112.72 439.302 1110.86 440.103 1109.44 441.704C1108.04 443.305 1107.15 445.535 1106.76 448.395H1122.69V447.777C1122.5 444.986 1121.76 442.882 1120.45 441.464C1119.14 440.023 1117.33 439.302 1115.02 439.302Z" fill="#003057"/>
<path d="M1174.21 451.174H1164.51V470.422H1155.81V420.465H1173.42C1179.2 420.465 1183.66 421.758 1186.8 424.343C1189.94 426.927 1191.51 430.667 1191.51 435.562C1191.51 438.902 1190.7 441.704 1189.07 443.968C1187.47 446.21 1185.22 447.937 1182.33 449.149L1193.58 469.976V470.422H1184.26L1174.21 451.174ZM1164.51 444.209H1173.46C1176.39 444.209 1178.68 443.477 1180.34 442.013C1181.99 440.526 1182.81 438.502 1182.81 435.94C1182.81 433.263 1182.04 431.193 1180.51 429.729C1178.99 428.265 1176.72 427.511 1173.7 427.465H1164.51V444.209Z" fill="#003057"/>
<path d="M1215.35 471.109C1210.05 471.109 1205.75 469.45 1202.45 466.133C1199.17 462.794 1197.53 458.356 1197.53 452.821V451.791C1197.53 448.086 1198.24 444.781 1199.67 441.876C1201.11 438.948 1203.13 436.672 1205.72 435.048C1208.31 433.424 1211.2 432.612 1214.39 432.612C1219.46 432.612 1223.37 434.224 1226.12 437.449C1228.89 440.675 1230.28 445.238 1230.28 451.14V454.502H1205.96C1206.21 457.567 1207.23 459.992 1209.02 461.776C1210.83 463.56 1213.1 464.452 1215.83 464.452C1219.66 464.452 1222.78 462.908 1225.19 459.82L1229.7 464.109C1228.2 466.328 1226.21 468.055 1223.71 469.29C1221.23 470.502 1218.45 471.109 1215.35 471.109ZM1214.35 439.302C1212.06 439.302 1210.2 440.103 1208.78 441.704C1207.38 443.305 1206.49 445.535 1206.1 448.395H1222.02V447.777C1221.84 444.986 1221.1 442.882 1219.79 441.464C1218.48 440.023 1216.67 439.302 1214.35 439.302Z" fill="#003057"/>
<path d="M1235.34 451.586C1235.34 445.821 1236.69 441.224 1239.4 437.793C1242.12 434.339 1245.74 432.612 1250.23 432.612C1254.47 432.612 1257.81 434.087 1260.24 437.038L1260.62 433.298H1268.15V469.29C1268.15 474.162 1266.63 478.005 1263.58 480.819C1260.55 483.632 1256.46 485.039 1251.3 485.039C1248.57 485.039 1245.9 484.467 1243.28 483.323C1240.69 482.202 1238.72 480.727 1237.37 478.897L1241.32 473.888C1243.89 476.93 1247.05 478.451 1250.82 478.451C1253.59 478.451 1255.78 477.696 1257.38 476.187C1258.99 474.7 1259.79 472.504 1259.79 469.599V467.094C1257.38 469.77 1254.17 471.109 1250.16 471.109C1245.8 471.109 1242.24 469.382 1239.46 465.928C1236.71 462.474 1235.34 457.693 1235.34 451.586ZM1243.66 452.306C1243.66 456.035 1244.42 458.974 1245.93 461.124C1247.47 463.251 1249.59 464.315 1252.29 464.315C1255.67 464.315 1258.16 462.874 1259.79 459.992V443.66C1258.21 440.846 1255.73 439.439 1252.36 439.439C1249.61 439.439 1247.47 440.526 1245.93 442.699C1244.42 444.872 1243.66 448.074 1243.66 452.306Z" fill="#003057"/>
<path d="M1285.66 470.422H1277.3V433.298H1285.66V470.422ZM1276.78 423.656C1276.78 422.375 1277.19 421.312 1277.99 420.465C1278.81 419.619 1279.98 419.196 1281.5 419.196C1283.01 419.196 1284.18 419.619 1285.01 420.465C1285.83 421.312 1286.24 422.375 1286.24 423.656C1286.24 424.914 1285.83 425.967 1285.01 426.813C1284.18 427.636 1283.01 428.048 1281.5 428.048C1279.98 428.048 1278.81 427.636 1277.99 426.813C1277.19 425.967 1276.78 424.914 1276.78 423.656Z" fill="#003057"/>
<path d="M1315.65 460.335C1315.65 458.848 1315.03 457.716 1313.8 456.938C1312.58 456.16 1310.55 455.474 1307.71 454.879C1304.86 454.285 1302.49 453.53 1300.59 452.615C1296.41 450.602 1294.33 447.686 1294.33 443.866C1294.33 440.663 1295.68 437.987 1298.39 435.837C1301.09 433.687 1304.53 432.612 1308.71 432.612C1313.15 432.612 1316.74 433.709 1319.47 435.905C1322.22 438.101 1323.6 440.949 1323.6 444.449H1315.24C1315.24 442.848 1314.64 441.521 1313.45 440.469C1312.26 439.394 1310.68 438.856 1308.71 438.856C1306.87 438.856 1305.37 439.279 1304.2 440.126C1303.05 440.972 1302.48 442.104 1302.48 443.522C1302.48 444.803 1303.02 445.798 1304.1 446.508C1305.17 447.217 1307.35 447.937 1310.63 448.669C1313.91 449.378 1316.48 450.236 1318.34 451.242C1320.22 452.226 1321.6 453.415 1322.5 454.811C1323.42 456.206 1323.87 457.899 1323.87 459.889C1323.87 463.228 1322.49 465.939 1319.71 468.021C1316.94 470.079 1313.3 471.109 1308.81 471.109C1305.76 471.109 1303.04 470.56 1300.66 469.462C1298.27 468.364 1296.41 466.854 1295.08 464.933C1293.75 463.011 1293.09 460.941 1293.09 458.722H1301.21C1301.32 460.689 1302.07 462.211 1303.44 463.286C1304.82 464.338 1306.64 464.864 1308.91 464.864C1311.11 464.864 1312.79 464.452 1313.93 463.629C1315.08 462.782 1315.65 461.684 1315.65 460.335Z" fill="#003057"/>
<path d="M1341.66 424.274V433.298H1348.23V439.474H1341.66V460.198C1341.66 461.616 1341.93 462.645 1342.48 463.286C1343.06 463.903 1344.07 464.212 1345.51 464.212C1346.47 464.212 1347.45 464.098 1348.43 463.869V470.319C1346.53 470.846 1344.7 471.109 1342.93 471.109C1336.51 471.109 1333.3 467.575 1333.3 460.506V439.474H1327.18V433.298H1333.3V424.274H1341.66Z" fill="#003057"/>
<path d="M1371.03 471.109C1365.74 471.109 1361.44 469.45 1358.13 466.133C1354.85 462.794 1353.22 458.356 1353.22 452.821V451.791C1353.22 448.086 1353.93 444.781 1355.35 441.876C1356.79 438.948 1358.81 436.672 1361.4 435.048C1363.99 433.424 1366.88 432.612 1370.07 432.612C1375.14 432.612 1379.05 434.224 1381.8 437.449C1384.57 440.675 1385.96 445.238 1385.96 451.14V454.502H1361.64C1361.89 457.567 1362.92 459.992 1364.7 461.776C1366.52 463.56 1368.79 464.452 1371.51 464.452C1375.34 464.452 1378.46 462.908 1380.87 459.82L1385.38 464.109C1383.89 466.328 1381.89 468.055 1379.39 469.29C1376.91 470.502 1374.13 471.109 1371.03 471.109ZM1370.04 439.302C1367.74 439.302 1365.88 440.103 1364.46 441.704C1363.06 443.305 1362.17 445.535 1361.78 448.395H1377.71V447.777C1377.52 444.986 1376.78 442.882 1375.47 441.464C1374.16 440.023 1372.35 439.302 1370.04 439.302Z" fill="#003057"/>
<path d="M1411.97 440.915C1410.86 440.732 1409.73 440.64 1408.56 440.64C1404.73 440.64 1402.15 442.104 1400.82 445.032V470.422H1392.46V433.298H1400.44L1400.65 437.449C1402.67 434.224 1405.46 432.612 1409.04 432.612C1410.23 432.612 1411.22 432.772 1412 433.092L1411.97 440.915Z" fill="#003057"/>
<path d="M391.402 533.154H381.702V552.403H373V502.446H390.611C396.39 502.446 400.85 503.738 403.992 506.323C407.133 508.908 408.704 512.648 408.704 517.543C408.704 520.882 407.89 523.685 406.262 525.949C404.657 528.191 402.41 529.918 399.52 531.13L410.768 551.957V552.403H401.446L391.402 533.154ZM381.702 526.189H390.646C393.581 526.189 395.874 525.457 397.525 523.993C399.176 522.507 400.002 520.482 400.002 517.92C400.002 515.244 399.234 513.174 397.697 511.71C396.184 510.246 393.913 509.491 390.887 509.445H381.702V526.189Z" fill="#003057"/>
<path d="M432.541 553.089C427.244 553.089 422.945 551.431 419.643 548.114C416.363 544.774 414.724 540.337 414.724 534.801V533.772C414.724 530.066 415.435 526.761 416.856 523.856C418.301 520.928 420.319 518.652 422.91 517.028C425.502 515.404 428.391 514.592 431.578 514.592C436.646 514.592 440.556 516.205 443.308 519.43C446.082 522.655 447.47 527.219 447.47 533.12V536.483H423.151C423.403 539.548 424.424 541.972 426.212 543.757C428.024 545.541 430.294 546.433 433.023 546.433C436.853 546.433 439.971 544.889 442.379 541.801L446.885 546.09C445.395 548.308 443.399 550.035 440.9 551.271C438.423 552.483 435.637 553.089 432.541 553.089ZM431.544 521.283C429.251 521.283 427.393 522.083 425.972 523.685C424.573 525.286 423.678 527.516 423.289 530.375H439.214V529.758C439.031 526.967 438.286 524.863 436.979 523.444C435.672 522.003 433.86 521.283 431.544 521.283Z" fill="#003057"/>
<path d="M452.526 533.566C452.526 527.802 453.879 523.204 456.585 519.773C459.314 516.319 462.926 514.592 467.42 514.592C471.662 514.592 474.999 516.067 477.43 519.018L477.808 515.278H485.341V551.271C485.341 556.143 483.816 559.986 480.766 562.799C477.739 565.613 473.646 567.019 468.486 567.019C465.758 567.019 463.086 566.448 460.472 565.304C457.881 564.183 455.909 562.708 454.556 560.878L458.511 555.868C461.08 558.911 464.244 560.432 468.005 560.432C470.78 560.432 472.97 559.677 474.575 558.167C476.18 556.68 476.983 554.484 476.983 551.579V549.075C474.575 551.751 471.364 553.089 467.351 553.089C462.994 553.089 459.429 551.362 456.654 547.908C453.902 544.454 452.526 539.673 452.526 533.566ZM460.85 534.287C460.85 538.015 461.607 540.954 463.121 543.105C464.657 545.232 466.778 546.296 469.484 546.296C472.855 546.296 475.354 544.854 476.983 541.972V525.64C475.4 522.827 472.924 521.42 469.553 521.42C466.801 521.42 464.657 522.507 463.121 524.68C461.607 526.853 460.85 530.055 460.85 534.287Z" fill="#003057"/>
<path d="M502.849 552.403H494.491V515.278H502.849V552.403ZM493.975 505.637C493.975 504.356 494.376 503.292 495.179 502.446C496.004 501.6 497.174 501.176 498.687 501.176C500.201 501.176 501.37 501.6 502.196 502.446C503.021 503.292 503.434 504.356 503.434 505.637C503.434 506.895 503.021 507.947 502.196 508.794C501.37 509.617 500.201 510.029 498.687 510.029C497.174 510.029 496.004 509.617 495.179 508.794C494.376 507.947 493.975 506.895 493.975 505.637Z" fill="#003057"/>
<path d="M532.844 542.315C532.844 540.829 532.224 539.696 530.986 538.919C529.771 538.141 527.741 537.455 524.898 536.86C522.054 536.265 519.681 535.51 517.778 534.595C513.604 532.583 511.517 529.666 511.517 525.846C511.517 522.644 512.87 519.968 515.576 517.817C518.282 515.667 521.722 514.592 525.895 514.592C530.344 514.592 533.933 515.69 536.662 517.886C539.413 520.082 540.789 522.93 540.789 526.429H532.431C532.431 524.828 531.835 523.502 530.642 522.449C529.45 521.374 527.867 520.837 525.895 520.837C524.061 520.837 522.559 521.26 521.389 522.106C520.243 522.953 519.669 524.085 519.669 525.503C519.669 526.784 520.208 527.779 521.286 528.488C522.364 529.197 524.542 529.918 527.822 530.65C531.101 531.359 533.669 532.217 535.526 533.223C537.407 534.207 538.794 535.396 539.689 536.791C540.606 538.187 541.064 539.879 541.064 541.869C541.064 545.209 539.677 547.92 536.902 550.001C534.128 552.06 530.493 553.089 525.998 553.089C522.949 553.089 520.231 552.54 517.846 551.442C515.461 550.344 513.604 548.835 512.274 546.913C510.944 544.992 510.279 542.922 510.279 540.703H518.397C518.511 542.67 519.257 544.191 520.633 545.266C522.008 546.318 523.831 546.845 526.102 546.845C528.303 546.845 529.977 546.433 531.124 545.609C532.27 544.763 532.844 543.665 532.844 542.315Z" fill="#003057"/>
<path d="M558.848 506.255V515.278H565.418V521.454H558.848V542.178C558.848 543.596 559.123 544.626 559.673 545.266C560.247 545.884 561.256 546.193 562.7 546.193C563.663 546.193 564.638 546.078 565.624 545.849V552.3C563.721 552.826 561.886 553.089 560.12 553.089C553.7 553.089 550.489 549.555 550.489 542.487V521.454H544.367V515.278H550.489V506.255H558.848Z" fill="#003057"/>
<path d="M591.319 522.895C590.218 522.712 589.083 522.621 587.913 522.621C584.084 522.621 581.504 524.085 580.174 527.013V552.403H571.815V515.278H579.796L580.002 519.43C582.02 516.205 584.818 514.592 588.395 514.592C589.587 514.592 590.573 514.752 591.353 515.072L591.319 522.895Z" fill="#003057"/>
<path d="M612.301 553.089C607.004 553.089 602.704 551.431 599.402 548.114C596.123 544.774 594.483 540.337 594.483 534.801V533.772C594.483 530.066 595.194 526.761 596.616 523.856C598.06 520.928 600.078 518.652 602.67 517.028C605.261 515.404 608.15 514.592 611.338 514.592C616.406 514.592 620.315 516.205 623.067 519.43C625.842 522.655 627.229 527.219 627.229 533.12V536.483H602.91C603.163 539.548 604.183 541.972 605.972 543.757C607.783 545.541 610.054 546.433 612.782 546.433C616.612 546.433 619.731 544.889 622.138 541.801L626.645 546.09C625.154 548.308 623.159 550.035 620.659 551.271C618.183 552.483 615.397 553.089 612.301 553.089ZM611.303 521.283C609.01 521.283 607.153 522.083 605.731 523.685C604.332 525.286 603.438 527.516 603.048 530.375H618.974V529.758C618.79 526.967 618.045 524.863 616.738 523.444C615.431 522.003 613.619 521.283 611.303 521.283Z" fill="#003057"/>
<path d="M649.725 533.566C649.725 527.848 651.055 523.261 653.715 519.807C656.375 516.331 659.941 514.592 664.413 514.592C668.357 514.592 671.544 515.965 673.975 518.709V499.701H682.333V552.403H674.766L674.353 548.56C671.854 551.579 668.517 553.089 664.344 553.089C659.987 553.089 656.455 551.339 653.749 547.84C651.066 544.34 649.725 539.582 649.725 533.566ZM658.083 534.287C658.083 538.061 658.806 541.012 660.251 543.139C661.718 545.243 663.793 546.296 666.476 546.296C669.893 546.296 672.393 544.774 673.975 541.732V525.88C672.439 522.907 669.962 521.42 666.545 521.42C663.839 521.42 661.753 522.495 660.285 524.645C658.817 526.773 658.083 529.986 658.083 534.287Z" fill="#003057"/>
<path d="M707.443 553.089C702.146 553.089 697.847 551.431 694.544 548.114C691.265 544.774 689.626 540.337 689.626 534.801V533.772C689.626 530.066 690.337 526.761 691.758 523.856C693.203 520.928 695.221 518.652 697.812 517.028C700.403 515.404 703.293 514.592 706.48 514.592C711.548 514.592 715.458 516.205 718.21 519.43C720.984 522.655 722.372 527.219 722.372 533.12V536.483H698.053C698.305 539.548 699.326 541.972 701.114 543.757C702.926 545.541 705.196 546.433 707.925 546.433C711.755 546.433 714.873 544.889 717.281 541.801L721.787 546.09C720.296 548.308 718.301 550.035 715.802 551.271C713.325 552.483 710.539 553.089 707.443 553.089ZM706.446 521.283C704.153 521.283 702.295 522.083 700.874 523.685C699.475 525.286 698.58 527.516 698.191 530.375H714.116V529.758C713.933 526.967 713.188 524.863 711.881 523.444C710.574 522.003 708.762 521.283 706.446 521.283Z" fill="#003057"/>
<path d="M758.523 502.446L772.97 540.737L787.382 502.446H798.63V552.403H789.962V535.934L790.822 513.906L776.031 552.403H769.805L755.049 513.94L755.909 535.934V552.403H747.241V502.446H758.523Z" fill="#003057"/>
<path d="M824.531 553.089C819.234 553.089 814.934 551.431 811.632 548.114C808.353 544.774 806.714 540.337 806.714 534.801V533.772C806.714 530.066 807.424 526.761 808.846 523.856C810.291 520.928 812.309 518.652 814.9 517.028C817.491 515.404 820.381 514.592 823.568 514.592C828.636 514.592 832.546 516.205 835.298 519.43C838.072 522.655 839.46 527.219 839.46 533.12V536.483H815.141C815.393 539.548 816.414 541.972 818.202 543.757C820.014 545.541 822.284 546.433 825.013 546.433C828.842 546.433 831.961 544.889 834.369 541.801L838.875 546.09C837.384 548.308 835.389 550.035 832.89 551.271C830.413 552.483 827.627 553.089 824.531 553.089ZM823.534 521.283C821.241 521.283 819.383 522.083 817.961 523.685C816.563 525.286 815.668 527.516 815.278 530.375H831.204V529.758C831.021 526.967 830.276 524.863 828.968 523.444C827.661 522.003 825.85 521.283 823.534 521.283ZM825.426 499.701H834.954L825.426 510.097H818.718L825.426 499.701Z" fill="#003057"/>
<path d="M844.413 533.566C844.413 527.848 845.743 523.261 848.403 519.807C851.063 516.331 854.629 514.592 859.1 514.592C863.045 514.592 866.232 515.965 868.663 518.709V499.701H877.021V552.403H869.454L869.041 548.56C866.542 551.579 863.205 553.089 859.032 553.089C854.675 553.089 851.143 551.339 848.437 547.84C845.754 544.34 844.413 539.582 844.413 533.566ZM852.771 534.287C852.771 538.061 853.494 541.012 854.938 543.139C856.406 545.243 858.481 546.296 861.164 546.296C864.581 546.296 867.081 544.774 868.663 541.732V525.88C867.126 522.907 864.65 521.42 861.233 521.42C858.527 521.42 856.44 522.495 854.973 524.645C853.505 526.773 852.771 529.986 852.771 534.287Z" fill="#003057"/>
<path d="M902.131 553.089C896.834 553.089 892.534 551.431 889.232 548.114C885.953 544.774 884.313 540.337 884.313 534.801V533.772C884.313 530.066 885.024 526.761 886.446 523.856C887.891 520.928 889.909 518.652 892.5 517.028C895.091 515.404 897.981 514.592 901.168 514.592C906.236 514.592 910.146 516.205 912.898 519.43C915.672 522.655 917.06 527.219 917.06 533.12V536.483H892.741C892.993 539.548 894.013 541.972 895.802 543.757C897.614 545.541 899.884 546.433 902.613 546.433C906.442 546.433 909.561 544.889 911.969 541.801L916.475 546.09C914.984 548.308 912.989 550.035 910.49 551.271C908.013 552.483 905.227 553.089 902.131 553.089ZM901.134 521.283C898.841 521.283 896.983 522.083 895.561 523.685C894.163 525.286 893.268 527.516 892.878 530.375H908.804V529.758C908.621 526.967 907.876 524.863 906.568 523.444C905.261 522.003 903.45 521.283 901.134 521.283Z" fill="#003057"/>
<path d="M938.867 546.433C940.954 546.433 942.685 545.827 944.061 544.614C945.437 543.402 946.171 541.904 946.263 540.12H954.14C954.048 542.43 953.326 544.591 951.973 546.604C950.62 548.594 948.785 550.173 946.469 551.339C944.153 552.506 941.654 553.089 938.971 553.089C933.765 553.089 929.637 551.408 926.588 548.045C923.538 544.683 922.013 540.039 922.013 534.115V533.257C922.013 527.607 923.526 523.09 926.553 519.704C929.58 516.296 933.708 514.592 938.936 514.592C943.362 514.592 946.962 515.884 949.737 518.469C952.534 521.031 954.002 524.405 954.14 528.591H946.263C946.171 526.464 945.437 524.714 944.061 523.341C942.708 521.969 940.977 521.283 938.867 521.283C936.161 521.283 934.075 522.266 932.607 524.234C931.139 526.178 930.394 529.14 930.371 533.12V534.458C930.371 538.484 931.094 541.492 932.538 543.482C934.006 545.449 936.116 546.433 938.867 546.433Z" fill="#003057"/>
<path d="M969.343 552.403H960.985V515.278H969.343V552.403ZM960.469 505.637C960.469 504.356 960.87 503.292 961.673 502.446C962.498 501.6 963.668 501.176 965.181 501.176C966.695 501.176 967.864 501.6 968.69 502.446C969.515 503.292 969.928 504.356 969.928 505.637C969.928 506.895 969.515 507.947 968.69 508.794C967.864 509.617 966.695 510.029 965.181 510.029C963.668 510.029 962.498 509.617 961.673 508.794C960.87 507.947 960.469 506.895 960.469 505.637Z" fill="#003057"/>
<path d="M986.232 515.278L986.473 519.567C989.225 516.25 992.836 514.592 997.308 514.592C1005.06 514.592 1009 519.018 1009.14 527.87V552.403H1000.78V528.351C1000.78 525.995 1000.27 524.256 999.234 523.136C998.225 521.992 996.563 521.42 994.247 521.42C990.876 521.42 988.365 522.941 986.714 525.983V552.403H978.355V515.278H986.232Z" fill="#003057"/>
<path d="M1034.08 553.089C1028.78 553.089 1024.48 551.431 1021.18 548.114C1017.9 544.774 1016.26 540.337 1016.26 534.801V533.772C1016.26 530.066 1016.97 526.761 1018.39 523.856C1019.84 520.928 1021.86 518.652 1024.45 517.028C1027.04 515.404 1029.93 514.592 1033.12 514.592C1038.18 514.592 1042.09 516.205 1044.84 519.43C1047.62 522.655 1049.01 527.219 1049.01 533.12V536.483H1024.69C1024.94 539.548 1025.96 541.972 1027.75 543.757C1029.56 545.541 1031.83 546.433 1034.56 546.433C1038.39 546.433 1041.51 544.889 1043.92 541.801L1048.42 546.09C1046.93 548.308 1044.94 550.035 1042.44 551.271C1039.96 552.483 1037.17 553.089 1034.08 553.089ZM1033.08 521.283C1030.79 521.283 1028.93 522.083 1027.51 523.685C1026.11 525.286 1025.22 527.516 1024.83 530.375H1040.75V529.758C1040.57 526.967 1039.82 524.863 1038.52 523.444C1037.21 522.003 1035.4 521.283 1033.08 521.283Z" fill="#003057"/>
<path d="M1103.15 530.101H1082.58V545.472H1106.62V552.403H1073.88V502.446H1106.38V509.445H1082.58V523.238H1103.15V530.101Z" fill="#003057"/>
<path d="M1120.76 515.278L1121 519.155C1123.61 516.113 1127.19 514.592 1131.73 514.592C1136.71 514.592 1140.11 516.491 1141.95 520.288C1144.65 516.491 1148.46 514.592 1153.37 514.592C1157.47 514.592 1160.52 515.724 1162.52 517.989C1164.54 520.253 1165.57 523.593 1165.61 528.008V552.403H1157.25V528.248C1157.25 525.892 1156.74 524.165 1155.71 523.067C1154.68 521.969 1152.97 521.42 1150.58 521.42C1148.68 521.42 1147.12 521.935 1145.9 522.964C1144.71 523.97 1143.87 525.297 1143.39 526.944L1143.43 552.403H1135.07V527.973C1134.95 523.604 1132.72 521.42 1128.36 521.42C1125.01 521.42 1122.64 522.781 1121.24 525.503V552.403H1112.88V515.278H1120.76Z" fill="#003057"/>
<path d="M1206.79 534.218C1206.79 539.959 1205.48 544.546 1202.87 547.977C1200.25 551.385 1196.74 553.089 1192.34 553.089C1188.26 553.089 1184.99 551.751 1182.54 549.075V566.676H1174.18V515.278H1181.88L1182.23 519.053C1184.68 516.079 1188.02 514.592 1192.24 514.592C1196.78 514.592 1200.33 516.285 1202.9 519.67C1205.49 523.033 1206.79 527.71 1206.79 533.703V534.218ZM1198.46 533.498C1198.46 529.792 1197.72 526.853 1196.23 524.68C1194.76 522.507 1192.65 521.42 1189.9 521.42C1186.48 521.42 1184.03 522.827 1182.54 525.64V542.11C1184.05 544.992 1186.53 546.433 1189.97 546.433C1192.63 546.433 1194.7 545.369 1196.19 543.242C1197.71 541.092 1198.46 537.844 1198.46 533.498Z" fill="#003057"/>
<path d="M1222.78 552.403H1214.42V515.278H1222.78V552.403ZM1213.91 505.637C1213.91 504.356 1214.31 503.292 1215.11 502.446C1215.94 501.6 1217.11 501.176 1218.62 501.176C1220.13 501.176 1221.3 501.6 1222.13 502.446C1222.95 503.292 1223.37 504.356 1223.37 505.637C1223.37 506.895 1222.95 507.947 1222.13 508.794C1221.3 509.617 1220.13 510.029 1218.62 510.029C1217.11 510.029 1215.94 509.617 1215.11 508.794C1214.31 507.947 1213.91 506.895 1213.91 505.637Z" fill="#003057"/>
<path d="M1251.4 522.895C1250.3 522.712 1249.16 522.621 1247.99 522.621C1244.16 522.621 1241.59 524.085 1240.26 527.013V552.403H1231.9V515.278H1239.88L1240.08 519.43C1242.1 516.205 1244.9 514.592 1248.48 514.592C1249.67 514.592 1250.65 514.752 1251.43 515.072L1251.4 522.895Z" fill="#003057"/>
<path d="M1265.57 552.403H1257.21V515.278H1265.57V552.403ZM1256.7 505.637C1256.7 504.356 1257.1 503.292 1257.9 502.446C1258.73 501.6 1259.9 501.176 1261.41 501.176C1262.92 501.176 1264.09 501.6 1264.92 502.446C1265.74 503.292 1266.16 504.356 1266.16 505.637C1266.16 506.895 1265.74 507.947 1264.92 508.794C1264.09 509.617 1262.92 510.029 1261.41 510.029C1259.9 510.029 1258.73 509.617 1257.9 508.794C1257.1 507.947 1256.7 506.895 1256.7 505.637Z" fill="#003057"/>
<path d="M1273.14 533.532C1273.14 527.722 1274.47 523.113 1277.13 519.704C1279.79 516.296 1283.39 514.592 1287.93 514.592C1292.08 514.592 1295.37 516.045 1297.8 518.95L1298.28 515.278H1305.71V566.676H1297.35V549.246C1294.92 551.808 1291.76 553.089 1287.86 553.089C1283.41 553.089 1279.85 551.362 1277.16 547.908C1274.48 544.431 1273.14 539.639 1273.14 533.532ZM1281.5 534.252C1281.5 538.049 1282.24 541.035 1283.73 543.208C1285.25 545.358 1287.33 546.433 1289.99 546.433C1293.3 546.433 1295.75 545.026 1297.35 542.213V525.331C1295.75 522.632 1293.32 521.283 1290.06 521.283C1287.4 521.283 1285.3 522.346 1283.77 524.474C1282.25 526.601 1281.5 529.861 1281.5 534.252Z" fill="#003057"/>
<path d="M1337.29 548.766C1334.84 551.648 1331.35 553.089 1326.83 553.089C1322.8 553.089 1319.74 551.911 1317.65 549.555C1315.58 547.199 1314.55 543.791 1314.55 539.33V515.278H1322.91V539.227C1322.91 543.94 1324.87 546.296 1328.79 546.296C1332.85 546.296 1335.59 544.843 1337.01 541.938V515.278H1345.37V552.403H1337.5L1337.29 548.766Z" fill="#003057"/>
<path d="M1370.28 553.089C1364.98 553.089 1360.68 551.431 1357.38 548.114C1354.1 544.774 1352.46 540.337 1352.46 534.801V533.772C1352.46 530.066 1353.17 526.761 1354.59 523.856C1356.04 520.928 1358.05 518.652 1360.65 517.028C1363.24 515.404 1366.13 514.592 1369.31 514.592C1374.38 514.592 1378.29 516.205 1381.04 519.43C1383.82 522.655 1385.2 527.219 1385.2 533.12V536.483H1360.89C1361.14 539.548 1362.16 541.972 1363.95 543.757C1365.76 545.541 1368.03 546.433 1370.76 546.433C1374.59 546.433 1377.71 544.889 1380.11 541.801L1384.62 546.09C1383.13 548.308 1381.13 550.035 1378.63 551.271C1376.16 552.483 1373.37 553.089 1370.28 553.089ZM1369.28 521.283C1366.99 521.283 1365.13 522.083 1363.71 523.685C1362.31 525.286 1361.41 527.516 1361.02 530.375H1376.95V529.758C1376.77 526.967 1376.02 524.863 1374.71 523.444C1373.41 522.003 1371.59 521.283 1369.28 521.283Z" fill="#003057"/>
<path d="M391.402 615.135H381.702V634.383H373V584.427H390.611C396.39 584.427 400.85 585.719 403.992 588.304C407.133 590.888 408.704 594.628 408.704 599.523C408.704 602.863 407.89 605.665 406.262 607.93C404.657 610.171 402.41 611.898 399.52 613.111L410.768 633.937V634.383H401.446L391.402 615.135ZM381.702 608.17H390.646C393.581 608.17 395.874 607.438 397.525 605.974C399.176 604.487 400.002 602.463 400.002 599.901C400.002 597.225 399.234 595.154 397.697 593.691C396.184 592.227 393.913 591.472 390.887 591.426H381.702V608.17Z" fill="#003057"/>
<path d="M432.541 635.07C427.244 635.07 422.945 633.411 419.643 630.095C416.363 626.755 414.724 622.317 414.724 616.782V615.753C414.724 612.047 415.435 608.742 416.856 605.837C418.301 602.909 420.319 600.633 422.91 599.009C425.502 597.385 428.391 596.573 431.578 596.573C436.646 596.573 440.556 598.185 443.308 601.411C446.082 604.636 447.47 609.199 447.47 615.101V618.463H423.151C423.403 621.528 424.424 623.953 426.212 625.737C428.024 627.521 430.294 628.413 433.023 628.413C436.853 628.413 439.971 626.869 442.379 623.781L446.885 628.07C445.395 630.289 443.399 632.016 440.9 633.251C438.423 634.464 435.637 635.07 432.541 635.07ZM431.544 603.263C429.251 603.263 427.393 604.064 425.972 605.665C424.573 607.266 423.678 609.497 423.289 612.356H439.214V611.738C439.031 608.948 438.286 606.843 436.979 605.425C435.672 603.984 433.86 603.263 431.544 603.263Z" fill="#003057"/>
<path d="M452.526 615.547C452.526 609.782 453.879 605.185 456.585 601.754C459.314 598.3 462.926 596.573 467.42 596.573C471.662 596.573 474.999 598.048 477.43 600.999L477.808 597.259H485.341V633.251C485.341 638.123 483.816 641.966 480.766 644.78C477.739 647.593 473.646 649 468.486 649C465.758 649 463.086 648.428 460.472 647.284C457.881 646.164 455.909 644.688 454.556 642.858L458.511 637.849C461.08 640.891 464.244 642.412 468.005 642.412C470.78 642.412 472.97 641.657 474.575 640.148C476.18 638.661 476.983 636.465 476.983 633.56V631.055C474.575 633.732 471.364 635.07 467.351 635.07C462.994 635.07 459.429 633.343 456.654 629.889C453.902 626.435 452.526 621.654 452.526 615.547ZM460.85 616.267C460.85 619.996 461.607 622.935 463.121 625.085C464.657 627.212 466.778 628.276 469.484 628.276C472.855 628.276 475.354 626.835 476.983 623.953V607.621C475.4 604.807 472.924 603.401 469.553 603.401C466.801 603.401 464.657 604.487 463.121 606.66C461.607 608.833 460.85 612.036 460.85 616.267Z" fill="#003057"/>
<path d="M502.849 634.383H494.491V597.259H502.849V634.383ZM493.975 587.617C493.975 586.337 494.376 585.273 495.179 584.427C496.004 583.58 497.174 583.157 498.687 583.157C500.201 583.157 501.37 583.58 502.196 584.427C503.021 585.273 503.434 586.337 503.434 587.617C503.434 588.876 503.021 589.928 502.196 590.774C501.37 591.598 500.201 592.009 498.687 592.009C497.174 592.009 496.004 591.598 495.179 590.774C494.376 589.928 493.975 588.876 493.975 587.617Z" fill="#003057"/>
<path d="M532.844 624.296C532.844 622.809 532.224 621.677 530.986 620.899C529.771 620.122 527.741 619.435 524.898 618.841C522.054 618.246 519.681 617.491 517.778 616.576C513.604 614.563 511.517 611.647 511.517 607.827C511.517 604.624 512.87 601.948 515.576 599.798C518.282 597.648 521.722 596.573 525.895 596.573C530.344 596.573 533.933 597.671 536.662 599.867C539.413 602.062 540.789 604.91 540.789 608.41H532.431C532.431 606.809 531.835 605.482 530.642 604.43C529.45 603.355 527.867 602.817 525.895 602.817C524.061 602.817 522.559 603.24 521.389 604.087C520.243 604.933 519.669 606.065 519.669 607.484C519.669 608.765 520.208 609.76 521.286 610.469C522.364 611.178 524.542 611.898 527.822 612.63C531.101 613.339 533.669 614.197 535.526 615.204C537.407 616.187 538.794 617.377 539.689 618.772C540.606 620.167 541.064 621.86 541.064 623.85C541.064 627.19 539.677 629.9 536.902 631.982C534.128 634.04 530.493 635.07 525.998 635.07C522.949 635.07 520.231 634.521 517.846 633.423C515.461 632.325 513.604 630.815 512.274 628.894C510.944 626.972 510.279 624.902 510.279 622.683H518.397C518.511 624.651 519.257 626.172 520.633 627.247C522.008 628.299 523.831 628.825 526.102 628.825C528.303 628.825 529.977 628.413 531.124 627.59C532.27 626.744 532.844 625.646 532.844 624.296Z" fill="#003057"/>
<path d="M558.848 588.235V597.259H565.418V603.435H558.848V624.159C558.848 625.577 559.123 626.606 559.673 627.247C560.247 627.864 561.256 628.173 562.7 628.173C563.663 628.173 564.638 628.059 565.624 627.83V634.281C563.721 634.807 561.886 635.07 560.12 635.07C553.7 635.07 550.489 631.536 550.489 624.468V603.435H544.367V597.259H550.489V588.235H558.848Z" fill="#003057"/>
<path d="M591.319 604.876C590.218 604.693 589.083 604.601 587.913 604.601C584.084 604.601 581.504 606.065 580.174 608.993V634.383H571.815V597.259H579.796L580.002 601.411C582.02 598.185 584.818 596.573 588.395 596.573C589.587 596.573 590.573 596.733 591.353 597.053L591.319 604.876Z" fill="#003057"/>
<path d="M593.795 615.478C593.795 611.841 594.518 608.57 595.962 605.665C597.407 602.737 599.436 600.496 602.051 598.94C604.665 597.362 607.669 596.573 611.063 596.573C616.085 596.573 620.155 598.185 623.274 601.411C626.415 604.636 628.112 608.913 628.364 614.243L628.399 616.199C628.399 619.858 627.688 623.129 626.266 626.012C624.867 628.894 622.849 631.124 620.212 632.702C617.598 634.281 614.571 635.07 611.131 635.07C605.88 635.07 601.672 633.331 598.508 629.854C595.366 626.355 593.795 621.7 593.795 615.89V615.478ZM602.154 616.199C602.154 620.019 602.945 623.015 604.527 625.188C606.109 627.338 608.311 628.413 611.131 628.413C613.952 628.413 616.142 627.315 617.701 625.119C619.284 622.924 620.075 619.71 620.075 615.478C620.075 611.727 619.261 608.753 617.632 606.557C616.027 604.361 613.837 603.263 611.063 603.263C608.334 603.263 606.167 604.35 604.562 606.523C602.956 608.673 602.154 611.898 602.154 616.199Z" fill="#003057"/>
<path d="M651.445 615.547C651.445 609.828 652.775 605.242 655.435 601.788C658.095 598.311 661.661 596.573 666.132 596.573C670.077 596.573 673.264 597.945 675.695 600.69V581.682H684.053V634.383H676.486L676.073 630.541C673.574 633.56 670.237 635.07 666.064 635.07C661.707 635.07 658.175 633.32 655.469 629.82C652.786 626.32 651.445 621.563 651.445 615.547ZM659.803 616.267C659.803 620.041 660.526 622.992 661.97 625.119C663.438 627.224 665.513 628.276 668.196 628.276C671.613 628.276 674.113 626.755 675.695 623.713V607.861C674.158 604.887 671.682 603.401 668.265 603.401C665.559 603.401 663.472 604.476 662.005 606.626C660.537 608.753 659.803 611.967 659.803 616.267Z" fill="#003057"/>
<path d="M701.665 634.383H693.306V597.259H701.665V634.383ZM692.79 587.617C692.79 586.337 693.192 585.273 693.994 584.427C694.82 583.58 695.989 583.157 697.503 583.157C699.016 583.157 700.186 583.58 701.011 584.427C701.837 585.273 702.249 586.337 702.249 587.617C702.249 588.876 701.837 589.928 701.011 590.774C700.186 591.598 699.016 592.009 697.503 592.009C695.989 592.009 694.82 591.598 693.994 590.774C693.192 589.928 692.79 588.876 692.79 587.617Z" fill="#003057"/>
<path d="M740.43 584.427L754.877 622.718L769.289 584.427H780.537V634.383H771.869V617.914L772.729 595.886L757.938 634.383H751.713L736.956 595.921L737.816 617.914V634.383H729.148V584.427H740.43Z" fill="#003057"/>
<path d="M806.438 635.07C801.141 635.07 796.842 633.411 793.539 630.095C790.26 626.755 788.621 622.317 788.621 616.782V615.753C788.621 612.047 789.332 608.742 790.753 605.837C792.198 602.909 794.216 600.633 796.807 599.009C799.398 597.385 802.288 596.573 805.475 596.573C810.543 596.573 814.453 598.185 817.205 601.411C819.979 604.636 821.367 609.199 821.367 615.101V618.463H797.048C797.3 621.528 798.321 623.953 800.109 625.737C801.921 627.521 804.191 628.413 806.92 628.413C810.749 628.413 813.868 626.869 816.276 623.781L820.782 628.07C819.291 630.289 817.296 632.016 814.797 633.251C812.32 634.464 809.534 635.07 806.438 635.07ZM805.441 603.263C803.148 603.263 801.29 604.064 799.869 605.665C798.47 607.266 797.575 609.497 797.186 612.356H813.111V611.738C812.928 608.948 812.183 606.843 810.876 605.425C809.569 603.984 807.757 603.263 805.441 603.263Z" fill="#003057"/>
<path d="M826.32 615.547C826.32 609.828 827.65 605.242 830.31 601.788C832.97 598.311 836.536 596.573 841.007 596.573C844.952 596.573 848.139 597.945 850.57 600.69V581.682H858.928V634.383H851.361L850.948 630.541C848.449 633.56 845.112 635.07 840.939 635.07C836.582 635.07 833.05 633.32 830.344 629.82C827.661 626.32 826.32 621.563 826.32 615.547ZM834.678 616.267C834.678 620.041 835.401 622.992 836.845 625.119C838.313 627.224 840.388 628.276 843.071 628.276C846.488 628.276 848.988 626.755 850.57 623.713V607.861C849.033 604.887 846.557 603.401 843.14 603.401C840.434 603.401 838.347 604.476 836.88 606.626C835.412 608.753 834.678 611.967 834.678 616.267Z" fill="#003057"/>
<path d="M876.54 634.383H868.181V597.259H876.54V634.383ZM867.665 587.617C867.665 586.337 868.067 585.273 868.869 584.427C869.695 583.58 870.864 583.157 872.378 583.157C873.891 583.157 875.061 583.58 875.886 584.427C876.712 585.273 877.124 586.337 877.124 587.617C877.124 588.876 876.712 589.928 875.886 590.774C875.061 591.598 873.891 592.009 872.378 592.009C870.864 592.009 869.695 591.598 868.869 590.774C868.067 589.928 867.665 588.876 867.665 587.617Z" fill="#003057"/>
<path d="M900.962 628.413C903.048 628.413 904.78 627.807 906.156 626.595C907.532 625.383 908.265 623.884 908.357 622.1H916.234C916.142 624.41 915.42 626.572 914.067 628.585C912.714 630.575 910.88 632.153 908.563 633.32C906.247 634.486 903.748 635.07 901.065 635.07C895.859 635.07 891.732 633.388 888.682 630.026C885.632 626.663 884.107 622.02 884.107 616.096V615.238C884.107 609.588 885.621 605.07 888.648 601.685C891.674 598.277 895.802 596.573 901.03 596.573C905.456 596.573 909.056 597.865 911.831 600.45C914.629 603.012 916.096 606.386 916.234 610.572H908.357C908.265 608.444 907.532 606.694 906.156 605.322C904.803 603.95 903.071 603.263 900.962 603.263C898.256 603.263 896.169 604.247 894.701 606.214C893.234 608.158 892.489 611.121 892.466 615.101V616.439C892.466 620.465 893.188 623.473 894.633 625.463C896.1 627.43 898.21 628.413 900.962 628.413Z" fill="#003057"/>
<path d="M931.438 634.383H923.079V597.259H931.438V634.383ZM922.563 587.617C922.563 586.337 922.964 585.273 923.767 584.427C924.593 583.58 925.762 583.157 927.276 583.157C928.789 583.157 929.958 583.58 930.784 584.427C931.61 585.273 932.022 586.337 932.022 587.617C932.022 588.876 931.61 589.928 930.784 590.774C929.958 591.598 928.789 592.009 927.276 592.009C925.762 592.009 924.593 591.598 923.767 590.774C922.964 589.928 922.563 588.876 922.563 587.617Z" fill="#003057"/>
<path d="M948.327 597.259L948.567 601.548C951.319 598.231 954.931 596.573 959.402 596.573C967.153 596.573 971.097 600.999 971.235 609.851V634.383H962.877V610.331C962.877 607.975 962.361 606.237 961.329 605.116C960.32 603.972 958.657 603.401 956.341 603.401C952.97 603.401 950.459 604.922 948.808 607.964V634.383H940.45V597.259H948.327Z" fill="#003057"/>
<path d="M1002.02 634.383C1001.65 633.674 1001.33 632.519 1001.06 630.918C998.397 633.686 995.141 635.07 991.289 635.07C987.551 635.07 984.501 634.006 982.139 631.879C979.777 629.751 978.596 627.121 978.596 623.987C978.596 620.03 980.064 616.999 982.999 614.895C985.957 612.768 990.176 611.704 995.657 611.704H1000.78V609.268C1000.78 607.346 1000.24 605.814 999.166 604.67C998.088 603.504 996.448 602.92 994.247 602.92C992.343 602.92 990.784 603.401 989.569 604.361C988.353 605.299 987.746 606.5 987.746 607.964H979.387C979.387 605.928 980.064 604.03 981.417 602.268C982.77 600.484 984.604 599.089 986.92 598.082C989.259 597.076 991.862 596.573 994.728 596.573C999.085 596.573 1002.56 597.671 1005.15 599.867C1007.74 602.04 1009.07 605.105 1009.14 609.062V625.806C1009.14 629.145 1009.61 631.81 1010.55 633.8V634.383H1002.02ZM992.836 628.379C994.488 628.379 996.035 627.979 997.48 627.178C998.948 626.378 1000.05 625.302 1000.78 623.953V616.953H996.276C993.18 616.953 990.853 617.491 989.294 618.566C987.734 619.641 986.955 621.162 986.955 623.129C986.955 624.731 987.482 626.012 988.537 626.972C989.615 627.91 991.048 628.379 992.836 628.379Z" fill="#003057"/>
<path d="M1065.52 612.081H1044.95V627.453H1068.99V634.383H1036.25V584.427H1068.75V591.426H1044.95V605.219H1065.52V612.081Z" fill="#003057"/>
<path d="M1083.13 597.259L1083.37 601.136C1085.98 598.094 1089.56 596.573 1094.1 596.573C1099.08 596.573 1102.48 598.471 1104.32 602.268C1107.02 598.471 1110.83 596.573 1115.74 596.573C1119.84 596.573 1122.89 597.705 1124.89 599.969C1126.91 602.234 1127.94 605.574 1127.98 609.988V634.383H1119.62V610.228C1119.62 607.872 1119.11 606.145 1118.08 605.048C1117.04 603.95 1115.34 603.401 1112.95 603.401C1111.05 603.401 1109.49 603.915 1108.27 604.945C1107.08 605.951 1106.24 607.278 1105.76 608.925L1105.8 634.383H1097.44V609.954C1097.32 605.585 1095.09 603.401 1090.73 603.401C1087.38 603.401 1085.01 604.762 1083.61 607.484V634.383H1075.25V597.259H1083.13Z" fill="#003057"/>
<path d="M1169.16 616.199C1169.16 621.94 1167.85 626.526 1165.23 629.957C1162.62 633.366 1159.11 635.07 1154.71 635.07C1150.63 635.07 1147.36 633.732 1144.91 631.055V648.657H1136.55V597.259H1144.25L1144.6 601.033C1147.05 598.059 1150.39 596.573 1154.61 596.573C1159.15 596.573 1162.7 598.265 1165.27 601.651C1167.86 605.013 1169.16 609.691 1169.16 615.684V616.199ZM1160.83 615.478C1160.83 611.772 1160.09 608.833 1158.6 606.66C1157.13 604.487 1155.02 603.401 1152.27 603.401C1148.85 603.401 1146.4 604.807 1144.91 607.621V624.09C1146.42 626.972 1148.9 628.413 1152.34 628.413C1155 628.413 1157.07 627.35 1158.56 625.222C1160.08 623.072 1160.83 619.824 1160.83 615.478Z" fill="#003057"/>
<path d="M1185.15 634.383H1176.79V597.259H1185.15V634.383ZM1176.28 587.617C1176.28 586.337 1176.68 585.273 1177.48 584.427C1178.31 583.58 1179.48 583.157 1180.99 583.157C1182.5 583.157 1183.67 583.58 1184.5 584.427C1185.32 585.273 1185.74 586.337 1185.74 587.617C1185.74 588.876 1185.32 589.928 1184.5 590.774C1183.67 591.598 1182.5 592.009 1180.99 592.009C1179.48 592.009 1178.31 591.598 1177.48 590.774C1176.68 589.928 1176.28 588.876 1176.28 587.617Z" fill="#003057"/>
<path d="M1213.77 604.876C1212.67 604.693 1211.53 604.601 1210.36 604.601C1206.53 604.601 1203.95 606.065 1202.62 608.993V634.383H1194.27V597.259H1202.25L1202.45 601.411C1204.47 598.185 1207.27 596.573 1210.85 596.573C1212.04 596.573 1213.02 596.733 1213.8 597.053L1213.77 604.876Z" fill="#003057"/>
<path d="M1227.94 634.383H1219.58V597.259H1227.94V634.383ZM1219.07 587.617C1219.07 586.337 1219.47 585.273 1220.27 584.427C1221.1 583.58 1222.27 583.157 1223.78 583.157C1225.29 583.157 1226.46 583.58 1227.29 584.427C1228.11 585.273 1228.53 586.337 1228.53 587.617C1228.53 588.876 1228.11 589.928 1227.29 590.774C1226.46 591.598 1225.29 592.009 1223.78 592.009C1222.27 592.009 1221.1 591.598 1220.27 590.774C1219.47 589.928 1219.07 588.876 1219.07 587.617Z" fill="#003057"/>
<path d="M1252.36 628.413C1254.45 628.413 1256.18 627.807 1257.56 626.595C1258.93 625.383 1259.67 623.884 1259.76 622.1H1267.64C1267.54 624.41 1266.82 626.572 1265.47 628.585C1264.12 630.575 1262.28 632.153 1259.96 633.32C1257.65 634.486 1255.15 635.07 1252.47 635.07C1247.26 635.07 1243.13 633.388 1240.08 630.026C1237.03 626.663 1235.51 622.02 1235.51 616.096V615.238C1235.51 609.588 1237.02 605.07 1240.05 601.685C1243.08 598.277 1247.2 596.573 1252.43 596.573C1256.86 596.573 1260.46 597.865 1263.23 600.45C1266.03 603.012 1267.5 606.386 1267.64 610.572H1259.76C1259.67 608.444 1258.93 606.694 1257.56 605.322C1256.2 603.95 1254.47 603.263 1252.36 603.263C1249.66 603.263 1247.57 604.247 1246.1 606.214C1244.63 608.158 1243.89 611.121 1243.87 615.101V616.439C1243.87 620.465 1244.59 623.473 1246.03 625.463C1247.5 627.43 1249.61 628.413 1252.36 628.413Z" fill="#003057"/>
<path d="M1296.18 634.383C1295.82 633.674 1295.5 632.519 1295.22 630.918C1292.56 633.686 1289.31 635.07 1285.45 635.07C1281.72 635.07 1278.67 634.006 1276.3 631.879C1273.94 629.751 1272.76 627.121 1272.76 623.987C1272.76 620.03 1274.23 616.999 1277.16 614.895C1280.12 612.768 1284.34 611.704 1289.82 611.704H1294.95V609.268C1294.95 607.346 1294.41 605.814 1293.33 604.67C1292.25 603.504 1290.61 602.92 1288.41 602.92C1286.51 602.92 1284.95 603.401 1283.73 604.361C1282.52 605.299 1281.91 606.5 1281.91 607.964H1273.55C1273.55 605.928 1274.23 604.03 1275.58 602.268C1276.93 600.484 1278.77 599.089 1281.08 598.082C1283.42 597.076 1286.03 596.573 1288.89 596.573C1293.25 596.573 1296.72 597.671 1299.31 599.867C1301.91 602.04 1303.24 605.105 1303.31 609.062V625.806C1303.31 629.145 1303.78 631.81 1304.72 633.8V634.383H1296.18ZM1287 628.379C1288.65 628.379 1290.2 627.979 1291.64 627.178C1293.11 626.378 1294.21 625.302 1294.95 623.953V616.953H1290.44C1287.34 616.953 1285.02 617.491 1283.46 618.566C1281.9 619.641 1281.12 621.162 1281.12 623.129C1281.12 624.731 1281.65 626.012 1282.7 626.972C1283.78 627.91 1285.21 628.379 1287 628.379Z" fill="#003057"/>
<path fill-rule="evenodd" clip-rule="evenodd" d="M221.504 606.524C256.858 590.246 291 554.347 291 488.937C291 358.267 163.237 356.744 147 359.635C184.935 374.238 213.006 418.809 213.006 488.937C213.006 559.064 183.114 608.501 147.911 619.607C150.491 621.431 195.558 688.669 280.377 656.115C243.201 640.751 228.938 621.735 221.504 606.524Z" fill="#003057"/>
<path fill-rule="evenodd" clip-rule="evenodd" d="M130 405.662C114.395 418.782 100.164 451.049 100.164 489.954C100.164 528.856 114.395 561.123 130 574.243C101.083 606.21 33 571.377 33 489.349C33 402.496 100.777 373.695 130 405.662" fill="#61A60E"/>
</svg>
