<svg width="1440" height="1024" viewBox="0 0 1440 1024" fill="none" xmlns="http://www.w3.org/2000/svg">
<g clip-path="url(#clip0)">
<rect width="1440" height="1024"/>
<path fill-rule="evenodd" clip-rule="evenodd" d="M212.367 373.612H113.683V465.716L15 465.716L15 564.4H113.683V663.083H212.367V564.4H304.471V465.716L212.367 465.716V373.612Z" fill="#E0050B"/>
<path d="M438.964 413.773C437.944 420.349 435.664 425.371 432.124 428.838C428.613 432.276 424.007 433.994 418.307 433.994C411.286 433.994 406.065 431.035 402.644 425.117C399.254 419.198 397.559 410.126 397.559 397.901C397.559 385.227 399.344 375.916 402.914 369.967C406.485 363.989 412.036 361 419.567 361C424.878 361 429.123 362.48 432.304 365.439C435.514 368.398 437.704 372.912 438.874 378.98L426.228 383.194C425.898 379.428 425.178 376.693 424.067 374.989C422.957 373.255 421.367 372.389 419.297 372.389C416.506 372.389 414.526 374.212 413.356 377.859C412.216 381.505 411.646 388.186 411.646 397.901C411.646 407.287 412.201 413.743 413.311 417.27C414.421 420.768 416.326 422.516 419.027 422.516C421.037 422.516 422.642 421.44 423.842 419.288C425.073 417.106 425.928 413.833 426.408 409.469L438.964 413.773Z" fill="black"/>
<path d="M446.841 432.515V380.818H458.812V393.686H459.397C460.417 389.143 462.098 385.675 464.438 383.284C466.778 380.893 469.674 379.697 473.124 379.697H473.664V393.103C473.274 393.073 472.854 393.058 472.404 393.058C471.984 393.028 471.384 393.014 470.604 393.014C466.793 393.014 463.988 393.97 462.188 395.883C460.387 397.796 459.487 400.755 459.487 404.761V432.515H446.841Z" fill="black"/>
<path d="M496.257 423.144C498.298 423.144 499.738 421.903 500.578 419.422C501.448 416.912 501.883 412.607 501.883 406.509C501.883 400.501 501.448 396.227 500.578 393.686C499.708 391.115 498.268 389.83 496.257 389.83C494.277 389.83 492.837 391.13 491.937 393.731C491.067 396.331 490.632 400.591 490.632 406.509C490.632 412.458 491.067 416.717 491.937 419.288C492.837 421.859 494.277 423.144 496.257 423.144ZM477.67 406.689C477.67 397.602 479.2 390.831 482.26 386.378C485.321 381.924 489.987 379.697 496.257 379.697C502.588 379.697 507.284 381.924 510.344 386.378C513.435 390.831 514.98 397.602 514.98 406.689C514.98 415.806 513.435 422.576 510.344 427C507.284 431.424 502.588 433.636 496.257 433.636C489.987 433.636 485.321 431.424 482.26 427C479.2 422.546 477.67 415.776 477.67 406.689Z" fill="black"/>
<path d="M523.351 368.891C523.351 366.948 524.026 365.289 525.376 363.914C526.727 362.51 528.377 361.807 530.327 361.807C532.337 361.807 534.018 362.495 535.368 363.87C536.748 365.215 537.438 366.889 537.438 368.891C537.438 370.834 536.733 372.478 535.323 373.823C533.913 375.168 532.247 375.841 530.327 375.841C528.467 375.841 526.832 375.153 525.421 373.778C524.041 372.374 523.351 370.745 523.351 368.891ZM524.161 432.604V380.818H536.718V432.604H524.161Z" fill="black"/>
<path d="M542.659 432.604L555.846 405.882L543.694 380.818H557.151L560.076 388.261C560.586 389.606 561.111 391.28 561.651 393.283C562.192 395.255 562.717 397.467 563.227 399.918C563.677 397.557 564.157 395.42 564.667 393.507C565.207 391.564 565.702 390.024 566.152 388.889L569.483 380.818H582.759L570.293 405.523L583.299 432.604H569.843L566.152 422.875C565.492 421.171 564.922 419.303 564.442 417.27C563.962 415.208 563.557 412.921 563.227 410.41C562.717 413.25 562.207 415.686 561.696 417.719C561.186 419.751 560.676 421.38 560.166 422.606L556.026 432.604H542.659Z" fill="black"/>
<path d="M610.348 411.307V400.098H631.186V411.307H610.348Z" fill="black"/>
<path d="M664.671 432.604V362.435H681.638C689.049 362.435 694.645 364.094 698.425 367.412C702.236 370.73 704.141 375.632 704.141 382.118C704.141 386.602 703.151 390.383 701.171 393.462C699.191 396.511 696.37 398.633 692.71 399.829L705.401 432.604H691.224L679.343 399.56H678.038V432.604H664.671ZM678.038 392.475C678.218 392.475 678.473 392.49 678.803 392.52C679.163 392.55 679.433 392.565 679.613 392.565C683.093 392.565 685.794 391.698 687.714 389.965C689.634 388.201 690.594 385.735 690.594 382.567C690.594 379.398 689.649 377.007 687.759 375.393C685.869 373.749 683.093 372.927 679.433 372.927H678.038V392.475Z" fill="black"/>
<path d="M728.4 423.144C730.44 423.144 731.88 421.903 732.72 419.422C733.59 416.912 734.025 412.607 734.025 406.509C734.025 400.501 733.59 396.227 732.72 393.686C731.85 391.115 730.41 389.83 728.4 389.83C726.419 389.83 724.979 391.13 724.079 393.731C723.209 396.331 722.774 400.591 722.774 406.509C722.774 412.458 723.209 416.717 724.079 419.288C724.979 421.859 726.419 423.144 728.4 423.144ZM709.812 406.689C709.812 397.602 711.342 390.831 714.403 386.378C717.463 381.924 722.129 379.697 728.4 379.697C734.731 379.697 739.426 381.924 742.487 386.378C745.577 390.831 747.122 397.602 747.122 406.689C747.122 415.806 745.577 422.576 742.487 427C739.426 431.424 734.731 433.636 728.4 433.636C722.129 433.636 717.463 431.424 714.403 427C711.342 422.546 709.812 415.776 709.812 406.689Z" fill="black"/>
<path d="M755.673 410.948V380.818H768.275V411.217C768.275 415.791 768.62 418.929 769.31 420.633C770 422.307 771.171 423.144 772.821 423.144C774.441 423.144 775.581 422.307 776.241 420.633C776.901 418.959 777.231 415.821 777.231 411.217V380.818H789.878V410.948C789.878 418.69 788.483 424.429 785.693 428.166C782.902 431.872 778.612 433.725 772.821 433.725C767 433.725 762.679 431.857 759.859 428.121C757.069 424.384 755.673 418.66 755.673 410.948Z" fill="black"/>
<path d="M822.868 406.24C822.868 401.368 822.403 397.662 821.473 395.121C820.572 392.55 819.237 391.265 817.467 391.265C815.607 391.265 814.257 392.475 813.416 394.897C812.606 397.318 812.201 401.293 812.201 406.823C812.201 411.935 812.621 415.716 813.461 418.167C814.302 420.618 815.607 421.844 817.377 421.844C819.237 421.844 820.617 420.573 821.518 418.032C822.418 415.462 822.868 411.531 822.868 406.24ZM822.238 430.587V422.695C821.127 426.163 819.702 428.778 817.962 430.542C816.222 432.276 814.182 433.142 811.841 433.142C807.761 433.142 804.64 430.871 802.48 426.327C800.35 421.754 799.284 415.148 799.284 406.509C799.284 397.512 800.275 390.816 802.255 386.422C804.265 381.999 807.296 379.787 811.346 379.787C814.017 379.787 816.222 380.653 817.962 382.387C819.732 384.121 821.157 386.841 822.238 390.547V380.818H834.884V424.982C834.884 429.585 834.704 433.217 834.344 435.878C833.984 438.538 833.414 440.66 832.634 442.244C831.074 445.443 828.929 447.834 826.198 449.418C823.468 451.002 820.152 451.795 816.252 451.795C812.681 451.795 809.501 451.077 806.71 449.642C803.92 448.208 801.76 446.175 800.23 443.545L809.726 437.088C810.416 438.613 811.241 439.748 812.201 440.496C813.191 441.243 814.362 441.617 815.712 441.617C817.932 441.617 819.567 440.705 820.617 438.882C821.698 437.088 822.238 434.323 822.238 430.587Z" fill="black"/>
<path d="M856.172 400.905H868.504C868.474 396.869 867.949 393.925 866.929 392.072C865.909 390.189 864.318 389.247 862.158 389.247C860.208 389.247 858.738 390.219 857.748 392.162C856.757 394.105 856.232 397.019 856.172 400.905ZM879.486 418.391C878.375 423.473 876.38 427.314 873.5 429.914C870.619 432.515 866.869 433.815 862.248 433.815C855.917 433.815 851.267 431.663 848.296 427.359C845.326 423.054 843.841 416.329 843.841 407.182C843.841 397.766 845.326 390.846 848.296 386.422C851.297 381.999 855.977 379.787 862.338 379.787C868.369 379.787 872.915 381.804 875.975 385.84C879.066 389.875 880.611 395.853 880.611 403.774V409.11H856.172V409.827C856.172 414.7 856.652 418.227 857.613 420.409C858.573 422.591 860.118 423.682 862.248 423.682C863.778 423.682 865.039 423.009 866.029 421.664C867.019 420.289 867.664 418.301 867.964 415.701L879.486 418.391Z" fill="black"/>
<path d="M909.64 423.951L918.731 417.36C919.511 419.333 920.486 420.872 921.656 421.978C922.827 423.054 924.072 423.592 925.392 423.592C926.622 423.592 927.672 423.144 928.542 422.247C929.443 421.35 929.893 420.274 929.893 419.019C929.893 416.837 927.537 414.236 922.827 411.217C922.137 410.769 921.611 410.425 921.251 410.186C917.321 407.675 914.545 405.224 912.925 402.833C911.335 400.441 910.54 397.691 910.54 394.583C910.54 390.308 912.07 386.751 915.131 383.912C918.221 381.042 922.077 379.607 926.697 379.607C930.088 379.607 933.088 380.474 935.698 382.208C938.339 383.912 940.304 386.288 941.594 389.337L933.223 394.941C932.773 393.268 931.948 391.908 930.748 390.861C929.578 389.785 928.287 389.247 926.877 389.247C925.467 389.247 924.327 389.651 923.457 390.458C922.587 391.235 922.152 392.251 922.152 393.507C922.152 395.599 924.327 397.975 928.677 400.636C930.448 401.712 931.813 402.579 932.773 403.236C936.013 405.418 938.354 407.675 939.794 410.007C941.234 412.308 941.954 414.939 941.954 417.898C941.954 422.651 940.439 426.477 937.409 429.376C934.408 432.276 930.403 433.725 925.392 433.725C921.911 433.725 918.806 432.888 916.076 431.214C913.375 429.511 911.23 427.09 909.64 423.951Z" fill="black"/>
<path d="M950.19 410.948V380.818H962.792V411.217C962.792 415.791 963.137 418.929 963.827 420.633C964.517 422.307 965.688 423.144 967.338 423.144C968.958 423.144 970.098 422.307 970.758 420.633C971.418 418.959 971.748 415.821 971.748 411.217V380.818H984.395V410.948C984.395 418.69 983 424.429 980.21 428.166C977.419 431.872 973.129 433.725 967.338 433.725C961.517 433.725 957.196 431.857 954.376 428.121C951.586 424.384 950.19 418.66 950.19 410.948Z" fill="black"/>
<path d="M994.837 368.891C994.837 366.948 995.512 365.289 996.862 363.914C998.212 362.51 999.862 361.807 1001.81 361.807C1003.82 361.807 1005.5 362.495 1006.85 363.87C1008.23 365.215 1008.92 366.889 1008.92 368.891C1008.92 370.834 1008.22 372.478 1006.81 373.823C1005.4 375.168 1003.73 375.841 1001.81 375.841C999.952 375.841 998.317 375.153 996.907 373.778C995.527 372.374 994.837 370.745 994.837 368.891ZM995.647 432.604V380.818H1008.2V432.604H995.647Z" fill="black"/>
<path d="M1017.29 423.951L1026.39 417.36C1027.17 419.333 1028.14 420.872 1029.31 421.978C1030.48 423.054 1031.73 423.592 1033.05 423.592C1034.28 423.592 1035.33 423.144 1036.2 422.247C1037.1 421.35 1037.55 420.274 1037.55 419.019C1037.55 416.837 1035.19 414.236 1030.48 411.217C1029.79 410.769 1029.27 410.425 1028.91 410.186C1024.98 407.675 1022.2 405.224 1020.58 402.833C1018.99 400.441 1018.19 397.691 1018.19 394.583C1018.19 390.308 1019.73 386.751 1022.79 383.912C1025.88 381.042 1029.73 379.607 1034.35 379.607C1037.74 379.607 1040.74 380.474 1043.35 382.208C1045.99 383.912 1047.96 386.288 1049.25 389.337L1040.88 394.941C1040.43 393.268 1039.6 391.908 1038.4 390.861C1037.23 389.785 1035.94 389.247 1034.53 389.247C1033.12 389.247 1031.98 389.651 1031.11 390.458C1030.24 391.235 1029.81 392.251 1029.81 393.507C1029.81 395.599 1031.98 397.975 1036.33 400.636C1038.1 401.712 1039.47 402.579 1040.43 403.236C1043.67 405.418 1046.01 407.675 1047.45 410.007C1048.89 412.308 1049.61 414.939 1049.61 417.898C1049.61 422.651 1048.09 426.477 1045.06 429.376C1042.06 432.276 1038.06 433.725 1033.05 433.725C1029.57 433.725 1026.46 432.888 1023.73 431.214C1021.03 429.511 1018.88 427.09 1017.29 423.951Z" fill="black"/>
<path d="M1055.73 423.951L1064.82 417.36C1065.6 419.333 1066.58 420.872 1067.75 421.978C1068.92 423.054 1070.16 423.592 1071.48 423.592C1072.71 423.592 1073.76 423.144 1074.63 422.247C1075.53 421.35 1075.98 420.274 1075.98 419.019C1075.98 416.837 1073.63 414.236 1068.92 411.217C1068.23 410.769 1067.7 410.425 1067.34 410.186C1063.41 407.675 1060.64 405.224 1059.02 402.833C1057.43 400.441 1056.63 397.691 1056.63 394.583C1056.63 390.308 1058.16 386.751 1061.22 383.912C1064.31 381.042 1068.17 379.607 1072.79 379.607C1076.18 379.607 1079.18 380.474 1081.79 382.208C1084.43 383.912 1086.39 386.288 1087.68 389.337L1079.31 394.941C1078.86 393.268 1078.04 391.908 1076.84 390.861C1075.67 389.785 1074.38 389.247 1072.97 389.247C1071.56 389.247 1070.42 389.651 1069.55 390.458C1068.68 391.235 1068.24 392.251 1068.24 393.507C1068.24 395.599 1070.42 397.975 1074.77 400.636C1076.54 401.712 1077.9 402.579 1078.86 403.236C1082.1 405.418 1084.44 407.675 1085.88 410.007C1087.32 412.308 1088.04 414.939 1088.04 417.898C1088.04 422.651 1086.53 426.477 1083.5 429.376C1080.5 432.276 1076.49 433.725 1071.48 433.725C1068 433.725 1064.9 432.888 1062.17 431.214C1059.47 429.511 1057.32 427.09 1055.73 423.951Z" fill="black"/>
<path d="M1106.59 400.905H1118.92C1118.89 396.869 1118.36 393.925 1117.34 392.072C1116.32 390.189 1114.73 389.247 1112.57 389.247C1110.62 389.247 1109.15 390.219 1108.16 392.162C1107.17 394.105 1106.65 397.019 1106.59 400.905ZM1129.9 418.391C1128.79 423.473 1126.79 427.314 1123.91 429.914C1121.03 432.515 1117.28 433.815 1112.66 433.815C1106.33 433.815 1101.68 431.663 1098.71 427.359C1095.74 423.054 1094.26 416.329 1094.26 407.182C1094.26 397.766 1095.74 390.846 1098.71 386.422C1101.71 381.999 1106.39 379.787 1112.75 379.787C1118.78 379.787 1123.33 381.804 1126.39 385.84C1129.48 389.875 1131.03 395.853 1131.03 403.774V409.11H1106.59V409.827C1106.59 414.7 1107.07 418.227 1108.03 420.409C1108.99 422.591 1110.53 423.682 1112.66 423.682C1114.19 423.682 1115.45 423.009 1116.44 421.664C1117.43 420.289 1118.08 418.301 1118.38 415.701L1129.9 418.391Z" fill="black"/>
<path d="M395.083 528.056L407.145 524.827C407.505 527.757 408.345 530.028 409.665 531.643C410.986 533.227 412.666 534.019 414.706 534.019C416.506 534.019 417.962 533.376 419.072 532.091C420.212 530.806 420.782 529.117 420.782 527.024C420.782 525.052 420.197 523.183 419.027 521.42C417.887 519.656 415.246 517.026 411.106 513.529C405.405 508.716 401.549 504.681 399.539 501.423C397.529 498.135 396.524 494.607 396.524 490.841C396.524 485.371 398.204 480.962 401.564 477.614C404.955 474.266 409.395 472.592 414.886 472.592C420.137 472.592 424.352 473.908 427.533 476.538C430.743 479.139 432.829 482.995 433.789 488.106L422.627 491.962C422.297 489.122 421.547 486.97 420.377 485.505C419.237 484.041 417.722 483.308 415.831 483.308C414.061 483.308 412.621 483.891 411.511 485.057C410.431 486.223 409.89 487.762 409.89 489.675C409.89 493.023 412.876 497.148 418.847 502.05C420.287 503.246 421.397 504.158 422.177 504.785C426.468 508.522 429.483 511.959 431.223 515.098C432.994 518.236 433.879 521.689 433.879 525.455C433.879 531.613 432.109 536.5 428.568 540.117C425.058 543.704 420.287 545.497 414.256 545.497C408.945 545.497 404.61 543.973 401.249 540.924C397.919 537.845 395.863 533.556 395.083 528.056Z" fill="black"/>
<path d="M472.674 530.522C471.714 535.274 469.839 538.921 467.048 541.462C464.288 543.973 460.762 545.228 456.472 545.228C450.561 545.228 446.21 543.046 443.42 538.682C440.63 534.318 439.235 527.533 439.235 518.326C439.235 508.641 440.645 501.692 443.465 497.477C446.315 493.232 450.951 491.11 457.372 491.11C461.783 491.11 465.293 492.336 467.903 494.787C470.514 497.238 472.074 500.765 472.584 505.368L461.333 507.834C461.333 505.742 460.958 504.128 460.207 502.992C459.457 501.826 458.392 501.243 457.012 501.243C455.272 501.243 454.072 502.409 453.411 504.741C452.751 507.072 452.421 512.303 452.421 520.433C452.421 525.694 452.766 529.356 453.456 531.418C454.147 533.451 455.332 534.467 457.012 534.467C458.182 534.467 459.142 533.884 459.892 532.719C460.642 531.553 461.243 529.685 461.693 527.114L472.674 530.522Z" fill="black"/>
<path d="M479.515 544.018V473.938H492.162V499.584C493.242 497.073 494.832 495.071 496.933 493.576C499.033 492.052 501.373 491.289 503.953 491.289C507.614 491.289 510.194 492.41 511.695 494.652C513.225 496.894 513.99 500.989 513.99 506.938V544.018H501.343V511.601C501.343 507.834 501.013 505.293 500.353 503.978C499.723 502.633 498.583 501.961 496.933 501.961C495.342 501.961 494.142 502.753 493.332 504.337C492.552 505.891 492.162 508.223 492.162 511.332V544.018H479.515Z" fill="black"/>
<path d="M532.352 544.107L520.021 492.321H532.892L535.953 512.228C536.643 516.742 537.168 520.583 537.528 523.751C537.888 526.92 538.158 529.999 538.338 532.988H539.058C539.508 527.996 539.973 523.408 540.454 519.223C540.964 515.038 541.489 511.332 542.029 508.103L544.774 492.321H556.971L559.086 508.103C559.566 511.78 559.986 515.711 560.346 519.895C560.736 524.05 561.081 528.414 561.381 532.988H562.237C562.597 527.996 563.017 523.542 563.497 519.626C563.977 515.681 564.472 512.512 564.982 510.121L568.852 492.321H581.184L567.277 544.107H556.206L552.83 518.416C552.44 515.337 552.11 512.542 551.84 510.031C551.6 507.52 551.36 504.95 551.12 502.319H550.22C549.59 507.012 549.08 510.704 548.69 513.394C548.33 516.054 548.105 517.698 548.015 518.326L543.514 544.107H532.352Z" fill="black"/>
<path d="M596.846 512.408H609.178C609.148 508.372 608.623 505.428 607.603 503.575C606.583 501.692 604.993 500.75 602.832 500.75C600.882 500.75 599.412 501.721 598.422 503.664C597.431 505.607 596.906 508.522 596.846 512.408ZM620.16 529.894C619.049 534.975 617.054 538.816 614.174 541.417C611.293 544.018 607.543 545.318 602.922 545.318C596.591 545.318 591.941 543.166 588.97 538.861C586 534.557 584.515 527.831 584.515 518.685C584.515 509.269 586 502.349 588.97 497.925C591.971 493.501 596.651 491.289 603.012 491.289C609.043 491.289 613.589 493.307 616.649 497.342C619.74 501.378 621.285 507.356 621.285 515.277V520.613H596.846V521.33C596.846 526.202 597.326 529.73 598.287 531.912C599.247 534.094 600.792 535.185 602.922 535.185C604.452 535.185 605.713 534.512 606.703 533.167C607.693 531.792 608.338 529.804 608.638 527.204L620.16 529.894Z" fill="black"/>
<path d="M629.206 480.394C629.206 478.451 629.881 476.792 631.231 475.417C632.581 474.012 634.232 473.31 636.182 473.31C638.192 473.31 639.872 473.997 641.223 475.372C642.603 476.717 643.293 478.391 643.293 480.394C643.293 482.337 642.588 483.981 641.178 485.326C639.767 486.671 638.102 487.344 636.182 487.344C634.322 487.344 632.686 486.656 631.276 485.281C629.896 483.876 629.206 482.247 629.206 480.394ZM630.016 544.107V492.321H642.573V544.107H630.016Z" fill="black"/>
<path d="M649.549 544.107L667.146 502.319H651.844V492.321H683.798L666.786 533.436H682.448V544.107H649.549Z" fill="black"/>
<path d="M700.001 512.408H712.332C712.302 508.372 711.777 505.428 710.757 503.575C709.737 501.692 708.147 500.75 705.987 500.75C704.036 500.75 702.566 501.721 701.576 503.664C700.586 505.607 700.061 508.522 700.001 512.408ZM723.314 529.894C722.204 534.975 720.208 538.816 717.328 541.417C714.448 544.018 710.697 545.318 706.077 545.318C699.746 545.318 695.095 543.166 692.125 538.861C689.154 534.557 687.669 527.831 687.669 518.685C687.669 509.269 689.154 502.349 692.125 497.925C695.125 493.501 699.806 491.289 706.167 491.289C712.197 491.289 716.743 493.307 719.803 497.342C722.894 501.378 724.439 507.356 724.439 515.277V520.613H700.001V521.33C700.001 526.202 700.481 529.73 701.441 531.912C702.401 534.094 703.946 535.185 706.077 535.185C707.607 535.185 708.867 534.512 709.857 533.167C710.847 531.792 711.492 529.804 711.792 527.204L723.314 529.894Z" fill="black"/>
<path d="M732.99 544.018V492.321H744.962V505.189H745.547C746.567 500.645 748.247 497.178 750.588 494.787C752.928 492.395 755.823 491.2 759.274 491.2H759.814V504.606C759.424 504.576 759.004 504.561 758.554 504.561C758.134 504.531 757.534 504.516 756.754 504.516C752.943 504.516 750.138 505.473 748.337 507.386C746.537 509.299 745.637 512.258 745.637 516.264V544.018H732.99Z" fill="black"/>
<path d="M765.665 480.394C765.665 478.451 766.34 476.792 767.69 475.417C769.04 474.012 770.69 473.31 772.641 473.31C774.651 473.31 776.331 473.997 777.681 475.372C779.062 476.717 779.752 478.391 779.752 480.394C779.752 482.337 779.047 483.981 777.636 485.326C776.226 486.671 774.561 487.344 772.641 487.344C770.781 487.344 769.145 486.656 767.735 485.281C766.355 483.876 765.665 482.247 765.665 480.394ZM766.475 544.107V492.321H779.032V544.107H766.475Z" fill="black"/>
<path d="M788.123 535.454L797.214 528.863C797.994 530.836 798.969 532.375 800.14 533.481C801.31 534.557 802.555 535.095 803.875 535.095C805.105 535.095 806.155 534.647 807.026 533.75C807.926 532.853 808.376 531.777 808.376 530.522C808.376 528.34 806.02 525.739 801.31 522.72C800.62 522.272 800.095 521.928 799.735 521.689C795.804 519.178 793.029 516.727 791.408 514.336C789.818 511.944 789.023 509.194 789.023 506.086C789.023 501.811 790.553 498.254 793.614 495.414C796.704 492.545 800.56 491.11 805.18 491.11C808.571 491.11 811.571 491.977 814.182 493.711C816.822 495.414 818.787 497.791 820.077 500.84L811.706 506.444C811.256 504.77 810.431 503.41 809.231 502.364C808.061 501.288 806.771 500.75 805.36 500.75C803.95 500.75 802.81 501.154 801.94 501.961C801.07 502.738 800.635 503.754 800.635 505.01C800.635 507.102 802.81 509.478 807.161 512.139C808.931 513.215 810.296 514.082 811.256 514.739C814.497 516.921 816.837 519.178 818.277 521.509C819.717 523.811 820.437 526.442 820.437 529.401C820.437 534.153 818.922 537.98 815.892 540.879C812.891 543.778 808.886 545.228 803.875 545.228C800.395 545.228 797.289 544.391 794.559 542.717C791.858 541.014 789.713 538.592 788.123 535.454Z" fill="black"/>
<path d="M860.088 530.522C859.128 535.274 857.253 538.921 854.462 541.462C851.702 543.973 848.176 545.228 843.886 545.228C837.975 545.228 833.624 543.046 830.834 538.682C828.043 534.318 826.648 527.533 826.648 518.326C826.648 508.641 828.058 501.692 830.879 497.477C833.729 493.232 838.365 491.11 844.786 491.11C849.196 491.11 852.707 492.336 855.317 494.787C857.928 497.238 859.488 500.765 859.998 505.368L848.746 507.834C848.746 505.742 848.371 504.128 847.621 502.992C846.871 501.826 845.806 501.243 844.426 501.243C842.685 501.243 841.485 502.409 840.825 504.741C840.165 507.072 839.835 512.303 839.835 520.433C839.835 525.694 840.18 529.356 840.87 531.418C841.56 533.451 842.745 534.467 844.426 534.467C845.596 534.467 846.556 533.884 847.306 532.719C848.056 531.553 848.656 529.685 849.106 527.114L860.088 530.522Z" fill="black"/>
<path d="M866.929 544.018V473.938H879.576V499.584C880.656 497.073 882.246 495.071 884.346 493.576C886.447 492.052 888.787 491.289 891.367 491.289C895.028 491.289 897.608 492.41 899.108 494.652C900.639 496.894 901.404 500.989 901.404 506.938V544.018H888.757V511.601C888.757 507.834 888.427 505.293 887.767 503.978C887.137 502.633 885.996 501.961 884.346 501.961C882.756 501.961 881.556 502.753 880.746 504.337C879.966 505.891 879.576 508.223 879.576 511.332V544.018H866.929Z" fill="black"/>
<path d="M921.971 512.408H934.303C934.273 508.372 933.748 505.428 932.728 503.575C931.708 501.692 930.118 500.75 927.957 500.75C926.007 500.75 924.537 501.721 923.547 503.664C922.557 505.607 922.031 508.522 921.971 512.408ZM945.285 529.894C944.175 534.975 942.179 538.816 939.299 541.417C936.418 544.018 932.668 545.318 928.047 545.318C921.716 545.318 917.066 543.166 914.095 538.861C911.125 534.557 909.64 527.831 909.64 518.685C909.64 509.269 911.125 502.349 914.095 497.925C917.096 493.501 921.776 491.289 928.137 491.289C934.168 491.289 938.714 493.307 941.774 497.342C944.865 501.378 946.41 507.356 946.41 515.277V520.613H921.971V521.33C921.971 526.202 922.452 529.73 923.412 531.912C924.372 534.094 925.917 535.185 928.047 535.185C929.578 535.185 930.838 534.512 931.828 533.167C932.818 531.792 933.463 529.804 933.763 527.204L945.285 529.894Z" fill="black"/>
<path d="M952.396 535.454L961.487 528.863C962.267 530.836 963.242 532.375 964.412 533.481C965.583 534.557 966.828 535.095 968.148 535.095C969.378 535.095 970.428 534.647 971.298 533.75C972.198 532.853 972.649 531.777 972.649 530.522C972.649 528.34 970.293 525.739 965.583 522.72C964.892 522.272 964.367 521.928 964.007 521.689C960.077 519.178 957.301 516.727 955.681 514.336C954.091 511.944 953.296 509.194 953.296 506.086C953.296 501.811 954.826 498.254 957.886 495.414C960.977 492.545 964.832 491.11 969.453 491.11C972.844 491.11 975.844 491.977 978.454 493.711C981.095 495.414 983.06 497.791 984.35 500.84L975.979 506.444C975.529 504.77 974.704 503.41 973.504 502.364C972.333 501.288 971.043 500.75 969.633 500.75C968.223 500.75 967.083 501.154 966.213 501.961C965.343 502.738 964.907 503.754 964.907 505.01C964.907 507.102 967.083 509.478 971.433 512.139C973.204 513.215 974.569 514.082 975.529 514.739C978.769 516.921 981.11 519.178 982.55 521.509C983.99 523.811 984.71 526.442 984.71 529.401C984.71 534.153 983.195 537.98 980.165 540.879C977.164 543.778 973.159 545.228 968.148 545.228C964.667 545.228 961.562 544.391 958.832 542.717C956.131 541.014 953.986 538.592 952.396 535.454Z" fill="black"/>
<path d="M1016.62 544.107V473.938H1033.59C1041 473.938 1046.59 475.597 1050.37 478.914C1054.18 482.232 1056.09 487.135 1056.09 493.621C1056.09 498.105 1055.1 501.886 1053.12 504.965C1051.14 508.014 1048.32 510.136 1044.66 511.332L1057.35 544.107H1043.17L1031.29 511.062H1029.99V544.107H1016.62ZM1029.99 503.978C1030.17 503.978 1030.42 503.993 1030.75 504.023C1031.11 504.053 1031.38 504.068 1031.56 504.068C1035.04 504.068 1037.74 503.201 1039.66 501.467C1041.58 499.704 1042.54 497.238 1042.54 494.069C1042.54 490.901 1041.6 488.51 1039.71 486.895C1037.82 485.251 1035.04 484.429 1031.38 484.429H1029.99V503.978Z" fill="black"/>
<path d="M1080.35 534.647C1082.39 534.647 1083.83 533.406 1084.67 530.925C1085.54 528.414 1085.97 524.11 1085.97 518.012C1085.97 512.004 1085.54 507.73 1084.67 505.189C1083.8 502.618 1082.36 501.333 1080.35 501.333C1078.37 501.333 1076.93 502.633 1076.03 505.234C1075.16 507.834 1074.72 512.094 1074.72 518.012C1074.72 523.961 1075.16 528.22 1076.03 530.791C1076.93 533.361 1078.37 534.647 1080.35 534.647ZM1061.76 518.192C1061.76 509.105 1063.29 502.334 1066.35 497.88C1069.41 493.427 1074.08 491.2 1080.35 491.2C1086.68 491.2 1091.37 493.427 1094.44 497.88C1097.53 502.334 1099.07 509.105 1099.07 518.192C1099.07 527.308 1097.53 534.079 1094.44 538.503C1091.37 542.927 1086.68 545.138 1080.35 545.138C1074.08 545.138 1069.41 542.927 1066.35 538.503C1063.29 534.049 1061.76 527.278 1061.76 518.192Z" fill="black"/>
<path d="M1123.19 526.038C1123.19 529.206 1123.48 531.239 1124.05 532.136C1124.62 533.003 1125.71 533.436 1127.33 533.436C1127.49 533.436 1127.71 533.421 1128.01 533.391C1128.34 533.361 1128.58 533.346 1128.73 533.346V544.107C1127.11 544.287 1125.67 544.421 1124.41 544.511C1123.18 544.6 1122.19 544.645 1121.44 544.645C1117.33 544.645 1114.48 543.659 1112.89 541.686C1111.33 539.683 1110.55 535.588 1110.55 529.401V501.961H1105.51V492.321H1110.55V481.291H1123.19V492.321H1128.73V501.961H1123.19V526.038Z" fill="black"/>
<path d="M1147.63 512.408H1159.96C1159.93 508.372 1159.41 505.428 1158.39 503.575C1157.37 501.692 1155.78 500.75 1153.62 500.75C1151.67 500.75 1150.2 501.721 1149.21 503.664C1148.22 505.607 1147.69 508.522 1147.63 512.408ZM1170.95 529.894C1169.84 534.975 1167.84 538.816 1164.96 541.417C1162.08 544.018 1158.33 545.318 1153.71 545.318C1147.38 545.318 1142.73 543.166 1139.76 538.861C1136.79 534.557 1135.3 527.831 1135.3 518.685C1135.3 509.269 1136.79 502.349 1139.76 497.925C1142.76 493.501 1147.44 491.289 1153.8 491.289C1159.83 491.289 1164.38 493.307 1167.44 497.342C1170.53 501.378 1172.07 507.356 1172.07 515.277V520.613H1147.63V521.33C1147.63 526.202 1148.11 529.73 1149.07 531.912C1150.03 534.094 1151.58 535.185 1153.71 535.185C1155.24 535.185 1156.5 534.512 1157.49 533.167C1158.48 531.792 1159.12 529.804 1159.42 527.204L1170.95 529.894Z" fill="black"/>
<path d="M1178.06 535.454L1187.15 528.863C1187.93 530.836 1188.9 532.375 1190.07 533.481C1191.24 534.557 1192.49 535.095 1193.81 535.095C1195.04 535.095 1196.09 534.647 1196.96 533.75C1197.86 532.853 1198.31 531.777 1198.31 530.522C1198.31 528.34 1195.95 525.739 1191.24 522.72C1190.55 522.272 1190.03 521.928 1189.67 521.689C1185.74 519.178 1182.96 516.727 1181.34 514.336C1179.75 511.944 1178.96 509.194 1178.96 506.086C1178.96 501.811 1180.49 498.254 1183.55 495.414C1186.64 492.545 1190.49 491.11 1195.11 491.11C1198.5 491.11 1201.51 491.977 1204.12 493.711C1206.76 495.414 1208.72 497.791 1210.01 500.84L1201.64 506.444C1201.19 504.77 1200.37 503.41 1199.16 502.364C1197.99 501.288 1196.7 500.75 1195.29 500.75C1193.88 500.75 1192.74 501.154 1191.87 501.961C1191 502.738 1190.57 503.754 1190.57 505.01C1190.57 507.102 1192.74 509.478 1197.09 512.139C1198.86 513.215 1200.23 514.082 1201.19 514.739C1204.43 516.921 1206.77 519.178 1208.21 521.509C1209.65 523.811 1210.37 526.442 1210.37 529.401C1210.37 534.153 1208.86 537.98 1205.83 540.879C1202.83 543.778 1198.82 545.228 1193.81 545.228C1190.33 545.228 1187.22 544.391 1184.49 542.717C1181.79 541.014 1179.65 538.592 1178.06 535.454Z" fill="black"/>
<path d="M1242.28 544.107V473.938H1255.92V504.337H1256.59L1269.28 473.938H1283.28L1269.01 505.099L1283.6 544.107H1269.01L1256.59 506.444H1255.92V544.107H1242.28Z" fill="black"/>
<path d="M1289.54 544.018V492.321H1301.51V505.189H1302.09C1303.11 500.645 1304.79 497.178 1307.13 494.787C1309.48 492.395 1312.37 491.2 1315.82 491.2H1316.36V504.606C1315.97 504.576 1315.55 504.561 1315.1 504.561C1314.68 504.531 1314.08 504.516 1313.3 504.516C1309.49 504.516 1306.68 505.473 1304.88 507.386C1303.08 509.299 1302.18 512.258 1302.18 516.264V544.018H1289.54Z" fill="black"/>
<path d="M1332.7 512.408H1345.03C1345 508.372 1344.48 505.428 1343.45 503.575C1342.43 501.692 1340.84 500.75 1338.68 500.75C1336.73 500.75 1335.26 501.721 1334.27 503.664C1333.28 505.607 1332.76 508.522 1332.7 512.408ZM1356.01 529.894C1354.9 534.975 1352.91 538.816 1350.03 541.417C1347.15 544.018 1343.39 545.318 1338.77 545.318C1332.44 545.318 1327.79 543.166 1324.82 538.861C1321.85 534.557 1320.37 527.831 1320.37 518.685C1320.37 509.269 1321.85 502.349 1324.82 497.925C1327.82 493.501 1332.5 491.289 1338.86 491.289C1344.9 491.289 1349.44 493.307 1352.5 497.342C1355.59 501.378 1357.14 507.356 1357.14 515.277V520.613H1332.7V521.33C1332.7 526.202 1333.18 529.73 1334.14 531.912C1335.1 534.094 1336.64 535.185 1338.77 535.185C1340.3 535.185 1341.56 534.512 1342.55 533.167C1343.54 531.792 1344.19 529.804 1344.49 527.204L1356.01 529.894Z" fill="black"/>
<path d="M1365.24 522.451V492.321H1377.84V522.72C1377.84 527.293 1378.18 530.432 1378.87 532.136C1379.56 533.81 1380.74 534.647 1382.39 534.647C1384.01 534.647 1385.15 533.81 1385.81 532.136C1386.47 530.462 1386.8 527.323 1386.8 522.72V492.321H1399.44V522.451C1399.44 530.193 1398.05 535.932 1395.26 539.668C1392.47 543.375 1388.18 545.228 1382.39 545.228C1376.56 545.228 1372.24 543.36 1369.42 539.624C1366.63 535.887 1365.24 530.163 1365.24 522.451Z" fill="black"/>
<path d="M1405.83 544.107L1423.43 502.319H1408.13V492.321H1440.08L1423.07 533.436H1438.73V544.107H1405.83Z" fill="black"/>
<path d="M438.964 636.779C437.944 643.355 435.664 648.376 432.124 651.844C428.613 655.281 424.007 657 418.307 657C411.286 657 406.065 654.041 402.644 648.122C399.254 642.204 397.559 633.132 397.559 620.906C397.559 608.232 399.344 598.921 402.914 592.973C406.485 586.995 412.036 584.006 419.567 584.006C424.878 584.006 429.123 585.485 432.304 588.444C435.514 591.404 437.704 595.917 438.874 601.985L426.228 606.2C425.898 602.434 425.178 599.699 424.067 597.995C422.957 596.261 421.367 595.394 419.297 595.394C416.506 595.394 414.526 597.218 413.356 600.864C412.216 604.511 411.646 611.192 411.646 620.906C411.646 630.292 412.201 636.749 413.311 640.276C414.421 643.773 416.326 645.522 419.027 645.522C421.037 645.522 422.642 644.446 423.842 642.294C425.073 640.111 425.928 636.838 426.408 632.474L438.964 636.779Z" fill="black"/>
<path d="M446.841 655.52V603.824H458.812V616.692H459.397C460.417 612.148 462.098 608.681 464.438 606.29C466.778 603.898 469.674 602.703 473.124 602.703H473.664V616.109C473.274 616.079 472.854 616.064 472.404 616.064C471.984 616.034 471.384 616.019 470.604 616.019C466.793 616.019 463.988 616.976 462.188 618.889C460.387 620.802 459.487 623.761 459.487 627.766V655.52H446.841Z" fill="black"/>
<path d="M496.257 646.149C498.298 646.149 499.738 644.909 500.578 642.428C501.448 639.917 501.883 635.613 501.883 629.515C501.883 623.507 501.448 619.232 500.578 616.692C499.708 614.121 498.268 612.836 496.257 612.836C494.277 612.836 492.837 614.136 491.937 616.737C491.067 619.337 490.632 623.597 490.632 629.515C490.632 635.463 491.067 639.723 491.937 642.294C492.837 644.864 494.277 646.149 496.257 646.149ZM477.67 629.694C477.67 620.607 479.2 613.837 482.26 609.383C485.321 604.929 489.987 602.703 496.257 602.703C502.588 602.703 507.284 604.929 510.344 609.383C513.435 613.837 514.98 620.607 514.98 629.694C514.98 638.811 513.435 645.582 510.344 650.005C507.284 654.429 502.588 656.641 496.257 656.641C489.987 656.641 485.321 654.429 482.26 650.005C479.2 645.552 477.67 638.781 477.67 629.694Z" fill="black"/>
<path d="M554.946 642.024C553.985 646.777 552.11 650.424 549.32 652.965C546.559 655.476 543.034 656.731 538.743 656.731C532.832 656.731 528.482 654.549 525.691 650.185C522.901 645.821 521.506 639.035 521.506 629.829C521.506 620.144 522.916 613.194 525.737 608.98C528.587 604.735 533.223 602.613 539.643 602.613C544.054 602.613 547.565 603.838 550.175 606.29C552.785 608.741 554.345 612.268 554.856 616.871L543.604 619.337C543.604 617.245 543.229 615.631 542.479 614.495C541.729 613.329 540.664 612.746 539.283 612.746C537.543 612.746 536.343 613.912 535.683 616.243C535.023 618.575 534.693 623.806 534.693 631.936C534.693 637.197 535.038 640.859 535.728 642.921C536.418 644.954 537.603 645.97 539.283 645.97C540.454 645.97 541.414 645.387 542.164 644.222C542.914 643.056 543.514 641.188 543.964 638.617L554.946 642.024Z" fill="black"/>
<path d="M571.643 623.91H583.975C583.945 619.875 583.42 616.931 582.399 615.078C581.379 613.194 579.789 612.253 577.629 612.253C575.678 612.253 574.208 613.224 573.218 615.167C572.228 617.11 571.703 620.025 571.643 623.91ZM594.956 641.397C593.846 646.478 591.851 650.319 588.97 652.92C586.09 655.52 582.339 656.821 577.719 656.821C571.388 656.821 566.737 654.668 563.767 650.364C560.796 646.06 559.311 639.334 559.311 630.188C559.311 620.772 560.796 613.852 563.767 609.428C566.767 605.004 571.448 602.792 577.809 602.792C583.84 602.792 588.385 604.81 591.446 608.845C594.536 612.881 596.081 618.859 596.081 626.78V632.116H571.643V632.833C571.643 637.705 572.123 641.232 573.083 643.414C574.043 645.596 575.588 646.688 577.719 646.688C579.249 646.688 580.509 646.015 581.499 644.67C582.489 643.295 583.134 641.307 583.435 638.707L594.956 641.397Z" fill="black"/>
<path d="M627.856 655.61V585.44H644.823C652.234 585.44 657.83 587.099 661.61 590.417C665.421 593.735 667.326 598.637 667.326 605.124C667.326 609.607 666.336 613.389 664.356 616.467C662.375 619.516 659.555 621.639 655.895 622.834L668.586 655.61H654.409L642.528 622.565H641.223V655.61H627.856ZM641.223 615.481C641.403 615.481 641.658 615.496 641.988 615.526C642.348 615.556 642.618 615.571 642.798 615.571C646.278 615.571 648.979 614.704 650.899 612.97C652.819 611.207 653.779 608.741 653.779 605.572C653.779 602.404 652.834 600.012 650.944 598.398C649.054 596.754 646.278 595.932 642.618 595.932H641.223V615.481Z" fill="black"/>
<path d="M691.585 646.149C693.625 646.149 695.065 644.909 695.905 642.428C696.775 639.917 697.21 635.613 697.21 629.515C697.21 623.507 696.775 619.232 695.905 616.692C695.035 614.121 693.595 612.836 691.585 612.836C689.604 612.836 688.164 614.136 687.264 616.737C686.394 619.337 685.959 623.597 685.959 629.515C685.959 635.463 686.394 639.723 687.264 642.294C688.164 644.864 689.604 646.149 691.585 646.149ZM672.997 629.694C672.997 620.607 674.527 613.837 677.588 609.383C680.648 604.929 685.314 602.703 691.585 602.703C697.915 602.703 702.611 604.929 705.671 609.383C708.762 613.837 710.307 620.607 710.307 629.694C710.307 638.811 708.762 645.582 705.671 650.005C702.611 654.429 697.915 656.641 691.585 656.641C685.314 656.641 680.648 654.429 677.588 650.005C674.527 645.552 672.997 638.781 672.997 629.694Z" fill="black"/>
<path d="M716.743 646.957L725.834 640.366C726.614 642.338 727.59 643.878 728.76 644.984C729.93 646.06 731.175 646.598 732.495 646.598C733.725 646.598 734.776 646.149 735.646 645.253C736.546 644.356 736.996 643.28 736.996 642.024C736.996 639.842 734.64 637.242 729.93 634.223C729.24 633.775 728.715 633.431 728.355 633.192C724.424 630.681 721.649 628.23 720.028 625.838C718.438 623.447 717.643 620.697 717.643 617.588C717.643 613.314 719.173 609.757 722.234 606.917C725.324 604.048 729.18 602.613 733.8 602.613C737.191 602.613 740.191 603.48 742.802 605.213C745.442 606.917 747.407 609.294 748.697 612.343L740.326 617.947C739.876 616.273 739.051 614.913 737.851 613.867C736.681 612.791 735.391 612.253 733.98 612.253C732.57 612.253 731.43 612.656 730.56 613.463C729.69 614.241 729.255 615.257 729.255 616.512C729.255 618.605 731.43 620.981 735.781 623.641C737.551 624.717 738.916 625.584 739.876 626.242C743.117 628.424 745.457 630.681 746.897 633.012C748.337 635.314 749.057 637.944 749.057 640.904C749.057 645.656 747.542 649.482 744.512 652.382C741.511 655.281 737.506 656.731 732.495 656.731C729.015 656.731 725.909 655.894 723.179 654.22C720.479 652.516 718.333 650.095 716.743 646.957Z" fill="black"/>
<path d="M755.178 646.957L764.27 640.366C765.05 642.338 766.025 643.878 767.195 644.984C768.365 646.06 769.61 646.598 770.931 646.598C772.161 646.598 773.211 646.149 774.081 645.253C774.981 644.356 775.431 643.28 775.431 642.024C775.431 639.842 773.076 637.242 768.365 634.223C767.675 633.775 767.15 633.431 766.79 633.192C762.859 630.681 760.084 628.23 758.464 625.838C756.874 623.447 756.078 620.697 756.078 617.588C756.078 613.314 757.609 609.757 760.669 606.917C763.76 604.048 767.615 602.613 772.236 602.613C775.626 602.613 778.627 603.48 781.237 605.213C783.877 606.917 785.843 609.294 787.133 612.343L778.762 617.947C778.312 616.273 777.486 614.913 776.286 613.867C775.116 612.791 773.826 612.253 772.416 612.253C771.006 612.253 769.865 612.656 768.995 613.463C768.125 614.241 767.69 615.257 767.69 616.512C767.69 618.605 769.865 620.981 774.216 623.641C775.986 624.717 777.351 625.584 778.312 626.242C781.552 628.424 783.892 630.681 785.333 633.012C786.773 635.314 787.493 637.944 787.493 640.904C787.493 645.656 785.978 649.482 782.947 652.382C779.947 655.281 775.941 656.731 770.931 656.731C767.45 656.731 764.345 655.894 761.614 654.22C758.914 652.516 756.769 650.095 755.178 646.957Z" fill="black"/>
<path d="M817.467 655.61V645.701C816.357 649.169 814.932 651.784 813.191 653.548C811.451 655.281 809.411 656.148 807.071 656.148C802.99 656.148 799.87 653.876 797.709 649.333C795.579 644.76 794.514 638.154 794.514 629.515C794.514 620.518 795.504 613.822 797.484 609.428C799.494 605.004 802.525 602.792 806.575 602.792C809.246 602.792 811.451 603.659 813.191 605.393C814.962 607.126 816.387 609.847 817.467 613.553V603.824H830.114V655.61H817.467ZM818.097 629.246C818.097 624.374 817.632 620.667 816.702 618.126C815.802 615.556 814.467 614.27 812.696 614.27C810.836 614.27 809.486 615.481 808.646 617.902C807.836 620.323 807.431 624.299 807.431 629.829C807.431 634.94 807.851 638.722 808.691 641.173C809.531 643.624 810.836 644.849 812.606 644.849C814.467 644.849 815.847 643.579 816.747 641.038C817.647 638.467 818.097 634.537 818.097 629.246Z" fill="black"/>
<path d="M860.268 639.558L872.33 636.33C872.69 639.26 873.53 641.531 874.85 643.145C876.17 644.73 877.85 645.522 879.891 645.522C881.691 645.522 883.146 644.879 884.256 643.594C885.396 642.308 885.966 640.62 885.966 638.527C885.966 636.554 885.381 634.686 884.211 632.923C883.071 631.159 880.431 628.529 876.29 625.031C870.589 620.219 866.734 616.184 864.724 612.925C862.713 609.637 861.708 606.11 861.708 602.344C861.708 596.874 863.388 592.465 866.749 589.117C870.139 585.769 874.58 584.095 880.071 584.095C885.321 584.095 889.537 585.411 892.717 588.041C895.928 590.641 898.013 594.497 898.973 599.609L887.812 603.465C887.482 600.625 886.732 598.473 885.561 597.008C884.421 595.544 882.906 594.811 881.016 594.811C879.246 594.811 877.805 595.394 876.695 596.56C875.615 597.726 875.075 599.265 875.075 601.178C875.075 604.526 878.06 608.651 884.031 613.553C885.471 614.749 886.582 615.66 887.362 616.288C891.652 620.025 894.668 623.462 896.408 626.601C898.178 629.739 899.063 633.192 899.063 636.958C899.063 643.116 897.293 648.003 893.753 651.62C890.242 655.207 885.471 657 879.441 657C874.13 657 869.794 655.476 866.434 652.427C863.103 649.348 861.048 645.058 860.268 639.558Z" fill="black"/>
<path d="M914.365 655.61L901.359 603.824H914.815L917.696 621.265C918.176 624.523 918.656 628.08 919.136 631.936C919.646 635.762 920.111 639.798 920.531 644.042H921.476C922.016 638.991 922.527 634.597 923.007 630.86C923.517 627.124 923.952 624.389 924.312 622.655L928.002 603.824H941.009L927.372 655.61H914.365Z" fill="black"/>
<path d="M945.15 591.897C945.15 589.954 945.825 588.295 947.175 586.92C948.525 585.515 950.175 584.813 952.126 584.813C954.136 584.813 955.816 585.5 957.166 586.875C958.547 588.22 959.237 589.894 959.237 591.897C959.237 593.84 958.532 595.484 957.121 596.829C955.711 598.174 954.046 598.847 952.126 598.847C950.265 598.847 948.63 598.159 947.22 596.784C945.84 595.379 945.15 593.75 945.15 591.897ZM945.96 655.61V603.824H958.517V655.61H945.96Z" fill="black"/>
<path d="M965.493 655.61L983.09 613.822H967.788V603.824H999.742L982.73 644.939H998.392V655.61H965.493Z" fill="black"/>
<path d="M1001.41 655.61L1019 613.822H1003.7V603.824H1035.66L1018.64 644.939H1034.31V655.61H1001.41Z" fill="black"/>
<path d="M1051.86 623.91H1064.19C1064.16 619.875 1063.64 616.931 1062.62 615.078C1061.6 613.194 1060.01 612.253 1057.85 612.253C1055.9 612.253 1054.42 613.224 1053.43 615.167C1052.44 617.11 1051.92 620.025 1051.86 623.91ZM1075.17 641.397C1074.06 646.478 1072.07 650.319 1069.19 652.92C1066.31 655.52 1062.56 656.821 1057.94 656.821C1051.6 656.821 1046.95 654.668 1043.98 650.364C1041.01 646.06 1039.53 639.334 1039.53 630.188C1039.53 620.772 1041.01 613.852 1043.98 609.428C1046.98 605.004 1051.66 602.792 1058.03 602.792C1064.06 602.792 1068.6 604.81 1071.66 608.845C1074.75 612.881 1076.3 618.859 1076.3 626.78V632.116H1051.86V632.833C1051.86 637.705 1052.34 641.232 1053.3 643.414C1054.26 645.596 1055.81 646.688 1057.94 646.688C1059.47 646.688 1060.73 646.015 1061.72 644.67C1062.71 643.295 1063.35 641.307 1063.65 638.707L1075.17 641.397Z" fill="black"/>
<path d="M1084.85 655.52V603.824H1096.82V616.692H1097.41C1098.43 612.148 1100.11 608.681 1102.45 606.29C1104.79 603.898 1107.68 602.703 1111.13 602.703H1111.67V616.109C1111.28 616.079 1110.86 616.064 1110.41 616.064C1109.99 616.034 1109.39 616.019 1108.61 616.019C1104.8 616.019 1102 616.976 1100.2 618.889C1098.4 620.802 1097.5 623.761 1097.5 627.766V655.52H1084.85Z" fill="black"/>
<path d="M1139.44 655.61V645.701C1138.33 649.169 1136.91 651.784 1135.17 653.548C1133.43 655.281 1131.39 656.148 1129.05 656.148C1124.96 656.148 1121.84 653.876 1119.68 649.333C1117.55 644.76 1116.49 638.154 1116.49 629.515C1116.49 620.518 1117.48 613.822 1119.46 609.428C1121.47 605.004 1124.5 602.792 1128.55 602.792C1131.22 602.792 1133.43 603.659 1135.17 605.393C1136.94 607.126 1138.36 609.847 1139.44 613.553V603.824H1152.09V655.61H1139.44ZM1140.07 629.246C1140.07 624.374 1139.61 620.667 1138.68 618.126C1137.78 615.556 1136.44 614.27 1134.67 614.27C1132.81 614.27 1131.46 615.481 1130.62 617.902C1129.81 620.323 1129.41 624.299 1129.41 629.829C1129.41 634.94 1129.83 638.722 1130.67 641.173C1131.51 643.624 1132.81 644.849 1134.58 644.849C1136.44 644.849 1137.82 643.579 1138.72 641.038C1139.62 638.467 1140.07 634.537 1140.07 629.246Z" fill="black"/>
</g>
<defs>
<clipPath id="clip0">
<rect width="1440" height="1024" fill="white"/>
</clipPath>
</defs>
</svg>
