<svg version="1.1" x="0px" y="0px" viewBox="0 0 41.5 300" style="enable-background:new 0 0 41.5 300;" xml:space="preserve">
 <g id="header__kantonslogo-luzern"><path class="st1" d="M6.6,274.4V300h0.3v-25.6C6.9,274.4,6.6,274.4,6.6,274.4z M13.4,274.4l0,25.6h0.3v-25.6H13.4z M13.4,260.7h0.3v-76.9h-0.3C13.4,183.9,13.4,260.7,13.4,260.7z M20.2,274.4V300h0.3l0-25.6H20.2z M20.2,260.7h0.3v-76.9h-0.3V260.7z M11.8,275 L8,275v-0.3h4.5v0.1l-3.9,3.6H10l2.3,0v0.4H7.8v-0.1L11.8,275L11.8,275z M11.7,288.1l-3.7,0v-0.4h4.5v0.1l-3.9,3.6h1.7l2.1,0v0.4 H7.8v-0.1L11.7,288.1z M8.3,284.4v1.1l0,0h4.1v0.4H8.3l0,1.1H8v-2.6L8.3,284.4L8.3,284.4z M10,299.4L10,299.4l-2-2v-0.5l2.1,2 l2.3-2.1v0.5L10,299.4l2.3,0l0,0.4H8v-0.4C8,299.4,10,299.4,10,299.4z M18.3,289.9v-2.2l0.9,0l0,4.3l-2.4-1.8l-0.9-0.7l0,2h-1v-4.1 L18.3,289.9z M17.4,275.8L17.4,275.8l-2.6,0v-1.2h4.4v1.1l-2.6,2.1l2.6,0v1.2h-4.4v-1.1L17.4,275.8L17.4,275.8z M17.5,295.2 c0.3,0,0.6-0.2,0.7-0.5c0.1-0.3,0-0.7-0.2-0.9c-0.2-0.1-0.3-0.1-0.5-0.2h-2.7v-1.3h3c0.6,0,1.1,0.4,1.3,1c0.3,0.9,0.2,2-0.4,2.7 c-0.4,0.4-1,0.5-1.6,0.4h-2.3v-1.3L17.5,295.2z M15.7,284.3v1.6l0.7,0v-1.4h1v1.4l0.8,0l0-1.6h0.9v2.7h-4.4v-2.7L15.7,284.3 L15.7,284.3z M18.1,298.4l0-1.5h1l0,2.8h-4.3l0-1.3H18.1z M8,267.5v5.6l0.3,0v-5.6H8z M9.3,267.5v5.6l0.3,0l0-5.6H9.3z M10.7,267.5 v5.6l0.3,0l0-5.6C11,267.5,10.7,267.5,10.7,267.5z M12.1,267.6v5.6h0.3v-5.6H12.1z M13.4,267.6v5.6h0.3v-5.6H13.4z M14.8,267.6v5.6 h0.3l0-5.6H14.8z M16.1,267.6l0,5.4h0.3v-5.4H16.1z M17.5,267.6v4.8l0.3,0v-4.8H17.5z M18.9,267.6v3.7h0.3l0-3.7H18.9z M17.5,282.2 l1.6-1.3v-1.5l-1.1,1l-0.7,0.6c-0.1-0.3-0.2-0.5-0.4-0.7c-0.6-0.4-1.4-0.3-1.8,0.3c-0.2,0.2-0.2,0.5-0.3,0.7v2.2h4.4v-1.3H17.5 L17.5,282.2z M16.7,282.2h-1.1c0-0.3-0.1-0.7,0.2-0.8c0.2-0.1,0.4-0.1,0.6,0C16.8,281.5,16.7,281.9,16.7,282.2z M10.9,295.5v-2 c0,0,0.1,0,0.1-0.1l1.3-0.6v-0.4l-2.1,0.9l-0.8,0.4l-1.6,0.7v0.1l3.5,1.5l1,0.4v-0.4l-1.1-0.5L10.9,295.5L10.9,295.5z M10.6,295.3 l-2.1-0.8c0.7-0.3,1.4-0.6,2.1-0.8V295.3z M12.2,280.6c-0.7-1.1-2.2-1.4-3.3-0.7c-0.5,0.3-0.9,0.8-1,1.4c0,0.2-0.1,0.4-0.1,0.7 c0,0.2,0.1,0.4,0.1,0.6c0.2,0.8,0.8,1.3,1.6,1.5c1,0.3,2.1-0.1,2.6-0.9C12.6,282.4,12.6,281.4,12.2,280.6L12.2,280.6z M12.1,282.6 c-0.2,0.7-0.8,1.2-1.5,1.3c-0.8,0.2-1.5-0.1-2-0.7c-0.5-0.6-0.6-1.4-0.3-2.1c0.2-0.4,0.5-0.8,1-1c0.8-0.4,1.6-0.2,2.3,0.3 C12.1,280.9,12.4,281.8,12.1,282.6L12.1,282.6z"></path><path class="st1" d="M14.8,261.8H6.6v11.4h8.2c3.2-0.1,5.6-2.8,5.5-5.9C20.2,264.3,17.8,261.9,14.8,261.8z M14.8,273H6.9v-10.9h7.9c3,0,5.5,2.4,5.5,5.5C20.3,270.6,17.8,273,14.8,273L14.8,273z M6.6,260.7h0.3v-76.9H6.6C6.6,183.9,6.6,260.7,6.6,260.7z"></path></g>
</svg>