<svg xmlns="http://www.w3.org/2000/svg" width="600" height="600" viewBox="0 0 600 600"><g fill="none" fill-rule="evenodd" transform="translate(0 -1)"><circle cx="300" cy="301" r="300" fill-opacity=".3"/><circle cx="300" cy="301" r="265" fill-opacity=".3"/><circle cx="300" cy="301" r="230"/><path fill="#003057" d="M249.8 354.924c20.598-9.46 40.49-30.323 40.49-68.337 0-75.94-74.438-76.825-83.898-75.145 22.102 8.487 38.457 34.39 38.457 75.145 0 40.755-17.416 69.486-37.926 75.94 1.503 1.06 27.76 40.136 77.178 21.217-21.66-8.929-29.97-19.98-34.301-28.82z"/><path fill="#61A60E" d="M196.668 237.698c-9.017 7.692-17.24 26.61-17.24 49.42 0 22.808 8.223 41.726 17.24 49.418-16.709 18.742-56.05-1.68-56.05-49.773 0-50.921 39.164-67.807 56.05-49.065"/><path fill="#003057" d="M327.508 243.18c0-2.476 1.503-4.067 3.801-4.067h25.903c2.21 0 3.36 1.15 3.36 3.006v.442c0 1.945-1.15 2.917-3.36 2.917H334.58v12.554h17.505c2.298 0 3.359.972 3.359 2.829v.176c0 1.945-1.15 3.006-3.36 3.006H334.58v13.526h23.074c2.21 0 3.183.973 3.183 2.83v.353c0 2.033-.973 3.094-3.183 3.094H331.31a3.625 3.625 0 0 1-3.801-3.89V243.18zm43.319-.354a3.713 3.713 0 0 1 4.066-3.978h1.857c2.829 0 3.536 1.06 4.685 3.624l10.609 23.87 10.609-23.87c1.149-2.652 1.944-3.624 4.597-3.624h1.68c2.563 0 4.243 1.503 4.243 3.978v38.103c0 2.121-.884 3.27-3.006 3.27h-.972c-1.945 0-2.83-1.149-2.83-3.27v-32.887l-9.9 22.278c-.708 1.768-1.504 3.094-4.51 3.094-3.005 0-3.801-1.326-4.597-3.094l-9.724-22.013v32.622c0 2.121-.884 3.27-2.918 3.27h-1.149c-1.856 0-2.74-1.149-2.74-3.27v-38.103z"/><path fill="#003057" fill-rule="nonzero" d="M425.373 243.18c0-2.476 1.591-4.067 3.801-4.067h12.73c10.963 0 16.798 4.597 16.798 13.438 0 8.84-4.686 12.465-13.35 13.172l13.084 15.56c.266.353-1.237 2.917-4.155 2.917-2.917 0-3.182-.796-4.685-2.83l-12.2-14.94h-4.95v14.499c0 1.945-1.062 3.27-3.095 3.27h-.973c-1.944 0-3.005-1.325-3.005-3.712V243.18zm16.443 17.592c6.542 0 9.636-3.006 9.636-7.868s-3.27-7.868-9.901-7.868h-9.194v15.736h9.46zM327.508 301.97a3.625 3.625 0 0 1 3.801-3.978h12.73c10.875 0 16.71 4.597 16.71 13.438 0 8.84-4.686 12.376-13.35 13.084l13.084 15.559c.354.442-1.238 2.917-4.155 2.917-2.917 0-3.094-.707-4.685-2.74l-12.2-15.03h-4.951v14.5c0 1.944-.973 3.27-3.094 3.27h-.973c-1.945 0-2.917-1.326-2.917-3.624V301.97zm16.355 17.681c6.542 0 9.724-3.094 9.724-7.868 0-4.774-3.359-7.956-9.9-7.956h-9.195v15.824h9.37z"/><path fill="#003057" d="M371.003 301.616c0-2.387 1.592-3.89 4.067-3.89h1.857c2.74 0 3.536.972 4.597 3.536l10.608 23.87 10.697-23.87c1.061-2.564 1.857-3.536 4.509-3.536h1.768c2.564 0 4.155 1.503 4.155 3.89v38.102c0 2.21-.884 3.271-2.917 3.271h-.973c-2.033 0-2.829-1.06-2.829-3.27v-32.8l-9.901 22.279c-.796 1.768-1.503 3.006-4.597 3.006-3.094 0-3.713-1.238-4.509-3.006l-9.813-22.101v32.621c0 2.21-.795 3.271-2.829 3.271h-1.15c-1.944 0-2.74-1.06-2.74-3.27v-38.103zm54.547.353a3.625 3.625 0 0 1 3.8-3.978h25.904c2.21 0 3.36 1.06 3.36 3.006v.353c0 1.945-1.15 3.006-3.36 3.006H432.71v12.465h17.416c2.299 0 3.36.973 3.36 2.918v.176c0 1.945-1.061 3.006-3.36 3.006H432.71v13.526h22.986c2.21 0 3.27.973 3.27 2.83v.353c0 2.033-1.06 3.094-3.27 3.094H429.35c-2.299 0-3.801-1.503-3.801-3.978v-36.777z"/></g></svg>