<?xml version="1.0" encoding="utf-8"?>
<!-- Generator: Adobe Illustrator 22.0.1, SVG Export Plug-In . SVG Version: 6.00 Build 0)  -->
<svg version="1.1" id="Layer_1" xmlns="http://www.w3.org/2000/svg" xmlns:xlink="http://www.w3.org/1999/xlink" x="0px" y="0px"
	 viewBox="0 0 414 267.5" style="enable-background:new 0 0 414 267.5;" xml:space="preserve">
<style type="text/css">
	.st0{fill:#248BCC;}
	.st1{fill:#FFFFFF;}
	.st2{fill:none;stroke:#000000;}
	.st3{fill:none;stroke:#000000;stroke-miterlimit:10;}
</style>
<g>
	<path class="st0" d="M579.3,502.1c-0.3,3.7-0.5,7.5-0.5,11.3c0,71.4,57.8,129.3,129,129.3V330.2H579.3V502.1z"/>
	<path class="st1" d="M834.3,502.1V330.2H706v312.5c71.2-0.1,128.8-57.9,128.8-129.2C834.8,509.6,834.7,505.8,834.3,502.1z"/>
</g>
<path d="M40.4,89H43v19.3h-2.6V89z M55.8,108.2h-3.2l-9.2-10.1v-0.6l8.1-8.6h3l-8.6,8.8L55.8,108.2z"/>
<path d="M69,102.2h-7.7l-2.2,6h-2.6L64,88.7h2.4l7.5,19.5h-2.7L69,102.2z M68.3,100.3l-3.1-8.6l-3.1,8.6H68.3z"/>
<path d="M92.6,89v19.3l-2.3,0L79.5,93.1l0.1,6.7v8.4h-2.6V89h2.3l10.8,15.2L90,96.6V89H92.6z"/>
<path d="M111.7,90.9h-6.5v17.3h-2.6V90.9h-6.5v-2h15.5V90.9z"/>
<path d="M123.2,108.7c-2,0-3.7-0.4-5.1-1.3c-1.4-0.9-2.5-2.1-3.2-3.7c-0.7-1.5-1.1-3.2-1.1-5.1s0.4-3.5,1.1-5
	c0.7-1.5,1.8-2.7,3.2-3.6c1.4-0.9,3.1-1.4,5.1-1.4c2,0,3.7,0.5,5.1,1.4c1.4,0.9,2.5,2.1,3.2,3.6c0.7,1.5,1.1,3.2,1.1,5
	c0,1.9-0.4,3.6-1.1,5.1c-0.7,1.5-1.8,2.7-3.2,3.7C126.9,108.2,125.2,108.7,123.2,108.7z M123.2,106.6c1.4,0,2.7-0.3,3.7-1
	c1-0.7,1.8-1.7,2.3-2.9c0.5-1.2,0.8-2.6,0.8-4.1c0-1.5-0.3-2.9-0.8-4.1c-0.5-1.2-1.3-2.2-2.3-2.9c-1-0.7-2.2-1-3.6-1
	c-1.4,0-2.7,0.3-3.7,1c-1,0.7-1.8,1.7-2.3,2.9c-0.5,1.2-0.8,2.6-0.8,4.1c0,1.5,0.3,2.9,0.8,4.1c0.5,1.2,1.3,2.2,2.3,2.9
	C120.5,106.3,121.7,106.6,123.2,106.6z"/>
<path d="M152.3,89v19.3l-2.3,0l-10.8-15.1l0.1,6.7v8.4h-2.6V89h2.3l10.8,15.2l-0.1-7.5V89H152.3z"/>
<path d="M52.8,135.3v3.5h-13v-19.3h5.1v15.7H52.8z"/>
<path d="M64.1,139.2c-2.9,0-5.2-0.7-6.7-2.1c-1.5-1.4-2.3-3.4-2.3-5.9v-11.6h5.1v11.5c0,1.5,0.3,2.7,1,3.4c0.7,0.7,1.7,1,3,1
	c1.3,0,2.2-0.3,2.9-1c0.7-0.7,1-1.8,1-3.4v-11.5h5.1v11.5c0,2.5-0.8,4.5-2.3,6C69.3,138.4,67,139.2,64.1,139.2z"/>
<path d="M94.2,135.2v3.6H76.5V136l10.8-12.9H76.9v-3.6h17v3L83,135.2H94.2z"/>
<path d="M110.3,135.3v3.5h-13v-19.3h12.4v3.5h-7.4v3.8h6.2v3.5h-6.2v4.9H110.3z"/>
<path d="M121.8,131.7h-2.7v7.1H114v-19.3h7.7c2.7,0,4.7,0.5,6,1.4c1.3,0.9,1.9,2.4,1.9,4.4c0,2.6-0.9,4.4-2.8,5.2l5.4,8.2h-5.9
	L121.8,131.7z M119.1,128.2h2.6c1,0,1.7-0.2,2.1-0.6c0.5-0.4,0.7-1.1,0.7-1.9c0-0.9-0.2-1.6-0.6-2c-0.4-0.4-1.2-0.6-2.2-0.6h-2.6
	V128.2z"/>
<path d="M152.6,119.6v19.3l-4.6,0l-8.7-12.1l0.4,6.3v5.8h-5.1v-19.3h4.6l8.7,12l-0.4-6.2v-5.8H152.6z"/>
<path d="M47.5,160.9v3.5c-0.3,0.2-0.7,0.4-1.3,0.5c-0.5,0.1-1.1,0.2-1.7,0.2c-0.9,0-1.7-0.2-2.3-0.6c-0.6-0.4-1.1-0.9-1.4-1.6
	c-0.3-0.7-0.5-1.4-0.5-2.2c0-0.8,0.2-1.5,0.5-2.2c0.3-0.7,0.8-1.2,1.5-1.6c0.7-0.4,1.5-0.6,2.4-0.6c0.6,0,1.1,0.1,1.6,0.3
	c0.5,0.2,0.9,0.4,1.2,0.7L47,158c-0.3-0.3-0.6-0.5-1-0.6c-0.4-0.2-0.8-0.2-1.3-0.2c-0.7,0-1.3,0.2-1.8,0.5c-0.5,0.3-0.9,0.7-1.1,1.3
	c-0.2,0.5-0.4,1.1-0.4,1.8c0,0.7,0.1,1.3,0.4,1.8c0.2,0.5,0.6,1,1.1,1.3c0.5,0.3,1,0.5,1.7,0.5c0.7,0,1.3-0.1,1.9-0.2v-3H47.5z"/>
<path d="M51.4,164.3c0.4,0,0.8-0.1,1.1-0.3c0.3-0.2,0.6-0.4,1-0.7l0.4,0.7c-0.3,0.4-0.7,0.7-1.1,0.9c-0.4,0.2-0.9,0.3-1.4,0.3
	c-0.7,0-1.3-0.2-1.8-0.5c-0.5-0.3-0.8-0.8-1.1-1.3c-0.2-0.5-0.3-1.1-0.3-1.8c0-0.7,0.1-1.3,0.3-1.8c0.2-0.5,0.6-1,1.1-1.3
	c0.5-0.3,1.1-0.5,1.7-0.5c0.5,0,0.9,0.1,1.3,0.3c0.4,0.2,0.7,0.5,0.9,0.8c0.2,0.4,0.3,0.8,0.3,1.3c0,0.2,0,0.4-0.1,0.7h-4.5
	c0,0.1,0,0.2,0,0.3c0,0.8,0.2,1.5,0.5,2C50.2,164,50.7,164.3,51.4,164.3z M51.3,158.8c-0.5,0-0.9,0.1-1.2,0.4
	c-0.3,0.3-0.5,0.7-0.7,1.2h3.4v-0.1c0-0.5-0.1-0.8-0.4-1.1C52.1,159,51.7,158.8,51.3,158.8z"/>
<path d="M56.6,165.1c-0.5,0-0.9-0.1-1.3-0.2c-0.4-0.1-0.7-0.3-1-0.5l0.3-0.8c0.6,0.4,1.2,0.6,2,0.6c0.4,0,0.8-0.1,1-0.3
	c0.3-0.2,0.4-0.5,0.4-0.8c0-0.2-0.1-0.4-0.2-0.5c-0.1-0.1-0.3-0.3-0.5-0.4c-0.2-0.1-0.5-0.2-0.8-0.3c-0.4-0.2-0.8-0.3-1.1-0.4
	c-0.3-0.1-0.5-0.3-0.7-0.6c-0.2-0.2-0.3-0.6-0.3-0.9c0-0.6,0.2-1.1,0.6-1.4c0.4-0.3,1-0.5,1.7-0.5c0.8,0,1.5,0.2,2.1,0.6l-0.3,0.8
	c-0.5-0.4-1.1-0.6-1.8-0.6c-0.4,0-0.7,0.1-0.9,0.2c-0.2,0.2-0.3,0.4-0.3,0.7c0,0.3,0.1,0.5,0.4,0.7c0.2,0.2,0.6,0.3,1.1,0.5
	c0.4,0.2,0.8,0.3,1.1,0.4c0.3,0.1,0.5,0.3,0.7,0.6c0.2,0.3,0.3,0.6,0.3,1c0,0.6-0.2,1.1-0.7,1.5C58,164.9,57.4,165.1,56.6,165.1z"/>
<path d="M65.3,158.2v6.7h-0.9l-0.2-0.7c-0.8,0.6-1.6,0.9-2.3,0.9c-0.7,0-1.2-0.2-1.5-0.6c-0.3-0.4-0.4-0.9-0.4-1.7v-4.6h1.1v4.5
	c0,0.5,0.1,0.9,0.2,1.1c0.2,0.2,0.5,0.3,0.9,0.3c0.3,0,0.6-0.1,0.9-0.2c0.3-0.1,0.7-0.4,1-0.6v-5.1H65.3z"/>
<path d="M70.2,158c0.7,0,1.2,0.2,1.5,0.6c0.3,0.4,0.4,0.9,0.4,1.7v4.6H71v-4.5c0-0.5-0.1-0.9-0.2-1.1c-0.2-0.2-0.5-0.3-0.9-0.3
	c-0.3,0-0.6,0.1-0.9,0.2c-0.3,0.1-0.7,0.4-1,0.6v5.1h-1.1v-6.7h0.9l0.2,0.7C68.7,158.3,69.4,158,70.2,158z"/>
<path d="M78.7,154.9v10h-0.9l-0.1-0.6c-0.6,0.5-1.3,0.8-2,0.8c-0.5,0-1-0.1-1.4-0.4c-0.4-0.3-0.7-0.7-1-1.2
	c-0.2-0.5-0.3-1.1-0.3-1.9c0-1.2,0.3-2.1,0.9-2.7c0.6-0.6,1.4-0.9,2.5-0.9c0.5,0,0.9,0.1,1.2,0.2v-3.3H78.7z M74.1,161.7
	c0,0.9,0.2,1.6,0.5,2c0.3,0.4,0.7,0.6,1.2,0.6c0.3,0,0.7-0.1,0.9-0.2c0.3-0.1,0.6-0.3,0.9-0.5v-4.5c-0.3-0.1-0.7-0.2-1.2-0.2
	c-0.8,0-1.4,0.3-1.7,0.8C74.3,160.1,74.1,160.8,74.1,161.7z"/>
<path d="M83.6,158c0.7,0,1.2,0.2,1.5,0.6c0.3,0.4,0.4,0.9,0.4,1.7v4.6h-1.1v-4.5c0-0.5-0.1-0.9-0.2-1.1c-0.2-0.2-0.5-0.3-0.9-0.3
	c-0.3,0-0.6,0.1-0.9,0.2c-0.3,0.1-0.7,0.4-1,0.6v5.1h-1.1v-10h1.1v4C82.1,158.3,82.9,158,83.6,158z"/>
<path d="M89.6,164.3c0.4,0,0.8-0.1,1.1-0.3c0.3-0.2,0.6-0.4,1-0.7l0.4,0.7c-0.3,0.4-0.7,0.7-1.1,0.9c-0.4,0.2-0.9,0.3-1.4,0.3
	c-0.7,0-1.3-0.2-1.8-0.5c-0.5-0.3-0.8-0.8-1.1-1.3c-0.2-0.5-0.3-1.1-0.3-1.8c0-0.7,0.1-1.3,0.3-1.8c0.2-0.5,0.6-1,1.1-1.3
	c0.5-0.3,1.1-0.5,1.7-0.5c0.5,0,0.9,0.1,1.3,0.3c0.4,0.2,0.7,0.5,0.9,0.8c0.2,0.4,0.3,0.8,0.3,1.3c0,0.2,0,0.4-0.1,0.7h-4.5
	c0,0.1,0,0.2,0,0.3c0,0.8,0.2,1.5,0.5,2C88.4,164,88.9,164.3,89.6,164.3z M89.6,158.8c-0.5,0-0.9,0.1-1.2,0.4
	c-0.3,0.3-0.5,0.7-0.7,1.2H91v-0.1c0-0.5-0.1-0.8-0.4-1.1C90.3,159,90,158.8,89.6,158.8z"/>
<path d="M93.7,156.2c-0.2,0-0.4-0.1-0.5-0.2c-0.1-0.1-0.2-0.3-0.2-0.5c0-0.2,0.1-0.4,0.2-0.5c0.1-0.1,0.3-0.2,0.5-0.2
	c0.2,0,0.4,0.1,0.5,0.2c0.1,0.1,0.2,0.3,0.2,0.5c0,0.2-0.1,0.4-0.2,0.5C94.1,156.1,93.9,156.2,93.7,156.2z M93.2,158.2h1.1v6.7h-1.1
	V158.2z"/>
<path d="M99.6,164.6c-0.4,0.3-0.9,0.4-1.4,0.4c-0.7,0-1.2-0.2-1.6-0.6c-0.3-0.4-0.5-0.9-0.5-1.7v-3.7h-1.1v-0.5l1.2-0.3l0.3-1.6h0.7
	v1.6h2v0.8h-2v3.6c0,0.5,0.1,0.9,0.3,1.2c0.2,0.2,0.5,0.4,0.8,0.4c0.2,0,0.4,0,0.5-0.1c0.2,0,0.3-0.1,0.5-0.2L99.6,164.6z"/>
<path d="M102.1,165.1c-0.5,0-0.9-0.1-1.3-0.2c-0.4-0.1-0.7-0.3-1-0.5l0.3-0.8c0.6,0.4,1.2,0.6,2,0.6c0.4,0,0.8-0.1,1-0.3
	c0.3-0.2,0.4-0.5,0.4-0.8c0-0.2-0.1-0.4-0.2-0.5c-0.1-0.1-0.3-0.3-0.5-0.4c-0.2-0.1-0.5-0.2-0.8-0.3c-0.4-0.2-0.8-0.3-1.1-0.4
	c-0.3-0.1-0.5-0.3-0.7-0.6c-0.2-0.2-0.3-0.6-0.3-0.9c0-0.6,0.2-1.1,0.6-1.4c0.4-0.3,1-0.5,1.7-0.5c0.8,0,1.5,0.2,2.1,0.6l-0.3,0.8
	c-0.5-0.4-1.1-0.6-1.8-0.6c-0.4,0-0.7,0.1-0.9,0.2c-0.2,0.2-0.3,0.4-0.3,0.7c0,0.3,0.1,0.5,0.4,0.7c0.2,0.2,0.6,0.3,1.1,0.5
	c0.4,0.2,0.8,0.3,1.1,0.4c0.3,0.1,0.5,0.3,0.7,0.6c0.2,0.3,0.3,0.6,0.3,1c0,0.6-0.2,1.1-0.7,1.5
	C103.5,164.9,102.9,165.1,102.1,165.1z"/>
<path d="M104.7,161.1h2.8v0.8h-2.8V161.1z"/>
<path d="M115.6,158.2v6.7h-0.9l-0.2-0.7c-0.8,0.6-1.6,0.9-2.3,0.9c-0.7,0-1.2-0.2-1.5-0.6c-0.3-0.4-0.4-0.9-0.4-1.7v-4.6h1.1v4.5
	c0,0.5,0.1,0.9,0.2,1.1c0.2,0.2,0.5,0.3,0.9,0.3c0.3,0,0.6-0.1,0.9-0.2c0.3-0.1,0.7-0.4,1-0.6v-5.1H115.6z"/>
<path d="M120.5,158c0.7,0,1.2,0.2,1.5,0.6c0.3,0.4,0.4,0.9,0.4,1.7v4.6h-1.1v-4.5c0-0.5-0.1-0.9-0.2-1.1c-0.2-0.2-0.5-0.3-0.9-0.3
	c-0.3,0-0.6,0.1-0.9,0.2c-0.3,0.1-0.7,0.4-1,0.6v5.1h-1.1v-6.7h0.9l0.2,0.7C119,158.3,119.7,158,120.5,158z"/>
<path d="M129,154.9v10h-0.9l-0.1-0.6c-0.6,0.5-1.3,0.8-2,0.8c-0.5,0-1-0.1-1.4-0.4c-0.4-0.3-0.7-0.7-1-1.2c-0.2-0.5-0.3-1.1-0.3-1.9
	c0-1.2,0.3-2.1,0.9-2.7c0.6-0.6,1.4-0.9,2.5-0.9c0.5,0,0.9,0.1,1.2,0.2v-3.3H129z M124.4,161.7c0,0.9,0.2,1.6,0.5,2
	c0.3,0.4,0.7,0.6,1.2,0.6c0.3,0,0.7-0.1,0.9-0.2c0.3-0.1,0.6-0.3,0.9-0.5v-4.5c-0.3-0.1-0.7-0.2-1.2-0.2c-0.8,0-1.4,0.3-1.7,0.8
	C124.6,160.1,124.4,160.8,124.4,161.7z"/>
<path d="M135.3,165.1c-0.6,0-1.2-0.1-1.6-0.2c-0.5-0.1-0.9-0.3-1.3-0.6l0.4-0.8c0.7,0.5,1.5,0.7,2.5,0.7c0.6,0,1-0.1,1.4-0.4
	c0.4-0.3,0.6-0.6,0.6-1.1c0-0.3-0.1-0.5-0.3-0.7c-0.2-0.2-0.4-0.4-0.7-0.5c-0.3-0.1-0.6-0.3-1.1-0.4c-0.6-0.2-1-0.4-1.3-0.5
	c-0.3-0.2-0.6-0.4-0.9-0.7c-0.2-0.3-0.3-0.7-0.3-1.2c0-0.7,0.3-1.3,0.8-1.7c0.5-0.4,1.2-0.6,2-0.6c1,0,1.9,0.3,2.6,0.8l-0.4,0.8
	c-0.7-0.5-1.4-0.7-2.2-0.7c-0.5,0-0.9,0.1-1.2,0.4c-0.3,0.2-0.5,0.6-0.5,1c0,0.3,0.1,0.5,0.3,0.7c0.2,0.2,0.4,0.3,0.6,0.5
	c0.3,0.1,0.6,0.3,1.1,0.4c0.6,0.2,1,0.4,1.3,0.6c0.3,0.2,0.6,0.4,0.9,0.7c0.2,0.3,0.4,0.7,0.4,1.2c0,0.5-0.1,0.9-0.4,1.3
	c-0.3,0.4-0.6,0.7-1.1,0.9C136.4,165,135.9,165.1,135.3,165.1z"/>
<path d="M142,165.1c-0.7,0-1.3-0.2-1.8-0.5c-0.5-0.3-0.8-0.7-1.1-1.3c-0.2-0.5-0.3-1.1-0.3-1.8c0-0.7,0.1-1.3,0.3-1.8
	c0.2-0.5,0.6-1,1.1-1.3c0.5-0.3,1.1-0.5,1.8-0.5c0.7,0,1.3,0.2,1.7,0.5c0.5,0.3,0.8,0.8,1.1,1.3c0.2,0.5,0.4,1.1,0.4,1.8
	c0,0.6-0.1,1.2-0.4,1.8c-0.2,0.5-0.6,1-1.1,1.3C143.3,165,142.7,165.1,142,165.1z M142,164.3c0.7,0,1.2-0.2,1.5-0.7
	c0.4-0.5,0.5-1.1,0.5-2c0-0.8-0.2-1.5-0.5-2c-0.4-0.5-0.9-0.7-1.5-0.7c-0.7,0-1.2,0.2-1.5,0.7c-0.3,0.5-0.5,1.1-0.5,2
	c0,0.8,0.2,1.5,0.5,2C140.8,164,141.3,164.3,142,164.3z"/>
<path d="M150.7,164.1v0.8h-5.2v-0.6l3.8-5.2h-3.7v-0.8h5v0.6l-3.8,5.2H150.7z"/>
<path d="M152.2,156.2c-0.2,0-0.4-0.1-0.5-0.2c-0.1-0.1-0.2-0.3-0.2-0.5c0-0.2,0.1-0.4,0.2-0.5c0.1-0.1,0.3-0.2,0.5-0.2
	c0.2,0,0.4,0.1,0.5,0.2c0.1,0.1,0.2,0.3,0.2,0.5c0,0.2-0.1,0.4-0.2,0.5C152.6,156.1,152.4,156.2,152.2,156.2z M151.7,158.2h1.1v6.7
	h-1.1V158.2z"/>
<path d="M159.9,164.9c-0.3,0.1-0.6,0.2-0.9,0.2c-0.3,0-0.6-0.1-0.8-0.2c-0.2-0.1-0.3-0.4-0.4-0.7c-0.8,0.6-1.5,0.9-2.2,0.9
	c-0.5,0-0.9-0.1-1.3-0.4c-0.3-0.3-0.5-0.7-0.5-1.1c0-0.4,0.1-0.8,0.3-1c0.2-0.3,0.6-0.5,1-0.7c0.4-0.2,1-0.4,1.7-0.6l0.9-0.3v-0.5
	c0-1-0.4-1.5-1.1-1.5c-0.4,0-0.8,0.1-1.1,0.3c-0.3,0.2-0.7,0.5-1.2,0.9l-0.5-0.7c0.9-0.9,1.9-1.4,3-1.4c0.7,0,1.2,0.2,1.5,0.6
	c0.3,0.4,0.5,1,0.5,1.9v3.3c0,0.2,0,0.3,0.1,0.4c0.1,0.1,0.2,0.1,0.3,0.1c0.1,0,0.3,0,0.5-0.1L159.9,164.9z M154.9,163.4
	c0,0.3,0.1,0.5,0.2,0.6c0.2,0.1,0.4,0.2,0.7,0.2c0.3,0,0.6-0.1,0.9-0.2c0.3-0.1,0.7-0.4,1.1-0.6v-1.7l-0.7,0.2
	c-0.8,0.2-1.3,0.5-1.7,0.7C155.1,162.8,154.9,163,154.9,163.4z"/>
<path d="M160.5,154.9h1.1v10h-1.1V154.9z"/>
<path d="M168.3,154.9v10h-0.9l-0.1-0.6c-0.6,0.5-1.3,0.8-2,0.8c-0.5,0-1-0.1-1.4-0.4c-0.4-0.3-0.7-0.7-1-1.2
	c-0.2-0.5-0.3-1.1-0.3-1.9c0-1.2,0.3-2.1,0.9-2.7c0.6-0.6,1.4-0.9,2.5-0.9c0.5,0,0.9,0.1,1.2,0.2v-3.3H168.3z M163.7,161.7
	c0,0.9,0.2,1.6,0.5,2c0.3,0.4,0.7,0.6,1.2,0.6c0.3,0,0.7-0.1,0.9-0.2c0.3-0.1,0.6-0.3,0.9-0.5v-4.5c-0.3-0.1-0.7-0.2-1.2-0.2
	c-0.8,0-1.4,0.3-1.7,0.8C163.9,160.1,163.7,160.8,163.7,161.7z"/>
<path d="M172.4,164.3c0.4,0,0.8-0.1,1.1-0.3c0.3-0.2,0.6-0.4,1-0.7l0.4,0.7c-0.3,0.4-0.7,0.7-1.1,0.9c-0.4,0.2-0.9,0.3-1.4,0.3
	c-0.7,0-1.3-0.2-1.8-0.5c-0.5-0.3-0.8-0.8-1.1-1.3c-0.2-0.5-0.3-1.1-0.3-1.8c0-0.7,0.1-1.3,0.3-1.8c0.2-0.5,0.6-1,1.1-1.3
	c0.5-0.3,1.1-0.5,1.7-0.5c0.5,0,0.9,0.1,1.3,0.3c0.4,0.2,0.7,0.5,0.9,0.8c0.2,0.4,0.3,0.8,0.3,1.3c0,0.2,0,0.4-0.1,0.7h-4.5
	c0,0.1,0,0.2,0,0.3c0,0.8,0.2,1.5,0.5,2C171.2,164,171.7,164.3,172.4,164.3z M172.4,158.8c-0.5,0-0.9,0.1-1.2,0.4
	c-0.3,0.3-0.5,0.7-0.7,1.2h3.3v-0.1c0-0.5-0.1-0.8-0.4-1.1C173.1,159,172.8,158.8,172.4,158.8z"/>
<path d="M178.9,158c0.5,0,1,0.1,1.4,0.4c0.4,0.3,0.7,0.7,1,1.2c0.2,0.5,0.3,1.1,0.3,1.8c0,1.2-0.3,2.1-0.9,2.7
	c-0.6,0.6-1.4,0.9-2.5,0.9c-0.4,0-0.9-0.1-1.2-0.2v2.9h-1.1v-9.6h0.9l0.1,0.6C177.5,158.3,178.1,158,178.9,158z M178.2,164.3
	c0.8,0,1.4-0.3,1.7-0.8c0.4-0.5,0.6-1.2,0.6-2.1c0-0.9-0.2-1.5-0.5-1.9c-0.3-0.4-0.7-0.6-1.2-0.6c-0.4,0-0.7,0.1-0.9,0.2
	c-0.3,0.1-0.6,0.3-0.9,0.5v4.5C177.3,164.2,177.7,164.3,178.2,164.3z"/>
<path d="M188,164.9c-0.3,0.1-0.6,0.2-0.9,0.2c-0.3,0-0.6-0.1-0.8-0.2c-0.2-0.1-0.3-0.4-0.4-0.7c-0.8,0.6-1.5,0.9-2.2,0.9
	c-0.5,0-0.9-0.1-1.3-0.4c-0.3-0.3-0.5-0.7-0.5-1.1c0-0.4,0.1-0.8,0.3-1c0.2-0.3,0.6-0.5,1-0.7c0.4-0.2,1-0.4,1.7-0.6l0.9-0.3v-0.5
	c0-1-0.4-1.5-1.1-1.5c-0.4,0-0.8,0.1-1.1,0.3c-0.3,0.2-0.7,0.5-1.2,0.9l-0.5-0.7c0.9-0.9,1.9-1.4,3-1.4c0.7,0,1.2,0.2,1.5,0.6
	c0.3,0.4,0.5,1,0.5,1.9v3.3c0,0.2,0,0.3,0.1,0.4c0.1,0.1,0.2,0.1,0.3,0.1c0.1,0,0.3,0,0.5-0.1L188,164.9z M183.1,163.4
	c0,0.3,0.1,0.5,0.2,0.6c0.2,0.1,0.4,0.2,0.7,0.2c0.3,0,0.6-0.1,0.9-0.2c0.3-0.1,0.7-0.4,1.1-0.6v-1.7l-0.7,0.2
	c-0.8,0.2-1.3,0.5-1.7,0.7C183.3,162.8,183.1,163,183.1,163.4z"/>
<path d="M192.1,159.1c-0.4,0-0.8,0.1-1.1,0.2c-0.4,0.1-0.8,0.4-1.2,0.7v4.9h-1.1v-6.7h0.9l0.2,0.9c0.4-0.4,0.8-0.7,1.2-0.9
	c0.4-0.2,0.8-0.2,1.2-0.2V159.1z"/>
<path d="M196.5,164.6c-0.4,0.3-0.9,0.4-1.4,0.4c-0.7,0-1.2-0.2-1.6-0.6c-0.3-0.4-0.5-0.9-0.5-1.7v-3.7H192v-0.5l1.2-0.3l0.3-1.6h0.7
	v1.6h2v0.8h-2v3.6c0,0.5,0.1,0.9,0.3,1.2c0.2,0.2,0.5,0.4,0.8,0.4c0.2,0,0.4,0,0.5-0.1c0.2,0,0.3-0.1,0.5-0.2L196.5,164.6z"/>
<path d="M199.9,164.3c0.4,0,0.8-0.1,1.1-0.3c0.3-0.2,0.6-0.4,1-0.7l0.4,0.7c-0.3,0.4-0.7,0.7-1.1,0.9c-0.4,0.2-0.9,0.3-1.4,0.3
	c-0.7,0-1.3-0.2-1.8-0.5c-0.5-0.3-0.8-0.8-1.1-1.3c-0.2-0.5-0.3-1.1-0.3-1.8c0-0.7,0.1-1.3,0.3-1.8c0.2-0.5,0.6-1,1.1-1.3
	c0.5-0.3,1.1-0.5,1.7-0.5c0.5,0,0.9,0.1,1.3,0.3c0.4,0.2,0.7,0.5,0.9,0.8c0.2,0.4,0.3,0.8,0.3,1.3c0,0.2,0,0.4-0.1,0.7h-4.5
	c0,0.1,0,0.2,0,0.3c0,0.8,0.2,1.5,0.5,2C198.7,164,199.2,164.3,199.9,164.3z M199.9,158.8c-0.5,0-0.9,0.1-1.2,0.4
	c-0.3,0.3-0.5,0.7-0.7,1.2h3.3v-0.1c0-0.5-0.1-0.8-0.4-1.1C200.6,159,200.3,158.8,199.9,158.8z"/>
<path d="M210.6,158c0.7,0,1.2,0.2,1.4,0.6c0.3,0.4,0.4,0.9,0.4,1.7v4.6h-1.1v-4.5c0-0.5-0.1-0.9-0.2-1.1c-0.1-0.2-0.4-0.3-0.8-0.3
	c-0.3,0-0.6,0.1-0.9,0.2c-0.3,0.1-0.6,0.4-1,0.6c0,0.1,0,0.3,0,0.5v4.6h-1.1v-4.5c0-0.5-0.1-0.9-0.2-1.1c-0.1-0.2-0.4-0.3-0.8-0.3
	c-0.3,0-0.6,0.1-0.9,0.2c-0.3,0.1-0.6,0.4-1,0.6v5.1h-1.1v-6.7h0.9l0.2,0.7c0.8-0.6,1.5-0.9,2.2-0.9c0.5,0,0.8,0.1,1.1,0.2
	c0.3,0.2,0.5,0.4,0.6,0.7C209.2,158.3,209.9,158,210.6,158z"/>
<path d="M216.6,164.3c0.4,0,0.8-0.1,1.1-0.3c0.3-0.2,0.6-0.4,1-0.7l0.4,0.7c-0.3,0.4-0.7,0.7-1.1,0.9c-0.4,0.2-0.9,0.3-1.4,0.3
	c-0.7,0-1.3-0.2-1.8-0.5c-0.5-0.3-0.8-0.8-1.1-1.3c-0.2-0.5-0.3-1.1-0.3-1.8c0-0.7,0.1-1.3,0.3-1.8c0.2-0.5,0.6-1,1.1-1.3
	c0.5-0.3,1.1-0.5,1.7-0.5c0.5,0,0.9,0.1,1.3,0.3c0.4,0.2,0.7,0.5,0.9,0.8c0.2,0.4,0.3,0.8,0.3,1.3c0,0.2,0,0.4-0.1,0.7h-4.5
	c0,0.1,0,0.2,0,0.3c0,0.8,0.2,1.5,0.5,2C215.4,164,215.9,164.3,216.6,164.3z M216.5,158.8c-0.5,0-0.9,0.1-1.2,0.4
	c-0.3,0.3-0.5,0.7-0.7,1.2h3.3v-0.1c0-0.5-0.1-0.8-0.4-1.1C217.2,159,216.9,158.8,216.5,158.8z"/>
<path d="M223.4,158c0.7,0,1.2,0.2,1.5,0.6c0.3,0.4,0.4,0.9,0.4,1.7v4.6h-1.1v-4.5c0-0.5-0.1-0.9-0.2-1.1c-0.2-0.2-0.5-0.3-0.9-0.3
	c-0.3,0-0.6,0.1-0.9,0.2c-0.3,0.1-0.7,0.4-1,0.6v5.1H220v-6.7h0.9l0.2,0.7C221.9,158.3,222.6,158,223.4,158z"/>
<path d="M230.5,164.6c-0.4,0.3-0.9,0.4-1.4,0.4c-0.7,0-1.2-0.2-1.6-0.6c-0.3-0.4-0.5-0.9-0.5-1.7v-3.7H226v-0.5l1.2-0.3l0.3-1.6h0.7
	v1.6h2v0.8h-2v3.6c0,0.5,0.1,0.9,0.3,1.2c0.2,0.2,0.5,0.4,0.8,0.4c0.2,0,0.4,0,0.5-0.1c0.2,0,0.3-0.1,0.5-0.2L230.5,164.6z"/>
<path class="st2" d="M216.2,84.2h151.5"/>
<path class="st2" d="M39.8,84.6h113.6"/>
<path class="st2" d="M216.2,112.7h151.5"/>
<path class="st2" d="M39.8,112.7h113.6"/>
<path class="st2" d="M215.9,144.5h151.5"/>
<path class="st2" d="M39.8,144.5h113.6"/>
<g>
	<path class="st3" d="M212.5,119.3c0-0.8,0-1.6-0.1-2.4V81.5h-26.1h-0.4h-26.1V117c-0.1,0.8-0.1,1.5-0.1,2.3
		c0,14.6,11.7,26.5,26.2,26.7v0c0.1,0,0.1,0,0.2,0c0.1,0,0.1,0,0.2,0v0C200.8,145.8,212.5,133.9,212.5,119.3z"/>
	<g>
		<path class="st0" d="M159.7,117c-0.1,0.8-0.1,1.5-0.1,2.3c0,14.7,11.9,26.7,26.6,26.7V81.5h-26.5V117z"/>
		<path class="st1" d="M212.4,117V81.5h-26.5V146c14.7,0,26.6-11.9,26.6-26.7C212.5,118.5,212.4,117.8,212.4,117z"/>
	</g>
</g>
</svg>
