<?xml version="1.0" encoding="utf-8"?>
<!-- Generator: Adobe Illustrator 22.0.1, SVG Export Plug-In . SVG Version: 6.00 Build 0)  -->
<svg version="1.1" id="Layer_1" xmlns="http://www.w3.org/2000/svg" xmlns:xlink="http://www.w3.org/1999/xlink" x="0px" y="0px"
	 viewBox="0 0 414 267.5" style="enable-background:new 0 0 414 267.5;" xml:space="preserve">
<style type="text/css">
	.st0{fill:#E0050B;}
</style>
<path class="st0" d="M174.5,30.2h-72.1v67.3H30.3v72.1h72.1v72.1h72.1v-72.1h67.3V97.5h-67.3V30.2z"/>
<g>
	<path d="M261.1,152.4l12-3.2c0.4,2.9,1.2,5.2,2.5,6.8c1.3,1.6,3,2.4,5,2.4c1.8,0,3.3-0.6,4.4-1.9c1.1-1.3,1.7-3,1.7-5.1
		c0-2-0.6-3.8-1.7-5.6s-3.8-4.4-7.9-7.9c-5.7-4.8-9.5-8.9-11.5-12.1c-2-3.3-3-6.8-3-10.6c0-5.5,1.7-9.9,5-13.2c3.4-3.4,7.8-5,13.3-5
		c5.2,0,9.4,1.3,12.6,3.9c3.2,2.6,5.3,6.5,6.2,11.6l-11.1,3.9c-0.3-2.8-1.1-5-2.2-6.5s-2.7-2.2-4.6-2.2c-1.8,0-3.2,0.6-4.3,1.8
		s-1.6,2.7-1.6,4.6c0,3.4,3,7.5,8.9,12.4c1.4,1.2,2.5,2.1,3.3,2.7c4.3,3.7,7.3,7.2,9,10.3c1.8,3.1,2.6,6.6,2.6,10.4
		c0,6.2-1.8,11-5.3,14.7c-3.5,3.6-8.3,5.4-14.3,5.4c-5.3,0-9.6-1.5-12.9-4.6S261.9,157.9,261.1,152.4z"/>
	<path d="M307.8,168.5V98.2h16.9c7.4,0,13,1.7,16.8,5s5.7,8.2,5.7,14.7c0,4.5-1,8.3-3,11.3s-4.8,5.2-8.4,6.4l12.7,32.8h-14.1
		l-11.8-33.1h-1.3v33.1H307.8z M321.1,128.3c0.2,0,0.4,0,0.8,0c0.3,0,0.6,0,0.8,0c3.5,0,6.2-0.9,8.1-2.6c1.9-1.8,2.9-4.2,2.9-7.4
		s-0.9-5.6-2.8-7.2c-1.9-1.6-4.7-2.4-8.3-2.4h-1.4V128.3z"/>
	<path d="M357,168.5V98.2h13.6v30.4h0.7L384,98.2h14l-14.2,31.2l14.5,39.1h-14.5l-12.4-37.7h-0.7v37.7H357z"/>
</g>
</svg>
