<svg width="1440" height="1024" viewBox="0 0 1440 1024" fill="none" xmlns="http://www.w3.org/2000/svg">
<g clip-path="url(#clip0)">
<rect width="1440" height="1024"/>
<path d="M319.567 625.702C284.101 638.472 219.712 626.047 217.991 625.702C185.969 656.764 165.309 692.659 159.111 726.137C202.496 732.695 257.932 718.199 307.86 682.649C357.098 647.79 388.776 600.852 397.384 558.054C384.988 587.391 351.933 614.312 319.567 625.702Z" fill="#015B7C"/>
<path d="M326.453 316.802C383.266 376.511 429.062 457.274 400.827 548.045C400.827 548.39 400.827 548.736 400.483 548.736V549.081C429.062 485.575 437.326 392.043 414.944 292.988C391.53 190.481 365.017 100.4 322.665 51.0453C297.53 101.781 277.214 191.517 282.035 278.147C296.497 290.227 312.68 302.652 326.453 316.802Z" fill="#51AFE3"/>
<path d="M283.182 575.597C311.417 557.304 337.241 549.366 357.901 546.26C357.557 546.26 356.868 545.915 356.524 545.915C355.146 545.569 353.425 544.879 352.047 544.534C351.359 544.189 350.67 544.189 349.981 543.844C347.915 543.153 346.194 542.463 344.128 541.773C343.784 541.773 343.439 541.428 343.439 541.428C324.157 533.835 304.53 523.826 285.593 511.401C268.376 509.33 250.127 508.64 231.534 509.675C161.636 513.472 101.034 540.047 66.6019 576.632C102.067 607.004 158.537 625.642 222.237 624.951C222.925 623.916 238.764 604.588 283.182 575.597Z" fill="#C2CDBE"/>
<path d="M340.736 542.665C342.802 543.355 344.524 544.046 346.59 544.736C347.278 545.081 347.967 545.081 348.656 545.426C350.033 546.116 351.755 546.462 353.132 546.807C353.476 546.807 354.165 547.152 354.509 547.152C355.198 547.152 355.542 546.807 356.231 546.807C336.26 528.169 303.579 437.916 287.74 344.038C283.608 320.224 281.857 299.342 282.545 277.598C229.864 226.863 168.229 195.455 111.416 188.898C102.463 260.341 128.976 348.697 189.233 425.318C217.124 460.867 249.146 490.204 282.545 512.293C301.483 524.718 320.765 534.727 340.392 542.32C340.392 542.32 340.392 542.665 340.736 542.665Z" fill="#02A5A9"/>
<path d="M398.073 556.329C398.073 556.674 397.728 557.019 397.728 557.364L398.073 556.329Z" fill="#028695"/>
<path d="M400.483 549.081C400.483 548.735 400.483 548.39 400.827 548.39C400.827 548.39 400.827 548.735 400.483 549.081Z" fill="#028695"/>
<path d="M286.167 343.033C302.006 436.911 335.405 528.373 355.376 547.01C382.922 543.214 400.827 548.045 400.827 548.045C429.062 457.274 383.267 376.166 326.453 316.802C313.024 302.652 296.497 290.227 282.035 278.147C281.002 299.891 282.035 319.564 286.167 343.033Z" fill="#028695"/>
<path d="M398.072 556.329C399.105 553.913 399.794 551.497 400.483 549.081V548.735C400.483 548.39 400.827 548.045 400.827 548.045C400.827 548.045 382.922 543.213 355.376 547.01C354.688 547.01 354.343 547.355 353.655 547.355C332.995 550.461 307.171 558.399 278.936 576.692C234.174 605.683 218.335 625.011 217.991 625.701C219.712 626.047 284.101 638.126 319.566 625.701C351.933 613.967 384.988 587.046 397.384 558.054C397.384 557.709 397.728 557.709 397.728 557.364C397.728 557.019 398.072 556.674 398.072 556.329Z" fill="#3C7DA9"/>
<path d="M666.302 449.335C634.968 427.247 620.507 416.892 584.697 416.892C553.708 416.892 543.034 423.45 540.968 445.884C538.213 473.495 566.448 475.566 627.738 493.513C682.485 509.735 714.163 531.478 714.163 584.975C714.163 660.215 654.939 686.101 592.272 686.101C508.945 686.101 466.938 639.507 459.363 633.294L501.715 585.32C518.587 600.161 553.363 623.631 594.338 623.631C629.804 623.631 643.921 617.073 643.921 590.497C643.921 565.302 623.95 564.267 560.25 545.284C510.323 530.443 471.758 513.531 471.758 448.3C471.758 390.317 516.176 352.697 587.796 352.697C652.529 352.697 698.324 391.007 703.145 396.529L666.302 449.335Z" fill="#69757C"/>
<path d="M760.992 353.042H829.168L977.916 553.567L977.572 353.042H1047.81L1046.78 676.092H985.836L829.168 469.008V675.746H760.647L760.992 353.042Z" fill="#69757C"/>
<path d="M1362.18 410.68H1187.95V480.398H1341.52V542.523H1187.95V614.312H1365.28V673.33H1119.43V353.042H1362.18V410.68Z" fill="#69757C"/>
<path d="M501.026 769.624C500.681 764.792 497.582 762.377 491.729 762.377C486.908 762.377 483.809 764.447 483.809 767.899C483.809 772.04 488.974 772.386 498.96 775.147C507.568 777.563 513.421 781.014 513.421 789.297C513.421 801.032 503.092 805.174 493.106 805.174C479.677 805.174 472.102 798.616 471.758 787.572H482.432C482.776 794.129 486.908 796.89 493.45 796.89C498.96 796.89 502.403 794.474 502.403 790.333C502.403 786.536 498.96 785.846 488.974 782.74C481.055 780.324 473.48 778.598 473.48 768.589C473.48 759.615 481.055 753.748 492.417 753.748C502.747 753.748 511.011 758.58 511.355 769.279H501.026V769.624Z" fill="#69757C"/>
<path d="M538.213 775.147H530.982V792.059C530.982 795.51 530.982 797.236 535.114 797.236C536.147 797.236 536.836 797.236 538.213 797.236V804.829C535.458 805.174 534.425 805.174 532.359 805.174C524.096 805.174 521.341 803.103 521.341 794.129V775.492H515.487V768.934H521.341V758.235H530.982V768.934H538.213V775.147Z" fill="#69757C"/>
<path d="M553.019 763.412H543.033V755.128H552.675V763.412H553.019ZM553.019 804.138H543.033V768.589H552.675V804.138H553.019Z" fill="#69757C"/>
<path d="M579.876 762.377C578.499 762.377 577.81 762.377 576.777 762.377C573.334 762.377 572.301 763.067 572.301 766.173V768.934H579.187V775.492H572.301V804.484H562.66V775.492H556.806V768.934H562.66V767.209C562.66 758.925 566.103 755.474 574.711 755.474C576.433 755.474 578.154 755.474 579.876 755.819V762.377Z" fill="#69757C"/>
<path d="M603.29 775.147H596.059V792.059C596.059 795.51 596.059 797.236 600.191 797.236C601.224 797.236 601.913 797.236 603.29 797.236V804.829C600.536 805.174 599.503 805.174 597.437 805.174C589.173 805.174 586.418 803.103 586.418 794.129V775.492H580.565V768.934H586.418V758.235H596.059V768.934H603.29V775.147Z" fill="#69757C"/>
<path d="M641.166 804.138H631.869V798.961C629.115 802.758 625.327 805.174 620.162 805.174C612.587 805.174 607.766 801.032 607.766 792.404V768.589H617.752V788.952C617.752 793.439 618.096 796.89 623.605 796.89C629.803 796.89 631.181 792.058 631.181 786.881V768.589H640.822V804.138H641.166Z" fill="#69757C"/>
<path d="M672.155 804.138V783.43C672.155 778.943 671.467 775.837 665.957 775.837C660.104 775.837 658.382 779.978 658.382 785.156V804.138H648.741V768.589H658.038V773.421C660.792 769.624 664.924 767.553 669.745 767.553C677.32 767.553 682.141 772.04 682.141 780.324V804.138H672.155Z" fill="#69757C"/>
<path d="M723.459 800.687C723.459 812.422 717.606 817.599 705.899 817.599C695.569 817.599 690.06 813.802 689.371 806.554H699.012C699.701 809.66 701.767 811.041 706.243 811.041C712.785 811.041 714.163 807.59 714.163 801.722V797.581C711.408 801.377 707.965 803.103 703.144 803.103C693.847 803.103 687.994 796.2 687.994 785.501C687.994 774.801 694.192 767.553 703.489 767.553C708.309 767.553 711.408 769.279 714.163 773.421V768.589H723.459V800.687ZM697.979 785.501C697.979 791.713 701.078 795.855 706.243 795.855C711.408 795.855 714.507 791.713 714.507 785.501C714.507 779.288 711.408 775.492 706.243 775.492C700.734 775.146 697.979 779.288 697.979 785.501Z" fill="#69757C"/>
<path d="M769.943 762.377C768.566 762.377 767.877 762.377 766.844 762.377C763.401 762.377 762.368 763.067 762.368 766.173V768.934H769.255V775.492H762.368V804.484H752.727V775.492H746.874V768.934H752.727V767.209C752.727 758.925 756.17 755.474 764.779 755.474C766.5 755.474 768.222 755.474 769.943 755.819V762.377Z" fill="#69757C"/>
<path d="M807.13 804.138H797.834V798.961C795.079 802.758 791.292 805.174 786.127 805.174C778.552 805.174 773.731 801.032 773.731 792.404V768.589H783.716V788.952C783.716 793.439 784.061 796.89 789.57 796.89C795.768 796.89 797.145 792.058 797.145 786.881V768.589H806.786V804.138H807.13Z" fill="#69757C"/>
<path d="M837.431 777.217C835.709 776.872 834.676 776.872 833.643 776.872C826.757 776.872 824.347 781.704 824.347 788.262V804.483H814.706V768.934H824.002V775.492C826.068 771.005 830.2 768.244 835.365 768.244C836.054 768.244 836.398 768.244 837.431 768.589V777.217Z" fill="#69757C"/>
<path d="M861.534 755.128H872.552L892.868 787.916V755.128H903.197V804.138H892.523L872.208 771.005V804.138H861.878V755.128H861.534Z" fill="#69757C"/>
<path d="M934.531 804.138C934.187 802.758 933.842 802.413 933.842 800.687C930.743 803.793 926.611 805.174 922.48 805.174C914.56 805.174 909.739 801.032 909.739 794.474C909.739 785.156 918.348 784.12 925.234 783.085C931.432 782.394 933.842 781.704 933.842 778.943C933.842 775.837 931.776 774.111 927.3 774.111C922.824 774.111 921.102 775.492 920.414 779.633H911.461C912.15 771.695 917.659 767.553 927.989 767.553C935.219 767.553 943.483 769.279 943.483 779.288V794.819C943.483 797.926 943.483 801.377 944.861 804.483H934.531V804.138ZM926.956 788.952C923.512 789.642 919.725 789.988 919.725 794.129C919.725 797.235 921.791 798.961 925.234 798.961C930.399 798.961 933.842 796.2 933.842 791.023V786.881C931.432 788.262 929.366 788.262 926.956 788.952Z" fill="#69757C"/>
<path d="M970.685 775.147H963.454V792.059C963.454 795.51 963.454 797.236 967.586 797.236C968.619 797.236 969.307 797.236 970.685 797.236V804.829C967.93 805.174 966.897 805.174 964.831 805.174C956.567 805.174 953.813 803.103 953.813 794.129V775.492H947.959V768.934H953.813V758.235H963.454V768.934H970.685V775.147Z" fill="#69757C"/>
<path d="M1008.56 804.138H999.264V798.961C996.509 802.758 992.722 805.174 987.557 805.174C979.982 805.174 975.161 801.032 975.161 792.404V768.589H985.147V788.952C985.147 793.439 985.491 796.89 991 796.89C997.198 796.89 998.575 792.058 998.575 786.881V768.589H1008.22V804.138H1008.56Z" fill="#69757C"/>
<path d="M1039.21 777.217C1037.48 776.872 1036.45 776.872 1035.42 776.872C1028.53 776.872 1026.12 781.704 1026.12 788.262V804.483H1016.48V768.934H1025.78V775.492C1027.84 771.005 1031.97 768.244 1037.14 768.244C1037.83 768.244 1038.17 768.244 1039.21 768.589V777.217Z" fill="#69757C"/>
<path d="M1052.63 773.421C1055.39 769.625 1058.83 767.899 1064 767.899C1072.6 767.899 1076.39 772.731 1076.39 781.014V804.484H1066.41V783.43C1066.41 778.943 1065.37 775.837 1060.21 775.837C1053.67 775.837 1052.63 781.014 1052.63 786.191V804.484H1042.99V755.474H1052.63V773.421Z" fill="#69757C"/>
<path d="M1100.5 805.174C1089.48 805.174 1082.25 797.581 1082.25 786.536C1082.25 775.492 1089.82 767.553 1100.15 767.553C1110.82 767.553 1117.71 775.492 1117.71 787.917V788.952H1092.23C1092.23 795.165 1095.33 798.271 1100.5 798.271C1103.94 798.271 1106.35 796.545 1107.73 793.094H1117.02C1114.96 801.032 1108.41 805.174 1100.5 805.174ZM1100.15 774.801C1095.67 774.801 1092.92 777.908 1092.23 782.74H1107.73C1107.38 778.253 1104.97 774.801 1100.15 774.801Z" fill="#69757C"/>
<path d="M1133.21 763.412H1123.57V755.128H1133.21V763.412ZM1133.21 804.138H1123.57V768.589H1133.21V804.138Z" fill="#69757C"/>
<path d="M1151.11 804.138H1141.47V755.128H1151.11V804.138Z" fill="#69757C"/>
<path d="M1180.03 781.704L1194.84 804.138H1183.13L1173.49 788.262L1169.36 792.058V804.138H1159.72V755.128H1169.36V781.359L1181.76 768.589H1193.12L1180.03 781.704Z" fill="#69757C"/>
<path d="M1231.68 804.138H1222.39V798.961C1219.63 802.758 1215.84 805.174 1210.68 805.174C1203.1 805.174 1198.28 801.032 1198.28 792.404V768.589H1208.27V788.952C1208.27 793.439 1208.61 796.89 1214.12 796.89C1220.32 796.89 1221.7 792.058 1221.7 786.881V768.589H1231.34V804.138H1231.68Z" fill="#69757C"/>
<path d="M1262.67 804.138V783.43C1262.67 778.943 1261.98 775.837 1256.47 775.837C1250.62 775.837 1248.9 779.978 1248.9 785.156V804.138H1239.26V768.589H1248.55V773.421C1251.31 769.624 1255.44 767.553 1260.26 767.553C1267.84 767.553 1272.66 772.04 1272.66 780.324V804.138H1262.67Z" fill="#69757C"/>
<path d="M1305.37 804.138V799.651C1302.96 803.448 1299.52 805.173 1294.69 805.173C1284.71 805.173 1278.51 797.926 1278.51 786.191C1278.51 774.801 1284.71 767.553 1294.01 767.553C1298.14 767.553 1302.61 769.279 1304.68 773.076V755.128H1314.32V804.138H1305.37ZM1296.76 775.491C1291.6 775.491 1288.5 779.633 1288.5 786.536C1288.5 793.439 1291.6 797.58 1296.76 797.58C1302.27 797.58 1305.37 793.439 1305.37 786.536C1305.37 779.633 1301.93 775.491 1296.76 775.491Z" fill="#69757C"/>
<path d="M1338.77 805.174C1327.75 805.174 1320.52 797.581 1320.52 786.536C1320.52 775.492 1328.09 767.553 1338.42 767.553C1349.1 767.553 1355.98 775.492 1355.98 787.917V788.952H1330.5C1330.5 795.165 1333.6 798.271 1338.77 798.271C1342.21 798.271 1344.62 796.545 1346 793.094H1355.3C1353.23 801.032 1346.69 805.174 1338.77 805.174ZM1338.42 774.801C1333.95 774.801 1331.19 777.908 1330.5 782.74H1346C1345.65 778.253 1343.24 774.801 1338.42 774.801Z" fill="#69757C"/>
<path d="M570.579 886.972H561.283V881.795C558.528 885.591 554.74 888.007 549.575 888.007C542 888.007 537.18 883.866 537.18 875.237V851.422H547.165V871.786C547.165 876.272 547.51 879.724 553.019 879.724C559.217 879.724 560.594 874.892 560.594 869.715V851.422H570.235V886.972H570.579Z" fill="#69757C"/>
<path d="M601.569 886.972V866.263C601.569 861.777 600.88 858.67 595.371 858.67C589.517 858.67 587.796 862.812 587.796 867.989V886.972H578.154V851.422H587.451V856.254C590.206 852.458 594.338 850.387 599.158 850.387C606.733 850.387 611.554 854.874 611.554 863.157V886.972H601.569Z" fill="#69757C"/>
<path d="M644.265 886.972V882.485C641.854 886.281 638.411 888.007 633.591 888.007C623.605 888.007 617.407 880.759 617.407 869.024C617.407 857.635 623.605 850.387 632.902 850.387C637.034 850.387 641.51 852.112 643.576 855.909V837.962H653.217V886.972H644.265ZM635.656 858.325C630.492 858.325 627.393 862.467 627.393 869.369C627.393 876.272 630.492 880.414 635.656 880.414C641.166 880.414 644.265 876.272 644.265 869.369C644.265 862.467 640.821 858.325 635.656 858.325Z" fill="#69757C"/>
<path d="M717.95 846.935H691.782V857.635H715.884V866.263H691.782V878.343H718.295V887.316H681.108V838.307H717.95V846.935Z" fill="#69757C"/>
<path d="M747.907 860.051C746.185 859.706 745.152 859.706 744.119 859.706C737.233 859.706 734.822 864.538 734.822 871.095V887.317H725.181V851.768H734.478V858.325C736.544 853.838 740.676 851.077 745.841 851.077C746.529 851.077 746.874 851.077 747.907 851.423V860.051Z" fill="#69757C"/>
<path d="M770.977 845.21C769.599 845.21 768.911 845.21 767.878 845.21C764.434 845.21 763.401 845.9 763.401 849.006V851.767H770.288V858.325H763.401V887.316H753.76V858.325H747.907V851.767H753.76V850.041C753.76 841.758 757.204 838.307 765.812 838.307C767.533 838.307 769.255 838.307 770.977 838.652V845.21Z" fill="#69757C"/>
<path d="M797.489 886.972C797.145 885.591 796.801 885.246 796.801 883.52C793.702 886.627 789.57 888.007 785.438 888.007C777.518 888.007 772.698 883.865 772.698 877.308C772.698 867.989 781.306 866.954 788.193 865.918C794.39 865.228 796.801 864.538 796.801 861.777C796.801 858.67 794.735 856.945 790.258 856.945C785.782 856.945 784.061 858.325 783.372 862.467H774.075C774.764 854.529 780.273 850.387 790.603 850.387C797.834 850.387 806.097 852.113 806.097 862.122V877.653C806.097 880.759 806.097 884.211 807.475 887.317H797.489V886.972ZM789.914 871.786C786.471 872.476 782.683 872.821 782.683 876.963C782.683 880.069 784.749 881.795 788.193 881.795C793.357 881.795 796.801 879.033 796.801 873.856V869.715C794.39 871.095 792.324 871.095 789.914 871.786Z" fill="#69757C"/>
<path d="M823.658 856.254C826.413 852.457 829.856 850.732 835.021 850.732C843.629 850.732 847.417 855.564 847.417 863.847V887.316H837.775V866.263C837.775 861.776 836.742 858.67 831.578 858.67C825.035 858.67 824.002 863.847 824.002 869.024V887.316H814.361V838.307H824.002V856.254H823.658Z" fill="#69757C"/>
<path d="M877.717 860.051C875.996 859.706 874.963 859.706 873.93 859.706C867.043 859.706 864.633 864.538 864.633 871.095V887.317H854.992V851.768H864.288V858.325C866.354 853.838 870.486 851.077 875.651 851.077C876.34 851.077 876.684 851.077 877.717 851.423V860.051Z" fill="#69757C"/>
<path d="M914.904 886.972H905.607V881.795C902.853 885.591 899.065 888.007 893.9 888.007C886.325 888.007 881.505 883.866 881.505 875.237V851.422H891.49V871.786C891.49 876.272 891.834 879.724 897.344 879.724C903.541 879.724 904.919 874.892 904.919 869.715V851.422H914.56V886.972H914.904Z" fill="#69757C"/>
<path d="M945.893 886.972V866.263C945.893 861.777 945.205 858.67 939.696 858.67C933.842 858.67 932.12 862.812 932.12 867.989V886.972H922.479V851.422H931.776V856.254C934.531 852.458 938.663 850.387 943.483 850.387C951.058 850.387 955.879 854.874 955.879 863.157V886.972H945.893Z" fill="#69757C"/>
<path d="M997.198 883.52C997.198 895.255 991.344 900.432 979.637 900.432C969.307 900.432 963.798 896.636 963.11 889.388H972.751C973.439 892.494 975.505 893.875 979.982 893.875C986.524 893.875 987.901 890.423 987.901 884.556V880.414C985.146 884.211 981.703 885.936 976.883 885.936C967.586 885.936 961.732 879.033 961.732 868.334C961.732 857.635 967.93 850.387 977.227 850.387C982.048 850.387 985.146 852.113 987.901 856.254V851.422H997.198V883.52ZM971.718 868.334C971.718 874.547 974.817 878.688 979.982 878.688C985.146 878.688 988.245 874.547 988.245 868.334C988.245 862.122 985.146 858.325 979.982 858.325C974.472 857.98 971.718 862.122 971.718 868.334Z" fill="#69757C"/>
<path d="M1026.12 861.777C1025.43 857.98 1023.37 856.945 1019.23 856.945C1015.79 856.945 1013.73 858.325 1013.73 860.396C1013.73 863.502 1016.82 863.847 1022.33 864.883C1028.88 866.263 1036.11 867.989 1036.11 875.927C1036.11 883.52 1029.91 888.007 1019.92 888.007C1010.97 888.007 1003.4 884.556 1003.4 875.237H1012.69C1013.04 879.379 1015.79 881.104 1020.27 881.104C1024.4 881.104 1026.81 879.379 1026.81 876.617C1026.81 873.511 1024.06 873.166 1018.89 871.786C1012.69 870.405 1004.43 869.37 1004.43 860.741C1004.43 853.838 1009.94 849.697 1019.92 849.697C1028.19 849.697 1035.07 852.803 1035.42 861.086H1026.12V861.777Z" fill="#69757C"/>
<path d="M1087.07 886.972V865.573C1087.07 861.777 1086.38 858.325 1081.56 858.325C1076.39 858.325 1074.67 862.122 1074.67 866.954V886.972H1065.03V865.228C1065.03 861.431 1064.34 858.325 1059.52 858.325C1054.01 858.325 1052.29 862.812 1052.29 867.644V886.972H1042.65V851.422H1051.95V856.254C1054.7 852.458 1058.14 850.387 1063.31 850.387C1068.13 850.387 1071.57 852.458 1073.29 856.254C1076.05 852.458 1079.84 850.387 1085 850.387C1092.92 850.387 1097.05 855.564 1097.05 863.157V886.972H1087.07Z" fill="#69757C"/>
<path d="M1121.5 888.007C1110.48 888.007 1103.25 880.414 1103.25 869.37C1103.25 858.325 1110.82 850.387 1121.15 850.387C1131.83 850.387 1138.72 858.325 1138.72 870.75V871.786H1113.24C1113.24 877.998 1116.33 881.104 1121.5 881.104C1124.94 881.104 1127.35 879.379 1128.73 875.927H1138.03C1135.96 883.865 1129.42 888.007 1121.5 888.007ZM1121.15 857.635C1116.68 857.635 1113.92 860.741 1113.24 865.573H1128.73C1128.39 861.086 1125.98 857.635 1121.15 857.635Z" fill="#69757C"/>
<path d="M1169.7 886.972V882.485C1167.29 886.281 1163.85 888.007 1159.03 888.007C1149.05 888.007 1142.85 880.759 1142.85 869.024C1142.85 857.635 1149.05 850.387 1158.34 850.387C1162.47 850.387 1166.95 852.112 1169.02 855.909V837.962H1178.66V886.972H1169.7ZM1161.1 858.325C1155.93 858.325 1152.83 862.467 1152.83 869.369C1152.83 876.272 1155.93 880.414 1161.1 880.414C1166.61 880.414 1169.7 876.272 1169.7 869.369C1169.36 862.467 1166.26 858.325 1161.1 858.325Z" fill="#69757C"/>
<path d="M1196.22 846.245H1186.58V837.962H1196.22V846.245ZM1196.22 886.972H1186.58V851.422H1196.22V886.972Z" fill="#69757C"/>
<path d="M1233.4 858.67L1214.81 879.379H1234.78V886.972H1202.07V879.379L1221.01 858.67H1203.79V851.077H1233.75V858.67H1233.4Z" fill="#69757C"/>
<path d="M1249.93 846.245H1240.29V837.962H1249.93V846.245ZM1249.93 886.972H1240.29V851.422H1249.93V886.972Z" fill="#69757C"/>
<path d="M1281.27 886.972V866.263C1281.27 861.777 1280.58 858.67 1275.07 858.67C1269.21 858.67 1267.49 862.812 1267.49 867.989V886.972H1257.85V851.422H1267.15V856.254C1269.9 852.458 1274.04 850.387 1278.86 850.387C1286.43 850.387 1291.25 854.874 1291.25 863.157V886.972H1281.27Z" fill="#69757C"/>
<path d="M625.327 755.128H615.686V763.412H625.327V755.128Z" fill="#69757C"/>
<path d="M635.657 755.128H626.016V763.412H635.657V755.128Z" fill="#69757C"/>
</g>
<defs>
<clipPath id="clip0">
<rect width="1440" height="1024" fill="white"/>
</clipPath>
</defs>
</svg>
