<?xml version="1.0" encoding="UTF-8" standalone="no"?><!DOCTYPE svg PUBLIC "-//W3C//DTD SVG 1.1//EN" "http://www.w3.org/Graphics/SVG/1.1/DTD/svg11.dtd"><svg width="100%" height="100%" viewBox="0 0 121 121" version="1.1" xmlns="http://www.w3.org/2000/svg" xmlns:xlink="http://www.w3.org/1999/xlink" xml:space="preserve" xmlns:serif="http://www.serif.com/" style="fill-rule:evenodd;clip-rule:evenodd;stroke-linejoin:round;stroke-miterlimit:1.41421;"><g id="Trimmen"></g><g><path d="M67.395,29.655c-0.219,1.803 -0.771,3.19 -1.66,4.159c-0.888,0.971 -2.273,1.456 -4.158,1.456c-2.186,0 -3.929,-0.874 -5.225,-2.623c-1.298,-1.747 -1.947,-4.248 -1.947,-7.499c0,-3.224 0.607,-5.717 1.824,-7.48c1.215,-1.761 2.997,-2.643 5.348,-2.643c1.858,0 3.217,0.493 4.077,1.476c0.861,0.983 1.441,2.336 1.741,4.058l6.066,-0.78c-0.275,-1.529 -0.698,-2.91 -1.272,-4.139c-0.574,-1.228 -1.331,-2.281 -2.273,-3.155c-0.944,-0.875 -2.105,-1.544 -3.484,-2.008c-1.379,-0.465 -2.997,-0.697 -4.855,-0.697c-2.105,0 -3.991,0.356 -5.657,1.064c-1.665,0.713 -3.086,1.738 -4.261,3.075c-1.175,1.339 -2.077,2.95 -2.705,4.835c-0.629,1.886 -0.943,4.016 -0.943,6.394c0,2.293 0.287,4.391 0.86,6.29c0.574,1.899 1.429,3.517 2.562,4.857c1.134,1.337 2.541,2.376 4.222,3.114c1.68,0.738 3.627,1.106 5.839,1.106c1.968,0 3.695,-0.273 5.185,-0.819c1.488,-0.546 2.744,-1.304 3.769,-2.275c1.025,-0.97 1.83,-2.117 2.418,-3.443c0.587,-1.323 0.949,-2.766 1.086,-4.323l-6.557,0Z" style="fill:#105797;fill-rule:nonzero;"/><path d="M49.255,103.798c0.164,3.443 1.304,6.019 3.423,7.726c2.117,1.71 5.169,2.56 9.158,2.56c1.911,0 3.579,-0.225 4.999,-0.674c1.421,-0.451 2.602,-1.079 3.546,-1.886c0.941,-0.807 1.652,-1.747 2.13,-2.827c0.477,-1.078 0.717,-2.261 0.717,-3.543c0,-2.651 -0.736,-4.681 -2.212,-6.086c-1.476,-1.407 -3.799,-2.425 -6.966,-3.055l-4.016,-0.777c-1.476,-0.301 -2.521,-0.724 -3.136,-1.272c-0.615,-0.544 -0.922,-1.365 -0.922,-2.459c0,-0.41 0.081,-0.804 0.245,-1.187c0.164,-0.384 0.451,-0.719 0.861,-1.004c0.409,-0.288 0.949,-0.52 1.618,-0.698c0.671,-0.178 1.524,-0.265 2.562,-0.265c1.749,0 3.053,0.354 3.914,1.066c0.86,0.711 1.44,1.872 1.742,3.48l5.777,-0.738c-0.136,-1.147 -0.417,-2.251 -0.838,-3.315c-0.426,-1.067 -1.075,-2.003 -1.947,-2.808c-0.875,-0.807 -2.022,-1.458 -3.443,-1.949c-1.42,-0.492 -3.197,-0.737 -5.327,-0.737c-1.668,0 -3.198,0.186 -4.59,0.554c-1.393,0.369 -2.59,0.908 -3.585,1.62c-0.999,0.708 -1.777,1.596 -2.337,2.663c-0.56,1.066 -0.841,2.295 -0.841,3.688c0,1.394 0.206,2.593 0.616,3.606c0.409,1.011 1.003,1.864 1.782,2.562c0.78,0.697 1.741,1.264 2.889,1.698c1.147,0.439 2.473,0.795 3.976,1.066l3.811,0.698c1.529,0.299 2.582,0.784 3.155,1.453c0.574,0.67 0.861,1.388 0.861,2.152c0,0.548 -0.089,1.053 -0.267,1.518c-0.178,0.463 -0.471,0.866 -0.881,1.206c-0.409,0.345 -0.943,0.618 -1.598,0.821c-0.655,0.206 -1.462,0.307 -2.418,0.307c-1.994,0 -3.503,-0.409 -4.528,-1.228c-1.025,-0.822 -1.605,-2.133 -1.741,-3.936l-6.189,0Z" style="fill:#105797;fill-rule:nonzero;"/><path d="M31.17,65.621l5.574,0l0,4.877c-0.875,0.544 -1.783,0.949 -2.725,1.209c-0.943,0.259 -2.057,0.389 -3.341,0.389c-2.677,0 -4.61,-0.882 -5.799,-2.643c-1.189,-1.763 -1.782,-4.269 -1.782,-7.52c0,-3.223 0.587,-5.723 1.762,-7.5c1.175,-1.775 2.95,-2.663 5.328,-2.663c0.983,0 1.803,0.103 2.459,0.307c0.653,0.205 1.201,0.506 1.637,0.902c0.439,0.396 0.773,0.874 1.007,1.434c0.229,0.56 0.429,1.209 0.593,1.947l6.066,-0.78c-0.247,-1.256 -0.651,-2.431 -1.209,-3.523c-0.562,-1.092 -1.312,-2.05 -2.255,-2.869c-0.944,-0.819 -2.09,-1.462 -3.443,-1.927c-1.351,-0.463 -2.969,-0.696 -4.855,-0.696c-2.049,0 -3.907,0.356 -5.573,1.066c-1.67,0.71 -3.08,1.735 -4.242,3.073c-1.161,1.339 -2.055,2.951 -2.684,4.835c-0.632,1.885 -0.942,4.016 -0.942,6.394c0,2.295 0.287,4.392 0.86,6.29c0.574,1.899 1.435,3.517 2.58,4.857c1.15,1.339 2.59,2.376 4.325,3.114c1.735,0.738 3.763,1.106 6.086,1.106c2.214,0 4.356,-0.382 6.434,-1.148c2.075,-0.764 3.865,-1.844 5.369,-3.237l0,-12.375l-11.23,0l0,5.081Z" style="fill:#105797;fill-rule:nonzero;"/><path d="M50.624,76.564l9.918,0c2.376,0 4.507,-0.317 6.392,-0.942c1.886,-0.629 3.484,-1.573 4.794,-2.831c1.312,-1.255 2.317,-2.8 3.013,-4.63c0.697,-1.828 1.045,-3.961 1.045,-6.392c0,-4.782 -1.251,-8.389 -3.749,-10.82c-2.501,-2.431 -5.991,-3.648 -10.47,-3.648l-10.943,0l0,29.263Zm6.106,-5.206l0,-18.852l4.837,0c1.446,0 2.669,0.222 3.666,0.657c0.997,0.439 1.81,1.052 2.439,1.846c0.627,0.789 1.086,1.768 1.373,2.928c0.287,1.161 0.43,2.451 0.43,3.874c0,1.446 -0.165,2.751 -0.491,3.911c-0.328,1.163 -0.841,2.168 -1.537,3.013c-0.697,0.847 -1.605,1.496 -2.727,1.949c-1.119,0.447 -2.471,0.674 -4.055,0.674l-3.935,0Z" style="fill:#105797;fill-rule:nonzero;"/><path d="M82.716,76.506l6.149,0l0,-10.737l3.484,-3.565l8.236,14.302l6.804,0l-10.78,-18.276l9.714,-10.985l-6.679,0l-10.779,11.723l0,-11.723l-6.149,0l0,29.261Z" style="fill:#105797;fill-rule:nonzero;"/></g></svg>