<?xml version="1.0" encoding="utf-8"?>
<!-- Generator: Adobe Illustrator 22.0.1, SVG Export Plug-In . SVG Version: 6.00 Build 0)  -->
<svg version="1.1" id="Layer_1" xmlns="http://www.w3.org/2000/svg" xmlns:xlink="http://www.w3.org/1999/xlink" x="0px" y="0px"
	 viewBox="0 0 414 267.5" style="enable-background:new 0 0 414 267.5;" xml:space="preserve">
<style type="text/css">
	.st0{fill:#ED1C24;}
</style>
<g>
	<g>
		<path class="st0" d="M139.9,126.2h-0.8c-7.3-0.3-21.5-2.7-47-12.3C53,99.4,51,63.3,51,63.3c-42.2,35.3-21,124.6-21,124.6
			s41.4-1.1,45.3,4.4c7.3,10.4,5.6,28.7,12.3,31.5c6.7,2.7,72.4,14,99.8,6c27.4-7.7,8.1-32.9-6.2-42.4
			c-14.5-9.6-48.6-10.9-59.3-18.9c-7.3-5.5-1.4-26.8-1.4-26.8l18.5,3.6l1.4,0.3l2,0.3h0.6l0.6-0.3c0,0,21-0.3,49.8,7.4
			c40.5,10.9,46.1,46.5,46.1,46.5c38.6-39.1,8.4-125.9,8.4-125.9s-41.1,4.9-45.6,0c-8.4-9.6-8.4-28.2-15.4-30.1s-73.5-6.6-100.1,3.6
			c-26.6,10.1-5,33.7,10.6,41.9c15.7,8.2,49.8,6.3,61,13.1c7.8,4.9,4.2,26.8,4.2,26.8l-16.8-1.4"/>
		<path d="M311.2,91.4h-24V105h20.8v5.2h-20.8v20h-5.8V86.1h29.8V91.4z M332.4,131c-3.1,0-5.8-0.4-8.2-1.1c-2.3-0.7-4.3-1.8-5.8-3.1
			c-1.5-1.3-2.7-2.9-3.5-4.7c-0.8-1.8-1.2-3.9-1.3-6.1h5.6c0.2,1.7,0.6,3.1,1.3,4.4c0.7,1.2,1.7,2.2,2.8,3c1.2,0.8,2.5,1.4,3.9,1.8
			c1.5,0.4,3.1,0.6,4.8,0.6c1.7,0,3.2-0.2,4.5-0.5c1.3-0.3,2.5-0.8,3.5-1.5c1-0.7,1.7-1.4,2.2-2.3c0.5-0.9,0.8-2,0.8-3.2
			c0-1.2-0.2-2.2-0.7-3.1c-0.5-0.8-1.3-1.6-2.3-2.2c-1.1-0.6-2.5-1.2-4.2-1.7s-3.9-1-6.5-1.5c-2.5-0.6-4.6-1.2-6.4-1.9
			c-1.8-0.7-3.2-1.6-4.4-2.5c-1.2-1-2-2.1-2.6-3.4c-0.5-1.3-0.8-2.7-0.8-4.3c0-1.8,0.4-3.4,1.1-4.9c0.8-1.5,1.8-2.8,3.2-3.9
			c1.4-1.1,3-1.9,5-2.5c1.9-0.6,4.1-0.9,6.4-0.9c2.5,0,4.7,0.3,6.7,0.9c2,0.6,3.8,1.5,5.3,2.6c1.5,1.1,2.6,2.5,3.5,4.2
			c0.8,1.6,1.3,3.5,1.4,5.5H342c-0.6-5.3-4.2-8-11-8c-3.3,0-5.8,0.6-7.6,1.8c-1.8,1.2-2.6,2.9-2.6,4.9c0,0.9,0.2,1.7,0.5,2.4
			c0.3,0.7,0.9,1.2,1.7,1.7c0.8,0.5,1.8,1,3.1,1.4c1.3,0.4,2.9,0.8,4.9,1.2c1.3,0.3,2.7,0.6,4.1,0.9c1.4,0.3,2.7,0.7,4,1.1
			c1.3,0.5,2.6,1,3.7,1.7c1.2,0.6,2.2,1.4,3.1,2.3c0.9,0.9,1.6,2,2.1,3.3c0.5,1.2,0.8,2.7,0.8,4.4c0,1.9-0.4,3.7-1.2,5.3
			c-0.8,1.6-1.9,3-3.4,4.2c-1.5,1.2-3.2,2.1-5.2,2.8C337,130.7,334.8,131,332.4,131z M372.7,85.4c3.1,0,5.9,0.6,8.4,1.7
			c2.6,1.1,4.8,2.6,6.7,4.6c1.9,2,3.3,4.4,4.4,7.2c1.1,2.8,1.6,5.9,1.6,9.3c0,3.4-0.5,6.5-1.6,9.3c-1,2.8-2.5,5.2-4.4,7.2
			c-1.8,2-4.1,3.6-6.7,4.7c-2.6,1.1-5.4,1.7-8.5,1.7c-3.1,0-5.9-0.6-8.5-1.7c-2.6-1.1-4.8-2.7-6.7-4.7c-1.9-2-3.3-4.4-4.4-7.2
			c-1-2.8-1.6-5.9-1.6-9.4c0-3.4,0.5-6.6,1.6-9.4c1.1-2.8,2.5-5.2,4.4-7.2c1.9-2,4.1-3.5,6.7-4.6C366.8,85.9,369.6,85.4,372.7,85.4z
			 M372.6,126c2.2,0,4.2-0.4,6.1-1.2c1.8-0.8,3.4-2,4.8-3.5c1.3-1.5,2.4-3.4,3.1-5.6c0.8-2.2,1.1-4.7,1.1-7.5s-0.4-5.3-1.1-7.5
			c-0.7-2.2-1.8-4.1-3.1-5.6c-1.3-1.5-2.9-2.7-4.7-3.5c-1.8-0.8-3.8-1.2-6-1.2c-2.2,0-4.2,0.4-6.1,1.2c-1.8,0.8-3.4,2-4.8,3.5
			c-1.3,1.5-2.4,3.4-3.2,5.6c-0.7,2.2-1.1,4.7-1.1,7.5c0,2.8,0.4,5.3,1.1,7.5c0.7,2.2,1.8,4.1,3.1,5.6c1.3,1.5,2.9,2.7,4.8,3.5
			C368.4,125.6,370.4,126,372.6,126z M298.1,195c-3.1,0-5.8-0.4-8.2-1.1c-2.3-0.7-4.3-1.8-5.8-3.1c-1.5-1.3-2.7-2.9-3.5-4.7
			c-0.8-1.8-1.2-3.9-1.3-6.1h5.6c0.2,1.7,0.6,3.1,1.3,4.4c0.7,1.2,1.7,2.2,2.8,3c1.2,0.8,2.5,1.4,3.9,1.8c1.5,0.4,3.1,0.6,4.8,0.6
			c1.7,0,3.2-0.2,4.5-0.5c1.3-0.3,2.5-0.8,3.5-1.5c1-0.7,1.7-1.4,2.2-2.3c0.5-0.9,0.8-2,0.8-3.2c0-1.2-0.2-2.2-0.7-3.1
			c-0.5-0.8-1.3-1.6-2.3-2.2c-1.1-0.6-2.5-1.2-4.2-1.7c-1.8-0.5-3.9-1-6.5-1.5c-2.5-0.6-4.6-1.2-6.4-1.9c-1.8-0.7-3.2-1.6-4.4-2.5
			c-1.2-1-2-2.1-2.6-3.4c-0.5-1.3-0.8-2.7-0.8-4.3c0-1.8,0.4-3.4,1.1-4.9c0.8-1.5,1.8-2.8,3.2-3.9c1.4-1.1,3-1.9,5-2.5
			c1.9-0.6,4.1-0.9,6.4-0.9c2.5,0,4.7,0.3,6.7,0.9c2,0.6,3.8,1.5,5.3,2.6c1.5,1.1,2.6,2.5,3.5,4.2c0.8,1.6,1.3,3.5,1.4,5.5h-5.7
			c-0.6-5.3-4.2-8-11-8c-3.3,0-5.8,0.6-7.6,1.8c-1.8,1.2-2.6,2.9-2.6,4.9c0,0.9,0.2,1.7,0.5,2.4c0.3,0.7,0.9,1.2,1.7,1.7
			c0.8,0.5,1.8,1,3.1,1.4c1.3,0.4,2.9,0.8,4.9,1.2c1.3,0.3,2.7,0.6,4.1,0.9c1.4,0.3,2.7,0.7,4,1.1c1.3,0.5,2.6,1,3.7,1.7
			c1.2,0.6,2.2,1.4,3.1,2.3c0.9,0.9,1.6,2,2.1,3.3c0.5,1.2,0.8,2.7,0.8,4.4c0,1.9-0.4,3.7-1.2,5.3c-0.8,1.6-1.9,3-3.4,4.2
			c-1.5,1.2-3.2,2.1-5.2,2.8C302.6,194.7,300.4,195,298.1,195z M355,150.1l-17.2,44.1h-6l-17.2-44.1h6.3l13.9,37.8l14-37.8H355z
			 M376.1,149.3c3.1,0,5.9,0.6,8.4,1.7c2.6,1.1,4.8,2.6,6.7,4.6c1.9,2,3.3,4.4,4.4,7.2c1.1,2.8,1.6,5.9,1.6,9.3
			c0,3.4-0.5,6.5-1.6,9.3s-2.5,5.2-4.4,7.2c-1.8,2-4.1,3.6-6.7,4.7c-2.6,1.1-5.4,1.7-8.5,1.7c-3.1,0-5.9-0.6-8.5-1.7
			c-2.6-1.1-4.8-2.7-6.7-4.7c-1.9-2-3.3-4.4-4.4-7.2c-1-2.8-1.6-5.9-1.6-9.4c0-3.4,0.5-6.6,1.6-9.4c1.1-2.8,2.5-5.2,4.4-7.2
			c1.9-2,4.1-3.5,6.7-4.6C370.3,149.9,373.1,149.3,376.1,149.3z M376.1,190c2.2,0,4.2-0.4,6.1-1.2c1.8-0.8,3.4-2,4.8-3.5
			c1.3-1.5,2.4-3.4,3.1-5.6c0.8-2.2,1.1-4.7,1.1-7.5s-0.4-5.3-1.1-7.5c-0.7-2.2-1.8-4.1-3.1-5.6c-1.3-1.5-2.9-2.7-4.7-3.5
			c-1.8-0.8-3.8-1.2-6-1.2c-2.2,0-4.2,0.4-6.1,1.2c-1.8,0.8-3.4,2-4.8,3.5c-1.3,1.5-2.4,3.4-3.2,5.6c-0.7,2.2-1.1,4.7-1.1,7.5
			c0,2.8,0.4,5.3,1.1,7.5c0.7,2.2,1.8,4.1,3.1,5.6c1.3,1.5,2.9,2.7,4.8,3.5C371.9,189.6,373.9,190,376.1,190z"/>
	</g>
</g>
</svg>
