<?xml version="1.0" encoding="utf-8"?>
<!-- Generator: Adobe Illustrator 22.0.1, SVG Export Plug-In . SVG Version: 6.00 Build 0)  -->
<svg version="1.1" id="Layer_1" xmlns="http://www.w3.org/2000/svg" xmlns:xlink="http://www.w3.org/1999/xlink" x="0px" y="0px"
	 viewBox="0 0 414 267.5" style="enable-background:new 0 0 414 267.5;" xml:space="preserve">
<style type="text/css">
	.st0{clip-path:url(#SVGID_2_);}
	.st1{fill:#015B7C;}
	.st2{fill:#51AFE3;}
	.st3{fill:#C2CDBE;}
	.st4{fill:#02A5A9;}
	.st5{fill:#028695;}
	.st6{fill:#3C7DA9;}
	.st7{fill:#69757C;}
</style>
<g>
	<defs>
		<rect id="SVGID_1_" x="3.1" y="2.6" width="408.9" height="290.7"/>
	</defs>
	<clipPath id="SVGID_2_">
		<use xlink:href="#SVGID_1_"  style="overflow:visible;"/>
	</clipPath>
	<g class="st0">
		<path class="st1" d="M93.8,180.3c-10.1,3.6-28.4,0.1-28.8,0c-9.1,8.8-15,19-16.7,28.5c12.3,1.9,28.1-2.3,42.2-12.3
			c14-9.9,23-23.2,25.4-35.4C112.4,169.4,103,177.1,93.8,180.3z"/>
		<path class="st2" d="M95.8,92.6c16.1,17,29.1,39.9,21.1,65.7c0,0.1,0,0.2-0.1,0.2v0.1c8.1-18,10.5-44.6,4.1-72.7
			c-6.6-29.1-14.2-54.7-26.2-68.7C87.5,31.5,81.8,57,83.1,81.6C87.3,85,91.8,88.6,95.8,92.6z"/>
		<path class="st3" d="M83.5,166.1c8-5.2,15.3-7.4,21.2-8.3c-0.1,0-0.3-0.1-0.4-0.1c-0.4-0.1-0.9-0.3-1.3-0.4
			c-0.2-0.1-0.4-0.1-0.6-0.2c-0.6-0.2-1.1-0.4-1.7-0.6c-0.1,0-0.2-0.1-0.2-0.1c-5.5-2.2-11-5-16.4-8.5c-4.9-0.6-10.1-0.8-15.3-0.5
			c-19.8,1.1-37.1,8.6-46.8,19c10.1,8.6,26.1,13.9,44.2,13.7C66.4,179.8,70.9,174.3,83.5,166.1z"/>
		<path class="st4" d="M99.8,156.7c0.6,0.2,1.1,0.4,1.7,0.6c0.2,0.1,0.4,0.1,0.6,0.2c0.4,0.2,0.9,0.3,1.3,0.4c0.1,0,0.3,0.1,0.4,0.1
			c0.2,0,0.3-0.1,0.5-0.1c-5.7-5.3-14.9-30.9-19.4-57.6c-1.2-6.8-1.7-12.7-1.5-18.9c-15-14.4-32.5-23.3-48.6-25.2
			c-2.5,20.3,5,45.4,22.1,67.1c7.9,10.1,17,18.4,26.5,24.7C88.7,151.6,94.1,154.5,99.8,156.7C99.7,156.6,99.7,156.7,99.8,156.7z"/>
		<path class="st5" d="M116.1,160.6c0,0.1-0.1,0.2-0.1,0.3L116.1,160.6z"/>
		<path class="st5" d="M116.8,158.5c0-0.1,0-0.2,0.1-0.2C116.9,158.3,116.9,158.4,116.8,158.5z"/>
		<path class="st5" d="M84.3,100c4.5,26.7,14,52.6,19.7,57.9c7.8-1.1,12.9,0.3,12.9,0.3c8-25.8-5-48.8-21.1-65.7
			c-3.8-4-8.5-7.5-12.6-11C82.9,87.8,83.1,93.4,84.3,100z"/>
		<path class="st6" d="M116.1,160.6c0.3-0.7,0.5-1.4,0.7-2.1v-0.1c0-0.1,0.1-0.2,0.1-0.2s-5.1-1.4-12.9-0.3c-0.2,0-0.3,0.1-0.5,0.1
			c-5.9,0.9-13.2,3.1-21.2,8.3c-12.7,8.2-17.2,13.7-17.3,13.9c0.5,0.1,18.8,3.5,28.8,0c9.2-3.3,18.6-11,22.1-19.2
			c0-0.1,0.1-0.1,0.1-0.2C116,160.8,116.1,160.7,116.1,160.6z"/>
		<path class="st7" d="M192.3,130.2c-8.9-6.3-13-9.2-23.2-9.2c-8.8,0-11.8,1.9-12.4,8.2c-0.8,7.8,7.2,8.4,24.6,13.5
			c15.5,4.6,24.5,10.8,24.5,26c0,21.4-16.8,28.7-34.6,28.7c-23.7,0-35.6-13.2-37.7-15l12-13.6c4.8,4.2,14.7,10.9,26.3,10.9
			c10.1,0,14.1-1.9,14.1-9.4c0-7.2-5.7-7.4-23.8-12.8c-14.2-4.2-25.1-9-25.1-27.5c0-16.5,12.6-27.1,32.9-27.1
			c18.4,0,31.4,10.9,32.8,12.4L192.3,130.2z"/>
		<path class="st7" d="M219.1,102.9h19.4l42.2,56.9l-0.1-56.9h19.9l-0.3,91.7H283l-44.5-58.8v58.7H219L219.1,102.9z"/>
		<path class="st7" d="M389.8,119.2h-49.5V139H384v17.6h-43.6v20.4h50.3v16.8h-69.8v-90.9h68.9V119.2z"/>
	</g>
</g>
</svg>
