<?xml version="1.0" encoding="utf-8"?>
<!-- Generator: Adobe Illustrator 22.0.1, SVG Export Plug-In . SVG Version: 6.00 Build 0)  -->
<svg version="1.1" id="Layer_1" xmlns="http://www.w3.org/2000/svg" xmlns:xlink="http://www.w3.org/1999/xlink" x="0px" y="0px"
	 viewBox="0 0 414 267.5" style="enable-background:new 0 0 414 267.5;" xml:space="preserve">
<style type="text/css">
	.st0{fill:#04569C;}
</style>
<path class="st0" d="M211.6,87.2c-4.6,0-8.7-0.7-12.5-2.2c-3.7-1.5-7-3.7-9.7-6.7c-2.7-3-4.8-6.5-6.1-10.6c-1.3-4.1-2-8.7-2-13.8
	c0-10.2,2.7-18.3,8.1-24.3c2.8-3,6-5.3,9.7-6.8c3.7-1.5,7.9-2.2,12.4-2.2c3.6,0,6.9,0.4,9.9,1.3c3,0.9,5.7,2.2,8.1,4.1
	c3,2.2,5.1,4.6,6.6,7.4c1.4,2.8,2.3,5.9,2.7,9.4h-12.4c-0.3-1.8-0.8-3.4-1.6-4.9c-0.8-1.5-1.8-2.7-3-3.7c-1.3-1-2.8-1.8-4.5-2.3
	c-1.7-0.5-3.6-0.8-5.7-0.8c-2.6,0-5,0.5-7.2,1.5c-2.2,1-4,2.4-5.6,4.4c-1.5,1.9-2.7,4.3-3.6,7.2c-0.8,2.8-1.2,6.1-1.2,9.8
	c0,3.7,0.4,6.9,1.2,9.8c0.8,2.8,2,5.2,3.5,7.1c1.5,1.9,3.4,3.4,5.5,4.4c2.2,1,4.6,1.5,7.2,1.5c4.3,0,7.7-1.1,10.3-3.2
	c2.6-2.2,4.2-5.3,4.7-9.3h12.3c-0.4,3.7-1.3,7-2.7,9.8c-1.4,2.9-3.3,5.3-5.8,7.3c-2.5,2-5.3,3.5-8.4,4.5
	C218.9,86.7,215.5,87.2,211.6,87.2z"/>
<path class="st0" d="M139.4,168.5c-4.6,0-8.9-0.8-12.7-2.3c-3.8-1.6-7.1-3.8-9.8-6.6c-2.7-2.9-4.9-6.4-6.4-10.5
	c-1.5-4.1-2.2-8.8-2.2-13.9c0-5,0.7-9.5,2.1-13.6c1.4-4.1,3.4-7.6,6.1-10.5c2.7-2.9,5.9-5.2,9.8-6.8c3.8-1.6,8.2-2.4,13-2.4
	c4,0,7.6,0.5,10.9,1.5c3.3,1,6.2,2.5,8.6,4.4c2.4,1.9,4.4,4.1,5.9,6.8c1.5,2.7,2.4,5.7,2.8,9H155c-0.2-1.7-0.7-3.3-1.5-4.7
	c-0.8-1.4-1.9-2.6-3.2-3.5c-1.3-1-2.9-1.7-4.8-2.2c-1.9-0.5-4-0.8-6.2-0.8c-2.8,0-5.3,0.5-7.6,1.5c-2.3,1-4.2,2.5-5.8,4.4
	c-1.6,1.9-2.8,4.3-3.7,7.2c-0.9,2.8-1.3,6.1-1.3,9.7c0,3.7,0.4,7,1.3,9.8c0.9,2.8,2.2,5.2,3.8,7.1c1.6,1.9,3.6,3.4,5.9,4.4
	c2.3,1,4.9,1.5,7.8,1.5c3.7,0,6.9-0.6,9.7-1.7c2.8-1.1,5.1-2.8,7-5.1v-8h-14.6v-9.6h26.6v33.8h-7.8l-1.8-5.7c-2.2,2.2-4.9,3.9-8.1,5
	C147.5,167.9,143.8,168.5,139.4,168.5z"/>
<path class="st0" d="M208.8,249.8c-9,0-15.8-1.9-20.6-5.7c-4.8-3.8-7.4-9.4-7.8-16.6h11.9c0.2,2.1,0.7,3.9,1.6,5.4
	c0.9,1.5,2,2.8,3.5,3.8c1.4,1,3.1,1.8,5,2.3c1.9,0.5,4,0.8,6.1,0.8c2.1,0,4-0.2,5.8-0.6c1.7-0.4,3.2-1,4.4-1.8
	c1.2-0.8,2.1-1.7,2.8-2.9c0.7-1.1,1-2.4,1-3.9c0-1.3-0.3-2.4-0.9-3.3c-0.6-0.9-1.5-1.7-2.7-2.4c-1.2-0.7-2.7-1.4-4.5-1.9
	c-1.8-0.6-3.9-1.2-6.3-1.8c-3.5-0.8-6.7-1.7-9.7-2.5c-2.9-0.9-5.4-1.9-7.6-3.1c-2.2-1.2-3.9-2.7-5.2-4.5c-1.3-1.7-2.1-4-2.5-6.7
	c-0.1-0.7-0.2-1.4-0.2-2.1c0-0.7,0-1.5,0-2.2c0.2-2.5,0.9-4.8,2.1-6.9c1.2-2.1,2.9-3.9,5-5.4c2.1-1.5,4.6-2.7,7.5-3.5
	c2.9-0.9,6.1-1.3,9.7-1.3c3.8,0,7.3,0.4,10.5,1.3c3.1,0.9,5.8,2.2,8,3.9c2.3,1.7,4,3.8,5.3,6.3c1.3,2.4,2,5.2,2.1,8.4h-12
	c-0.6-6.6-5.2-9.9-13.6-9.9c-2,0-3.8,0.2-5.3,0.6c-1.6,0.4-2.9,0.9-4,1.7c-1.1,0.7-1.9,1.5-2.5,2.5c-0.6,1-0.9,2.1-0.9,3.3
	c0,1.2,0.2,2.2,0.7,3c0.5,0.8,1.3,1.6,2.4,2.2c1.1,0.6,2.5,1.2,4.2,1.7c1.7,0.5,3.8,1.1,6.3,1.6c2.3,0.5,4.5,1,6.7,1.5
	c2.2,0.5,4.3,1.1,6.2,1.8c1.9,0.7,3.7,1.5,5.3,2.4c1.7,0.9,3,2,4.2,3.4c1.2,1.3,2.1,2.9,2.7,4.7c0.7,1.8,1,3.9,1,6.3
	c0,3.1-0.7,5.8-2,8.3c-1.3,2.4-3.1,4.5-5.4,6.2c-2.3,1.7-5,3-8.1,4C216,249.3,212.6,249.8,208.8,249.8z"/>
<path class="st0" d="M309.2,167.4h-14.7l-19.8-30.4l-7.3,7v23.4H255v-64.4h12.3v29.5l25.8-29.5h15l-24.1,27L309.2,167.4z"/>
<path class="st0" d="M183.9,102.9h21.2c11.2,0,19.6,2.6,25.2,7.9c5.7,5.2,8.5,13.2,8.5,24c0,21.7-11.2,32.6-33.7,32.6h-21.2V102.9z
	 M196.2,156.9h8.8c4.2,0,7.6-0.5,10.3-1.4c2.7-1,4.8-2.4,6.3-4.3c2.9-3.9,4.4-9.4,4.4-16.3c0-6.8-1.5-12-4.4-15.8
	c-1.5-1.8-3.6-3.2-6.3-4.1c-2.7-1-6.2-1.4-10.3-1.4h-8.8V156.9z"/>
</svg>
